<svg width="40" height="40" viewBox="0 0 40 40" fill="none" xmlns="http://www.w3.org/2000/svg">
<rect width="40" height="40" rx="10" fill="#3E6957"/>
<path d="M19.994 9.88287C19.3139 9.88287 18.6458 9.94907 18.0019 10.0815V7.15046C18.6519 7.04815 19.3199 7 19.994 7C23.3644 7 26.4338 8.28194 28.7449 10.3824L30.8574 8.26991C31.4653 7.66204 32.5005 8.09537 32.5005 8.95V15.2935C32.5005 15.8231 32.0671 16.2565 31.5375 16.2565H25.194C24.3333 16.2565 23.906 15.2213 24.5139 14.6134L26.6986 12.4287C24.9171 10.8458 22.5639 9.88889 19.994 9.88889V9.88287ZM12.3384 13.3977C10.8097 15.1671 9.88889 17.4782 9.88889 20C9.88889 20.6681 9.95509 21.3241 10.0755 21.956H7.14444C7.04815 21.3181 7 20.6681 7 20C7 16.6778 8.24583 13.6505 10.2921 11.3514L8.17361 9.23287C7.56574 8.625 7.99306 7.58982 8.8537 7.58982H15.1972C15.7269 7.58982 16.1602 8.02315 16.1602 8.55278V14.8903C16.1602 15.7509 15.125 16.1782 14.5171 15.5704L12.3384 13.3917V13.3977ZM15.4801 25.5792L13.3977 27.6616C15.1671 29.1903 17.4782 30.1111 20 30.1111C20.6319 30.1111 21.2579 30.0509 21.8597 29.9426V32.8676C21.2519 32.9519 20.6319 33 20 33C16.6778 33 13.6505 31.7542 11.3514 29.7079L9.13657 31.9167C8.5287 32.5245 7.49352 32.0912 7.49352 31.2366V24.8931C7.49352 24.3634 7.92685 23.9301 8.45648 23.9301H14.8C15.6606 23.9301 16.088 24.9653 15.4801 25.5731V25.5792ZM25.4829 24.6162L27.5713 26.7046C29.1542 24.9231 30.1111 22.5699 30.1111 20C30.1111 19.35 30.0509 18.7181 29.9306 18.1042H32.8616C32.9519 18.7241 33 19.356 33 20C33 23.3704 31.7181 26.4398 29.6176 28.7509L31.8264 30.9597C32.4343 31.5676 32.0009 32.6028 31.1463 32.6028H24.7968C24.2671 32.6028 23.8338 32.1694 23.8338 31.6398V25.2903C23.8338 24.4296 24.869 24.0023 25.4769 24.6102L25.4829 24.6162Z" fill="white"/>
</svg>
