<svg width="40" height="39" viewBox="0 0 40 39" fill="none" xmlns="http://www.w3.org/2000/svg">
<rect width="40" height="39" rx="10" fill="#3E6957"/>
<path d="M24.1981 15.9047C24.1981 20.2703 20.1254 23.8094 15.099 23.8094C13.428 23.8094 11.8663 23.4187 10.5189 22.736C10.1908 22.9156 9.81897 23.0908 9.41652 23.248C8.61597 23.5579 7.65358 23.8094 6.69993 23.8094C6.39808 23.8094 6.12686 23.6073 6.035 23.3109C5.94313 23.0145 6.04375 22.6911 6.28872 22.5069L6.29747 22.4979C6.30622 22.489 6.32372 22.48 6.34559 22.462C6.38933 22.4261 6.45495 22.3722 6.53369 22.2958C6.69118 22.1476 6.90553 21.932 7.11551 21.6536C7.35611 21.3392 7.58358 20.9619 7.73669 20.5442C6.64306 19.2417 6 17.6384 6 15.9047C6 11.5392 10.0727 8 15.099 8C20.1254 8 24.1981 11.5392 24.1981 15.9047ZM16.1271 25.2017C21.2628 24.7481 25.5979 20.9484 25.5979 15.9047C25.5979 15.6712 25.5892 15.4376 25.5717 15.2086C30.2831 15.505 33.9971 18.9229 33.9971 23.0908C33.9971 24.8244 33.354 26.4278 32.2647 27.7348C32.4178 28.157 32.6453 28.5298 32.8859 28.8442C33.0959 29.1226 33.3103 29.3382 33.4677 29.4864C33.5465 29.5583 33.6121 29.6167 33.6558 29.6526C33.6777 29.6706 33.6952 29.684 33.704 29.6885L33.7127 29.6975C33.9577 29.8817 34.0583 30.205 33.9664 30.5015C33.8746 30.7979 33.6033 31 33.3015 31C32.3479 31 31.3855 30.7485 30.5849 30.4386C30.1825 30.2814 29.8062 30.1062 29.4825 29.9266C28.1308 30.6048 26.5691 30.9955 24.898 30.9955C20.716 30.9955 17.1901 28.5433 16.1271 25.2017ZM11.9581 12.8686L11.9406 12.9135C11.7788 13.3806 12.0194 13.8926 12.4743 14.0588C12.9293 14.225 13.428 13.9779 13.5898 13.5108L13.6073 13.4659C13.6467 13.3447 13.7604 13.2683 13.8829 13.2683H16.0046C16.3108 13.2683 16.5558 13.5243 16.5558 13.8342C16.5558 14.0363 16.4508 14.225 16.2802 14.3238L14.6616 15.2804C14.3904 15.4421 14.2241 15.7385 14.2241 16.0574V16.5604C14.2241 17.0545 14.6178 17.4587 15.099 17.4587C15.5759 17.4587 15.9652 17.0635 15.974 16.5784L17.1507 15.8867C17.8638 15.4646 18.3056 14.6831 18.3056 13.8387C18.3056 12.5317 17.2732 11.4763 16.0046 11.4763H13.8829C13.0168 11.4763 12.2468 12.0332 11.9581 12.8731V12.8686ZM16.267 19.8571C16.2768 19.6937 16.2539 19.53 16.1997 19.3761C16.1455 19.2222 16.0612 19.0813 15.952 18.9621C15.8428 18.8429 15.711 18.7479 15.5647 18.683C15.4183 18.618 15.2606 18.5845 15.1012 18.5845C14.9418 18.5845 14.7841 18.618 14.6378 18.683C14.4915 18.7479 14.3597 18.8429 14.2504 18.9621C14.1412 19.0813 14.0569 19.2222 14.0028 19.3761C13.9486 19.53 13.9257 19.6937 13.9354 19.8571C13.9257 20.0204 13.9486 20.1841 14.0028 20.338C14.0569 20.4919 14.1412 20.6328 14.2504 20.752C14.3597 20.8712 14.4915 20.9662 14.6378 21.0312C14.7841 21.0961 14.9418 21.1296 15.1012 21.1296C15.2606 21.1296 15.4183 21.0961 15.5647 21.0312C15.711 20.9662 15.8428 20.8712 15.952 20.752C16.0612 20.6328 16.1455 20.4919 16.1997 20.338C16.2539 20.1841 16.2768 20.0204 16.267 19.8571Z" fill="white"/>
</svg>
