<svg width="40" height="40" viewBox="0 0 40 40" fill="none" xmlns="http://www.w3.org/2000/svg">
<rect width="40" height="40" rx="10" fill="#3E6957"/>
<path d="M13.6667 8C11.9201 8 10.5 9.34531 10.5 11V29C10.5 30.6547 11.9201 32 13.6667 32H26.3333C28.0799 32 29.5 30.6547 29.5 29V15.5H23.1667C22.2909 15.5 21.5833 14.8297 21.5833 14V8H13.6667ZM23.1667 8V14H29.5L23.1667 8ZM14.4583 11H17.625C18.0604 11 18.4167 11.3375 18.4167 11.75C18.4167 12.1625 18.0604 12.5 17.625 12.5H14.4583C14.0229 12.5 13.6667 12.1625 13.6667 11.75C13.6667 11.3375 14.0229 11 14.4583 11ZM14.4583 14H17.625C18.0604 14 18.4167 14.3375 18.4167 14.75C18.4167 15.1625 18.0604 15.5 17.625 15.5H14.4583C14.0229 15.5 13.6667 15.1625 13.6667 14.75C13.6667 14.3375 14.0229 14 14.4583 14ZM17.1401 25.8969C16.8383 26.8484 15.913 27.5 14.8641 27.5H14.4583C14.0229 27.5 13.6667 27.1625 13.6667 26.75C13.6667 26.3375 14.0229 26 14.4583 26H14.8641C15.2154 26 15.5221 25.7844 15.6211 25.4656L16.3583 23.1453C16.5266 22.6156 17.0411 22.25 17.625 22.25C18.2089 22.25 18.7234 22.6109 18.8917 23.1453L19.4656 24.9547C19.8318 24.6641 20.2969 24.5 20.7917 24.5C21.5784 24.5 22.2958 24.9219 22.6471 25.5875L22.8648 26H25.5417C25.9771 26 26.3333 26.3375 26.3333 26.75C26.3333 27.1625 25.9771 27.5 25.5417 27.5H22.375C22.0732 27.5 21.801 27.3406 21.6674 27.0875L21.232 26.2578C21.1479 26.0984 20.9797 26 20.7966 26C20.6135 26 20.4404 26.0984 20.3612 26.2578L19.9258 27.0875C19.7823 27.3641 19.4706 27.5281 19.149 27.5C18.8273 27.4719 18.5503 27.2609 18.4612 26.9703L17.625 24.3594L17.1401 25.8969Z" fill="white"/>
</svg>
