<svg width="40" height="40" viewBox="0 0 40 40" fill="none" xmlns="http://www.w3.org/2000/svg">
<rect width="40" height="40" rx="10" fill="#3E6957"/>
<path d="M27.3951 8.36117L27.2882 8.25908C27.0597 8.03547 26.7292 7.94797 26.4181 8.03061C26.1069 8.11325 25.8639 8.35144 25.7812 8.66255L25.7424 8.80353C25.5819 9.37714 25.4944 9.95561 25.475 10.5341C26.6562 11.5355 27.5604 12.8577 28.066 14.3646C27.6674 14.2723 27.2639 14.2237 26.8507 14.2237C26.8215 14.2237 26.7972 14.2237 26.7681 14.2237C25.8736 12.0848 24.0215 10.4612 21.7319 9.88269L21.5667 9.83894C21.2653 9.76117 20.9396 9.80978 20.6674 9.96533C20.1424 10.2667 19.909 10.9132 20.1229 11.4771C20.8472 13.3973 22.2764 14.948 24.0799 15.8376C23.9 16.1584 23.7687 16.5181 23.7104 16.8973L18.5965 13.9806C17.0944 13.1251 15.3931 12.673 13.6625 12.673C12.0924 12.673 10.6389 13.4896 9.82708 14.8313C9.32639 14.2237 8.56806 13.8396 7.72222 13.8396C6.22014 13.8396 5 15.0598 5 16.5619C5 18.0639 6.22014 19.2841 7.72222 19.2841C8.27153 19.2841 8.78194 19.1237 9.20972 18.8417C9.44792 19.6778 9.91458 20.4507 10.5903 21.073L17.5028 27.4119C18.0764 27.9369 18.825 28.2285 19.6028 28.2285H25.2222C26.0826 28.2285 26.7778 27.5334 26.7778 26.673C26.7778 25.8126 26.0826 25.1174 25.2222 25.1174H22.1111H21.2944H20.5556V23.0028C20.5556 20.9174 19.175 19.0896 17.1722 18.516L15.675 18.0882C15.2618 17.9716 15.0236 17.5389 15.1403 17.1257C15.2569 16.7126 15.6896 16.4744 16.1028 16.591L17.6 17.0188C20.2736 17.782 22.1111 20.2223 22.1111 23.0028V23.766L24.8333 22.191L25.1444 22.0112H30.0688C31.6875 22.0112 33 20.6987 33 19.0799C33 18.2001 32.6014 17.3639 31.9208 16.8098L30.2389 15.4389C30.0153 15.2591 29.7819 15.0938 29.534 14.9528C29.9424 12.5563 29.1549 10.0917 27.4 8.36603L27.3951 8.36117ZM11.9125 26.9306C11.1979 27.407 11.0035 28.3744 11.4799 29.0889C11.9563 29.8035 12.9236 29.998 13.6382 29.5216L15.8743 28.0292L13.5118 25.866L11.9125 26.9355V26.9306ZM28.3333 18.1174C28.3333 17.9111 28.4153 17.7133 28.5611 17.5674C28.707 17.4216 28.9048 17.3396 29.1111 17.3396C29.3174 17.3396 29.5152 17.4216 29.6611 17.5674C29.8069 17.7133 29.8889 17.9111 29.8889 18.1174C29.8889 18.3237 29.8069 18.5215 29.6611 18.6674C29.5152 18.8132 29.3174 18.8952 29.1111 18.8952C28.9048 18.8952 28.707 18.8132 28.5611 18.6674C28.4153 18.5215 28.3333 18.3237 28.3333 18.1174Z" fill="white"/>
</svg>
