<svg width="40" height="40" viewBox="0 0 40 40" fill="none" xmlns="http://www.w3.org/2000/svg">
<rect width="40" height="40" rx="10" fill="#3E6957"/>
<path d="M26.3563 8C27.2469 8 28.1 8.35156 28.7281 8.98438L34.2969 14.5484C34.7469 14.9984 35 15.6125 35 16.25C35 16.8875 34.7469 17.5016 34.2969 17.9516L28.7281 23.5156C28.1 24.1437 27.2469 24.5 26.3563 24.5C24.6219 24.5 23.1969 23.1875 23.0187 21.5H14.75C14.3375 21.5 14 21.1625 14 20.75V18.8563C14 18.6594 13.8406 18.5 13.6437 18.5C13.55 18.5 13.4609 18.5375 13.3906 18.6031L8.24844 23.75L13.3906 28.8969C13.4563 28.9625 13.55 29 13.6437 29C13.8406 29 14 28.8406 14 28.6437V26.75C14 26.3375 14.3375 26 14.75 26H20C20.8297 26 21.5 26.6703 21.5 27.5C21.5 28.3297 20.8297 29 20 29H16.9813C16.8031 30.6875 15.3781 32 13.6437 32C12.7531 32 11.9 31.6484 11.2719 31.0156L5.70312 25.4516C5.25312 25.0016 5 24.3875 5 23.75C5 23.1125 5.25312 22.4984 5.70312 22.0484L11.2719 16.4844C11.9 15.8562 12.7531 15.5 13.6437 15.5C15.3781 15.5 16.8031 16.8125 16.9813 18.5H25.25C25.6625 18.5 26 18.8375 26 19.25V21.1437C26 21.3406 26.1594 21.5 26.3563 21.5C26.45 21.5 26.5391 21.4625 26.6094 21.3969L31.7516 16.25L26.6094 11.1031C26.5438 11.0375 26.45 11 26.3563 11C26.1594 11 26 11.1594 26 11.3562V13.25C26 13.6625 25.6625 14 25.25 14H20C19.1703 14 18.5 13.3297 18.5 12.5C18.5 11.6703 19.1703 11 20 11H23.0187C23.1969 9.3125 24.6219 8 26.3563 8Z" fill="white"/>
</svg>
