<svg width="130" height="130" viewBox="0 0 130 130" fill="none" xmlns="http://www.w3.org/2000/svg">
<path d="M38.5926 73.4036V56.9036C34.7652 55.1415 31.2035 53.0055 27.9608 50.4958V73.4036H38.5926ZM27.9608 94.7629H17.3289V84.0833H6.69702V73.4036H17.3289V36.0249H27.9608V43.6608C37.5294 52.0444 50.6598 57.3842 65.1723 57.3842C79.6848 57.3842 92.8152 52.0444 102.384 43.6608V36.0249H113.016V73.4036H123.648V84.0833H113.016V94.7629H102.384V84.0833H27.9608V94.7629ZM91.752 56.9036V73.4036H102.384V50.4958C99.1411 53.0055 95.5795 55.1415 91.752 56.9036ZM86.4361 73.4036V59.0929C83.0339 60.3211 79.4722 61.2289 75.8042 61.8696V73.4036H86.4361ZM70.4882 73.4036V62.5104L65.1723 62.724L59.8564 62.5104V73.4036H70.4882ZM54.5404 73.4036V61.8696C50.8724 61.2289 47.3108 60.3211 43.9086 59.0929V73.4036H54.5404Z" fill="#3E6957"/>
</svg>
