<svg width="130" height="131" viewBox="0 0 130 131" fill="none" xmlns="http://www.w3.org/2000/svg">
<!-- <rect y="0.844604" width="130" height="130" fill="#F0EBDE"/> -->
<rect x="10.2168" y="12.2168" width="16.474" height="16.474" stroke="#3E6957" stroke-width="0.433527"/>
<rect x="10.2168" y="12.2168" width="16.474" height="16.474" stroke="#3E6957" stroke-width="0.433527"/>
<rect x="10.2168" y="12.2168" width="16.474" height="16.474" stroke="#3E6957" stroke-width="0.433527"/>
<rect x="10.2168" y="12.2168" width="16.474" height="16.474" stroke="#3E6957" stroke-width="0.433527"/>
<rect x="10.2168" y="12.2168" width="16.474" height="16.474" stroke="#3E6957" stroke-width="0.433527"/>
<rect x="10.2168" y="30.8584" width="16.474" height="16.474" fill="#3E6957"/>
<rect x="10.2168" y="30.8584" width="16.474" height="16.474" stroke="#3E6957" stroke-width="0.433527"/>
<rect x="10.2168" y="30.8584" width="16.474" height="16.474" stroke="#3E6957" stroke-width="0.433527"/>
<rect x="10.2168" y="30.8584" width="16.474" height="16.474" stroke="#3E6957" stroke-width="0.433527"/>
<rect x="10.2168" y="30.8584" width="16.474" height="16.474" stroke="#3E6957" stroke-width="0.433527"/>
<rect x="10.2168" y="30.8584" width="16.474" height="16.474" stroke="#3E6957" stroke-width="0.433527"/>
<rect x="28.8589" y="12.2168" width="16.474" height="16.474" fill="#3E6957"/>
<rect x="28.8589" y="12.2168" width="16.474" height="16.474" stroke="#3E6957" stroke-width="0.433527"/>
<rect x="28.8589" y="12.2168" width="16.474" height="16.474" stroke="#3E6957" stroke-width="0.433527"/>
<rect x="28.8589" y="12.2168" width="16.474" height="16.474" stroke="#3E6957" stroke-width="0.433527"/>
<rect x="28.8589" y="12.2168" width="16.474" height="16.474" stroke="#3E6957" stroke-width="0.433527"/>
<rect x="28.8589" y="12.2168" width="16.474" height="16.474" stroke="#3E6957" stroke-width="0.433527"/>
<rect x="28.8589" y="30.8584" width="16.474" height="16.474" fill="#3E6957"/>
<rect x="28.8589" y="30.8584" width="16.474" height="16.474" stroke="#3E6957" stroke-width="0.433527"/>
<rect x="28.8589" y="30.8584" width="16.474" height="16.474" stroke="#3E6957" stroke-width="0.433527"/>
<rect x="28.8589" y="30.8584" width="16.474" height="16.474" stroke="#3E6957" stroke-width="0.433527"/>
<rect x="28.8589" y="30.8584" width="16.474" height="16.474" stroke="#3E6957" stroke-width="0.433527"/>
<rect x="28.8589" y="30.8584" width="16.474" height="16.474" stroke="#3E6957" stroke-width="0.433527"/>
<rect x="47.0669" y="12.2168" width="16.474" height="16.474" fill="#3E6957"/>
<rect x="47.0669" y="12.2168" width="16.474" height="16.474" stroke="#3E6957" stroke-width="0.433527"/>
<rect x="47.0669" y="12.2168" width="16.474" height="16.474" stroke="#3E6957" stroke-width="0.433527"/>
<rect x="47.0669" y="12.2168" width="16.474" height="16.474" stroke="#3E6957" stroke-width="0.433527"/>
<rect x="47.0669" y="12.2168" width="16.474" height="16.474" stroke="#3E6957" stroke-width="0.433527"/>
<rect x="47.0669" y="12.2168" width="16.474" height="16.474" stroke="#3E6957" stroke-width="0.433527"/>
<rect x="47.0669" y="30.8584" width="16.474" height="16.474" stroke="#3E6957" stroke-width="0.433527"/>
<rect x="47.0669" y="30.8584" width="16.474" height="16.474" stroke="#3E6957" stroke-width="0.433527"/>
<rect x="47.0669" y="30.8584" width="16.474" height="16.474" stroke="#3E6957" stroke-width="0.433527"/>
<rect x="47.0669" y="30.8584" width="16.474" height="16.474" stroke="#3E6957" stroke-width="0.433527"/>
<rect x="47.0669" y="30.8584" width="16.474" height="16.474" stroke="#3E6957" stroke-width="0.433527"/>
<rect x="10.2168" y="49.0666" width="16.474" height="16.474" fill="#3E6957"/>
<rect x="10.2168" y="49.0666" width="16.474" height="16.474" stroke="#3E6957" stroke-width="0.433527"/>
<rect x="10.2168" y="49.0666" width="16.474" height="16.474" stroke="#3E6957" stroke-width="0.433527"/>
<rect x="10.2168" y="49.0666" width="16.474" height="16.474" stroke="#3E6957" stroke-width="0.433527"/>
<rect x="10.2168" y="49.0666" width="16.474" height="16.474" stroke="#3E6957" stroke-width="0.433527"/>
<rect x="10.2168" y="49.0666" width="16.474" height="16.474" stroke="#3E6957" stroke-width="0.433527"/>
<rect x="28.8589" y="49.0666" width="16.474" height="16.474" stroke="#3E6957" stroke-width="0.433527"/>
<rect x="28.8589" y="49.0666" width="16.474" height="16.474" stroke="#3E6957" stroke-width="0.433527"/>
<rect x="28.8589" y="49.0666" width="16.474" height="16.474" stroke="#3E6957" stroke-width="0.433527"/>
<rect x="28.8589" y="49.0666" width="16.474" height="16.474" stroke="#3E6957" stroke-width="0.433527"/>
<rect x="28.8589" y="49.0666" width="16.474" height="16.474" stroke="#3E6957" stroke-width="0.433527"/>
<rect x="47.0669" y="49.0666" width="16.474" height="16.474" stroke="#3E6957" stroke-width="0.433527"/>
<rect x="47.0669" y="49.0666" width="16.474" height="16.474" stroke="#3E6957" stroke-width="0.433527"/>
<rect x="47.0669" y="49.0666" width="16.474" height="16.474" stroke="#3E6957" stroke-width="0.433527"/>
<rect x="47.0669" y="49.0666" width="16.474" height="16.474" stroke="#3E6957" stroke-width="0.433527"/>
<rect x="47.0669" y="49.0666" width="16.474" height="16.474" stroke="#3E6957" stroke-width="0.433527"/>
<rect x="65.459" y="12.2168" width="16.474" height="16.474" fill="#3E6957"/>
<rect x="65.459" y="12.2168" width="16.474" height="16.474" stroke="#3E6957" stroke-width="0.433527"/>
<rect x="65.459" y="12.2168" width="16.474" height="16.474" stroke="#3E6957" stroke-width="0.433527"/>
<rect x="65.459" y="12.2168" width="16.474" height="16.474" stroke="#3E6957" stroke-width="0.433527"/>
<rect x="65.459" y="12.2168" width="16.474" height="16.474" stroke="#3E6957" stroke-width="0.433527"/>
<rect x="65.459" y="12.2168" width="16.474" height="16.474" stroke="#3E6957" stroke-width="0.433527"/>
<rect x="65.459" y="30.8584" width="16.474" height="16.474" stroke="#3E6957" stroke-width="0.433527"/>
<rect x="65.459" y="30.8584" width="16.474" height="16.474" stroke="#3E6957" stroke-width="0.433527"/>
<rect x="65.459" y="30.8584" width="16.474" height="16.474" stroke="#3E6957" stroke-width="0.433527"/>
<rect x="65.459" y="30.8584" width="16.474" height="16.474" stroke="#3E6957" stroke-width="0.433527"/>
<rect x="65.459" y="30.8584" width="16.474" height="16.474" stroke="#3E6957" stroke-width="0.433527"/>
<rect x="84.101" y="12.2168" width="16.474" height="16.474" fill="#3E6957"/>
<rect x="84.101" y="12.2168" width="16.474" height="16.474" stroke="#3E6957" stroke-width="0.433527"/>
<rect x="84.101" y="12.2168" width="16.474" height="16.474" stroke="#3E6957" stroke-width="0.433527"/>
<rect x="84.101" y="12.2168" width="16.474" height="16.474" stroke="#3E6957" stroke-width="0.433527"/>
<rect x="84.101" y="12.2168" width="16.474" height="16.474" stroke="#3E6957" stroke-width="0.433527"/>
<rect x="84.101" y="12.2168" width="16.474" height="16.474" stroke="#3E6957" stroke-width="0.433527"/>
<rect x="84.101" y="30.8584" width="16.474" height="16.474" fill="#3E6957"/>
<rect x="84.101" y="30.8584" width="16.474" height="16.474" stroke="#3E6957" stroke-width="0.433527"/>
<rect x="84.101" y="30.8584" width="16.474" height="16.474" stroke="#3E6957" stroke-width="0.433527"/>
<rect x="84.101" y="30.8584" width="16.474" height="16.474" stroke="#3E6957" stroke-width="0.433527"/>
<rect x="84.101" y="30.8584" width="16.474" height="16.474" stroke="#3E6957" stroke-width="0.433527"/>
<rect x="84.101" y="30.8584" width="16.474" height="16.474" stroke="#3E6957" stroke-width="0.433527"/>
<rect x="102.309" y="12.2168" width="16.474" height="16.474" stroke="#3E6957" stroke-width="0.433527"/>
<rect x="102.309" y="12.2168" width="16.474" height="16.474" stroke="#3E6957" stroke-width="0.433527"/>
<rect x="102.309" y="12.2168" width="16.474" height="16.474" stroke="#3E6957" stroke-width="0.433527"/>
<rect x="102.309" y="12.2168" width="16.474" height="16.474" stroke="#3E6957" stroke-width="0.433527"/>
<rect x="102.309" y="12.2168" width="16.474" height="16.474" stroke="#3E6957" stroke-width="0.433527"/>
<rect x="102.309" y="30.8584" width="16.474" height="16.474" fill="#3E6957"/>
<rect x="102.309" y="30.8584" width="16.474" height="16.474" stroke="#3E6957" stroke-width="0.433527"/>
<rect x="102.309" y="30.8584" width="16.474" height="16.474" stroke="#3E6957" stroke-width="0.433527"/>
<rect x="102.309" y="30.8584" width="16.474" height="16.474" stroke="#3E6957" stroke-width="0.433527"/>
<rect x="102.309" y="30.8584" width="16.474" height="16.474" stroke="#3E6957" stroke-width="0.433527"/>
<rect x="102.309" y="30.8584" width="16.474" height="16.474" stroke="#3E6957" stroke-width="0.433527"/>
<rect x="65.459" y="49.0666" width="16.474" height="16.474" stroke="#3E6957" stroke-width="0.433527"/>
<rect x="65.459" y="49.0666" width="16.474" height="16.474" stroke="#3E6957" stroke-width="0.433527"/>
<rect x="65.459" y="49.0666" width="16.474" height="16.474" stroke="#3E6957" stroke-width="0.433527"/>
<rect x="65.459" y="49.0666" width="16.474" height="16.474" stroke="#3E6957" stroke-width="0.433527"/>
<rect x="65.459" y="49.0666" width="16.474" height="16.474" stroke="#3E6957" stroke-width="0.433527"/>
<rect x="84.101" y="49.0666" width="16.474" height="16.474" stroke="#3E6957" stroke-width="0.433527"/>
<rect x="84.101" y="49.0666" width="16.474" height="16.474" stroke="#3E6957" stroke-width="0.433527"/>
<rect x="84.101" y="49.0666" width="16.474" height="16.474" stroke="#3E6957" stroke-width="0.433527"/>
<rect x="84.101" y="49.0666" width="16.474" height="16.474" stroke="#3E6957" stroke-width="0.433527"/>
<rect x="84.101" y="49.0666" width="16.474" height="16.474" stroke="#3E6957" stroke-width="0.433527"/>
<rect x="102.309" y="49.0666" width="16.474" height="16.474" stroke="#3E6957" stroke-width="0.433527"/>
<rect x="102.309" y="49.0666" width="16.474" height="16.474" stroke="#3E6957" stroke-width="0.433527"/>
<rect x="102.309" y="49.0666" width="16.474" height="16.474" stroke="#3E6957" stroke-width="0.433527"/>
<rect x="102.309" y="49.0666" width="16.474" height="16.474" stroke="#3E6957" stroke-width="0.433527"/>
<rect x="102.309" y="49.0666" width="16.474" height="16.474" stroke="#3E6957" stroke-width="0.433527"/>
<rect x="10.2168" y="67.4587" width="16.474" height="16.474" fill="#3E6957"/>
<rect x="10.2168" y="67.4587" width="16.474" height="16.474" stroke="#3E6957" stroke-width="0.433527"/>
<rect x="10.2168" y="67.4587" width="16.474" height="16.474" stroke="#3E6957" stroke-width="0.433527"/>
<rect x="10.2168" y="67.4587" width="16.474" height="16.474" stroke="#3E6957" stroke-width="0.433527"/>
<rect x="10.2168" y="67.4587" width="16.474" height="16.474" stroke="#3E6957" stroke-width="0.433527"/>
<rect x="10.2168" y="67.4587" width="16.474" height="16.474" stroke="#3E6957" stroke-width="0.433527"/>
<rect x="10.2168" y="86.1004" width="16.474" height="16.474" fill="#3E6957"/>
<rect x="10.2168" y="86.1004" width="16.474" height="16.474" stroke="#3E6957" stroke-width="0.433527"/>
<rect x="10.2168" y="86.1004" width="16.474" height="16.474" stroke="#3E6957" stroke-width="0.433527"/>
<rect x="10.2168" y="86.1004" width="16.474" height="16.474" stroke="#3E6957" stroke-width="0.433527"/>
<rect x="10.2168" y="86.1004" width="16.474" height="16.474" stroke="#3E6957" stroke-width="0.433527"/>
<rect x="10.2168" y="86.1004" width="16.474" height="16.474" stroke="#3E6957" stroke-width="0.433527"/>
<rect x="28.8589" y="67.4587" width="16.474" height="16.474" stroke="#3E6957" stroke-width="0.433527"/>
<rect x="28.8589" y="67.4587" width="16.474" height="16.474" stroke="#3E6957" stroke-width="0.433527"/>
<rect x="28.8589" y="67.4587" width="16.474" height="16.474" stroke="#3E6957" stroke-width="0.433527"/>
<rect x="28.8589" y="67.4587" width="16.474" height="16.474" stroke="#3E6957" stroke-width="0.433527"/>
<rect x="28.8589" y="67.4587" width="16.474" height="16.474" stroke="#3E6957" stroke-width="0.433527"/>
<rect x="28.8589" y="86.1004" width="16.474" height="16.474" fill="#3E6957"/>
<rect x="28.8589" y="86.1004" width="16.474" height="16.474" stroke="#3E6957" stroke-width="0.433527"/>
<rect x="28.8589" y="86.1004" width="16.474" height="16.474" stroke="#3E6957" stroke-width="0.433527"/>
<rect x="28.8589" y="86.1004" width="16.474" height="16.474" stroke="#3E6957" stroke-width="0.433527"/>
<rect x="28.8589" y="86.1004" width="16.474" height="16.474" stroke="#3E6957" stroke-width="0.433527"/>
<rect x="28.8589" y="86.1004" width="16.474" height="16.474" stroke="#3E6957" stroke-width="0.433527"/>
<rect x="47.0669" y="67.4587" width="16.474" height="16.474" stroke="#3E6957" stroke-width="0.433527"/>
<rect x="47.0669" y="67.4587" width="16.474" height="16.474" stroke="#3E6957" stroke-width="0.433527"/>
<rect x="47.0669" y="67.4587" width="16.474" height="16.474" stroke="#3E6957" stroke-width="0.433527"/>
<rect x="47.0669" y="67.4587" width="16.474" height="16.474" stroke="#3E6957" stroke-width="0.433527"/>
<rect x="47.0669" y="67.4587" width="16.474" height="16.474" stroke="#3E6957" stroke-width="0.433527"/>
<rect x="47.0669" y="86.1004" width="16.474" height="16.474" stroke="#3E6957" stroke-width="0.433527"/>
<rect x="47.0669" y="86.1004" width="16.474" height="16.474" stroke="#3E6957" stroke-width="0.433527"/>
<rect x="47.0669" y="86.1004" width="16.474" height="16.474" stroke="#3E6957" stroke-width="0.433527"/>
<rect x="47.0669" y="86.1004" width="16.474" height="16.474" stroke="#3E6957" stroke-width="0.433527"/>
<rect x="47.0669" y="86.1004" width="16.474" height="16.474" stroke="#3E6957" stroke-width="0.433527"/>
<rect x="10.2168" y="104.309" width="16.474" height="16.474" stroke="#3E6957" stroke-width="0.433527"/>
<rect x="10.2168" y="104.309" width="16.474" height="16.474" stroke="#3E6957" stroke-width="0.433527"/>
<rect x="10.2168" y="104.309" width="16.474" height="16.474" stroke="#3E6957" stroke-width="0.433527"/>
<rect x="10.2168" y="104.309" width="16.474" height="16.474" stroke="#3E6957" stroke-width="0.433527"/>
<rect x="10.2168" y="104.309" width="16.474" height="16.474" stroke="#3E6957" stroke-width="0.433527"/>
<path d="M28.8589 104.309H45.3329V120.783H28.8589V104.309Z" fill="#3E6957"/>
<path d="M28.8589 104.309H45.3329V120.783H28.8589V104.309Z" stroke="#3E6957" stroke-width="0.433527"/>
<path d="M28.8589 104.309H45.3329V120.783H28.8589V104.309Z" stroke="#3E6957" stroke-width="0.433527"/>
<path d="M28.8589 104.309H45.3329V120.783H28.8589V104.309Z" stroke="#3E6957" stroke-width="0.433527"/>
<path d="M28.8589 104.309H45.3329V120.783H28.8589V104.309Z" stroke="#3E6957" stroke-width="0.433527"/>
<path d="M28.8589 104.309H45.3329V120.783H28.8589V104.309Z" stroke="#3E6957" stroke-width="0.433527"/>
<rect x="47.0669" y="104.309" width="16.474" height="16.474" fill="#3E6957"/>
<rect x="47.0669" y="104.309" width="16.474" height="16.474" stroke="#3E6957" stroke-width="0.433527"/>
<rect x="47.0669" y="104.309" width="16.474" height="16.474" stroke="#3E6957" stroke-width="0.433527"/>
<rect x="47.0669" y="104.309" width="16.474" height="16.474" stroke="#3E6957" stroke-width="0.433527"/>
<rect x="47.0669" y="104.309" width="16.474" height="16.474" stroke="#3E6957" stroke-width="0.433527"/>
<rect x="47.0669" y="104.309" width="16.474" height="16.474" stroke="#3E6957" stroke-width="0.433527"/>
<rect x="65.459" y="67.4587" width="16.474" height="16.474" fill="#3E6957"/>
<rect x="65.459" y="67.4587" width="16.474" height="16.474" stroke="#3E6957" stroke-width="0.433527"/>
<rect x="65.459" y="67.4587" width="16.474" height="16.474" stroke="#3E6957" stroke-width="0.433527"/>
<rect x="65.459" y="67.4587" width="16.474" height="16.474" stroke="#3E6957" stroke-width="0.433527"/>
<rect x="65.459" y="67.4587" width="16.474" height="16.474" stroke="#3E6957" stroke-width="0.433527"/>
<rect x="65.459" y="67.4587" width="16.474" height="16.474" stroke="#3E6957" stroke-width="0.433527"/>
<rect x="65.459" y="86.1004" width="16.474" height="16.474" stroke="#3E6957" stroke-width="0.433527"/>
<rect x="65.459" y="86.1004" width="16.474" height="16.474" stroke="#3E6957" stroke-width="0.433527"/>
<rect x="65.459" y="86.1004" width="16.474" height="16.474" stroke="#3E6957" stroke-width="0.433527"/>
<rect x="65.459" y="86.1004" width="16.474" height="16.474" stroke="#3E6957" stroke-width="0.433527"/>
<rect x="65.459" y="86.1004" width="16.474" height="16.474" stroke="#3E6957" stroke-width="0.433527"/>
<rect x="84.101" y="67.4587" width="16.474" height="16.474" fill="#3E6957"/>
<rect x="84.101" y="67.4587" width="16.474" height="16.474" stroke="#3E6957" stroke-width="0.433527"/>
<rect x="84.101" y="67.4587" width="16.474" height="16.474" stroke="#3E6957" stroke-width="0.433527"/>
<rect x="84.101" y="67.4587" width="16.474" height="16.474" stroke="#3E6957" stroke-width="0.433527"/>
<rect x="84.101" y="67.4587" width="16.474" height="16.474" stroke="#3E6957" stroke-width="0.433527"/>
<rect x="84.101" y="67.4587" width="16.474" height="16.474" stroke="#3E6957" stroke-width="0.433527"/>
<rect x="84.101" y="86.1004" width="16.474" height="16.474" fill="#3E6957"/>
<rect x="84.101" y="86.1004" width="16.474" height="16.474" stroke="#3E6957" stroke-width="0.433527"/>
<rect x="84.101" y="86.1004" width="16.474" height="16.474" stroke="#3E6957" stroke-width="0.433527"/>
<rect x="84.101" y="86.1004" width="16.474" height="16.474" stroke="#3E6957" stroke-width="0.433527"/>
<rect x="84.101" y="86.1004" width="16.474" height="16.474" stroke="#3E6957" stroke-width="0.433527"/>
<rect x="84.101" y="86.1004" width="16.474" height="16.474" stroke="#3E6957" stroke-width="0.433527"/>
<rect x="102.309" y="67.4587" width="16.474" height="16.474" fill="#3E6957"/>
<rect x="102.309" y="67.4587" width="16.474" height="16.474" stroke="#3E6957" stroke-width="0.433527"/>
<rect x="102.309" y="67.4587" width="16.474" height="16.474" stroke="#3E6957" stroke-width="0.433527"/>
<rect x="102.309" y="67.4587" width="16.474" height="16.474" stroke="#3E6957" stroke-width="0.433527"/>
<rect x="102.309" y="67.4587" width="16.474" height="16.474" stroke="#3E6957" stroke-width="0.433527"/>
<rect x="102.309" y="67.4587" width="16.474" height="16.474" stroke="#3E6957" stroke-width="0.433527"/>
<rect x="102.309" y="86.1004" width="16.474" height="16.474" fill="#3E6957"/>
<rect x="102.309" y="86.1004" width="16.474" height="16.474" stroke="#3E6957" stroke-width="0.433527"/>
<rect x="102.309" y="86.1004" width="16.474" height="16.474" stroke="#3E6957" stroke-width="0.433527"/>
<rect x="102.309" y="86.1004" width="16.474" height="16.474" stroke="#3E6957" stroke-width="0.433527"/>
<rect x="102.309" y="86.1004" width="16.474" height="16.474" stroke="#3E6957" stroke-width="0.433527"/>
<rect x="102.309" y="86.1004" width="16.474" height="16.474" stroke="#3E6957" stroke-width="0.433527"/>
<rect x="65.459" y="104.309" width="16.474" height="16.474" fill="#3E6957"/>
<rect x="65.459" y="104.309" width="16.474" height="16.474" stroke="#3E6957" stroke-width="0.433527"/>
<rect x="65.459" y="104.309" width="16.474" height="16.474" stroke="#3E6957" stroke-width="0.433527"/>
<rect x="65.459" y="104.309" width="16.474" height="16.474" stroke="#3E6957" stroke-width="0.433527"/>
<rect x="65.459" y="104.309" width="16.474" height="16.474" stroke="#3E6957" stroke-width="0.433527"/>
<rect x="65.459" y="104.309" width="16.474" height="16.474" stroke="#3E6957" stroke-width="0.433527"/>
<rect x="84.101" y="104.309" width="16.474" height="16.474" fill="#3E6957"/>
<rect x="84.101" y="104.309" width="16.474" height="16.474" stroke="#3E6957" stroke-width="0.433527"/>
<rect x="84.101" y="104.309" width="16.474" height="16.474" stroke="#3E6957" stroke-width="0.433527"/>
<rect x="84.101" y="104.309" width="16.474" height="16.474" stroke="#3E6957" stroke-width="0.433527"/>
<rect x="84.101" y="104.309" width="16.474" height="16.474" stroke="#3E6957" stroke-width="0.433527"/>
<rect x="84.101" y="104.309" width="16.474" height="16.474" stroke="#3E6957" stroke-width="0.433527"/>
<rect x="102.309" y="104.309" width="16.474" height="16.474" stroke="#3E6957" stroke-width="0.433527"/>
<rect x="102.309" y="104.309" width="16.474" height="16.474" stroke="#3E6957" stroke-width="0.433527"/>
<rect x="102.309" y="104.309" width="16.474" height="16.474" stroke="#3E6957" stroke-width="0.433527"/>
<rect x="102.309" y="104.309" width="16.474" height="16.474" stroke="#3E6957" stroke-width="0.433527"/>
<rect x="102.309" y="104.309" width="16.474" height="16.474" stroke="#3E6957" stroke-width="0.433527"/>
</svg>
