<svg width="130" height="130" viewBox="0 0 130 130" fill="none" xmlns="http://www.w3.org/2000/svg">
<path d="M60.706 63.7494C58.4963 69.5025 56.3178 75.1758 54.1382 80.8502C53.1946 83.3073 52.278 85.7749 51.2898 88.2144C50.9995 88.9299 51.1197 89.3151 51.7129 89.8194C54.4451 92.1461 55.4914 95.1438 54.7386 98.6344C53.992 102.092 51.8051 104.387 48.3937 105.329C44.7541 106.333 41.5688 105.342 39.1414 102.479C36.7098 99.6098 36.2733 96.2901 37.8877 92.8937C39.4773 89.5502 42.251 87.7288 45.9922 87.8116C47.3796 87.8417 47.8452 87.3591 48.289 86.1766C51.1768 78.4852 54.1444 70.8237 57.0861 63.153C57.1494 62.9873 57.2282 62.8278 57.3568 62.5369C58.4279 62.9252 59.5042 63.3145 60.707 63.7504L60.706 63.7494Z" fill="#3E6957"/>
<path d="M83.9908 56.2444C84.6368 55.1914 85.2102 54.2553 85.8469 53.2178C91.6992 57.0035 97.5194 60.7684 103.372 64.5541C104.945 63.1562 106.697 62.3019 108.748 62.0275C113.559 61.3845 118.102 65.0491 118.681 70.0908C119.227 74.8477 115.41 79.5083 110.682 79.8583C104.054 80.3491 99.3796 74.7007 101.178 68.3139C101.396 67.5373 101.027 67.3167 100.532 66.9968C95.29 63.6108 90.0557 60.2165 84.8193 56.8222C84.5538 56.6504 84.2998 56.4609 83.9897 56.2434L83.9908 56.2444Z" fill="#3E6957"/>
<path d="M45.6088 46.4405C45.9002 47.653 46.1553 48.7165 46.4342 49.8752C43.8419 50.5265 41.2943 51.1695 38.7455 51.8053C35.2916 52.6668 31.8387 53.5366 28.3775 54.3712C27.775 54.5161 27.5106 54.717 27.4681 55.4097C27.1622 60.4535 22.8103 64.1709 17.7367 63.7815C12.9244 63.4129 9.12824 58.9376 9.56789 54.1496C10.0324 49.0872 14.4372 45.374 19.4414 45.9093C22.4256 46.2282 24.74 47.7193 26.2694 50.3142C26.6189 50.9075 26.9133 51.068 27.6091 50.891C33.2665 49.4485 38.9374 48.0548 44.6041 46.6497C44.911 46.5741 45.2231 46.5202 45.6068 46.4405H45.6088Z" fill="#3E6957"/>
<path d="M50.8523 28.9783C50.1181 29.9361 49.4473 30.8111 48.6737 31.8207C46.1146 29.931 43.5535 28.0392 41.0151 26.165C35.9726 29.2569 31.5253 28.9576 28.3005 25.3531C25.4386 22.1535 25.2551 17.3407 27.866 13.9371C30.5299 10.4631 35.17 9.41209 39.0968 11.3929C43.2994 13.5126 44.7936 17.8025 43.1822 23.2863C45.6968 25.1533 48.2372 27.0389 50.8512 28.9783H50.8523Z" fill="#3E6957"/>
<path d="M93.5687 28.998C91.0418 30.5119 88.5999 31.974 86.0688 33.4899C85.4487 32.4845 84.8462 31.508 84.1826 30.4322C86.3332 29.144 88.4091 27.8424 90.5441 26.6475C91.4566 26.137 91.7821 25.6576 91.5903 24.5217C90.766 19.6436 93.9617 15.1538 98.7481 14.2633C103.538 13.3718 108.097 16.414 109.192 21.233C110.034 24.9369 108.29 28.8862 104.954 30.835C101.561 32.8168 97.2259 32.3592 94.3298 29.7146C94.0955 29.5002 93.8663 29.2797 93.5698 29.0001L93.5687 28.998Z" fill="#3E6957"/>
<path d="M55.0391 40.6315C55.0232 39.6184 55.3526 38.6301 55.9732 37.8293L62.3435 44.1996C61.5406 44.8163 60.5537 45.1452 59.5413 45.1337C58.3488 45.1288 57.2065 44.6529 56.3632 43.8096C55.52 42.9663 55.044 41.824 55.0391 40.6315Z" fill="#3E6957"/>
<path d="M73.9925 45.129C74.589 45.1315 75.18 45.0159 75.7316 44.789C76.2832 44.562 76.7843 44.2281 77.2063 43.8066C77.6283 43.385 77.9627 42.8842 78.1902 42.3328C78.4177 41.7815 78.5339 41.1906 78.5321 40.5941C78.5433 39.5818 78.2143 38.5951 77.598 37.7919L71.209 44.181C72.0032 44.8022 72.9842 45.1364 73.9925 45.129Z" fill="#3E6957"/>
<path d="M78.9199 36.4977C79.9021 37.651 80.4418 39.1162 80.4425 40.631C80.4412 42.3346 79.7636 43.9679 78.5586 45.1721C77.3535 46.3763 75.7197 47.0527 74.0161 47.0527C72.5092 47.0544 71.0502 46.5234 69.8968 45.5535L66.8051 48.6453L63.7133 45.5535C62.5592 46.5251 61.0981 47.0563 59.5894 47.0527C58.7439 47.0558 57.9061 46.892 57.1241 46.5707C56.342 46.2494 55.631 45.7769 55.0318 45.1804C54.4327 44.5838 53.9571 43.8749 53.6324 43.0942C53.3077 42.3136 53.1403 41.4765 53.1397 40.631C53.1409 39.1232 53.6715 37.6637 54.6389 36.5071L53.1957 35.0639L51.818 33.6628C50.1583 36.3916 49.2825 39.5248 49.2866 42.7186C49.286 45.0142 49.7378 47.2874 50.6162 49.4084C51.4945 51.5293 52.7822 53.4563 54.4057 55.0793C56.0291 56.7024 57.9565 57.9895 60.0776 58.8673C62.1988 59.7451 64.4721 60.1963 66.7677 60.195C71.4004 60.1938 75.8432 58.3542 79.1208 55.0802C82.3983 51.8062 84.2426 47.3653 84.2488 42.7326C84.2776 39.5393 83.4103 36.402 81.7455 33.6769L78.9199 36.4977Z" fill="#3E6957"/>
<path d="M79.4279 30.6647C77.7977 28.9508 75.8358 27.5866 73.6615 26.6552C71.4871 25.7238 69.146 25.2447 66.7806 25.2471C64.4147 25.246 62.0733 25.7256 59.8984 26.6569C57.7235 27.5882 55.7605 28.9517 54.1287 30.6647C53.7037 31.1318 53.288 31.5988 52.9004 32.0985L66.7666 45.9601L80.6328 32.0845C80.2667 31.5822 79.864 31.1077 79.4279 30.6647Z" fill="#3E6957"/>
<path d="M116 98.1866C118.19 99.4554 118.19 102.617 116 103.886L93.8298 116.734C91.6342 118.007 88.885 116.423 88.885 113.885L88.885 88.1873C88.885 85.6496 91.6342 84.0653 93.8298 85.3378L116 98.1866Z" fill="#3E6957"/>
</svg>
