<svg width="92" height="93" viewBox="0 0 92 93" fill="none" xmlns="http://www.w3.org/2000/svg">
<ellipse cx="46" cy="46.026" rx="46" ry="46.026" fill="#F0EBDE"/>
<g clip-path="url(#clip0_3385_418)">
<path d="M37.4365 44.5032C37.4239 43.7655 37.6634 43.0404 38.1173 42.454L42.7696 47.1074C42.1833 47.5551 41.4647 47.801 40.7208 47.7884C39.8509 47.7884 39.0188 47.4353 38.401 46.8236C37.7832 46.2057 37.4365 45.3734 37.4365 44.5032Z" fill="#1A1751"/>
<path d="M51.2735 47.7821C51.7085 47.7821 52.1434 47.7001 52.5406 47.5362C52.944 47.3722 53.3097 47.1263 53.6185 46.8174C53.9274 46.5084 54.1733 46.1427 54.3372 45.7391C54.5011 45.3356 54.5893 44.9068 54.5893 44.4718C54.5956 43.734 54.3561 43.0089 53.9085 42.4225L49.2437 47.0885C49.8236 47.5425 50.5423 47.7884 51.2735 47.7821Z" fill="#1A1751"/>
<path d="M54.8728 41.483C55.5914 42.3279 55.9823 43.3935 55.9823 44.5033C55.9823 45.7454 55.4843 46.9372 54.608 47.8199C53.7255 48.6964 52.5341 49.1945 51.2922 49.1945C50.189 49.1945 49.13 48.8099 48.2852 48.0974L46.0285 50.3547L43.7717 48.0974C42.9269 48.8099 41.8616 49.1945 40.7584 49.1945C40.1406 49.1945 39.5292 49.0747 38.9618 48.8414C38.3882 48.6081 37.8712 48.2613 37.4363 47.8262C37.0013 47.3912 36.6546 46.8741 36.415 46.3003C36.1755 45.7328 36.0557 45.1212 36.0557 44.5033C36.0557 43.3998 36.4466 42.3342 37.1526 41.4893L36.0998 40.4363L35.0912 39.4148C33.8809 41.4073 33.2379 43.6962 33.2442 46.0292C33.2442 47.7064 33.572 49.3648 34.215 50.9159C34.858 52.467 35.7973 53.8731 36.9824 55.0586C38.1675 56.244 39.5733 57.1835 41.124 57.8267C42.6748 58.4698 44.3327 58.7977 46.0095 58.7977C49.3884 58.7977 52.6349 57.4546 55.0304 55.0649C57.4259 52.6751 58.7686 49.4341 58.7749 46.0481C58.7938 43.7151 58.1634 41.4262 56.9468 39.4337L54.8854 41.4956L54.8728 41.483Z" fill="#1A1751"/>
<path d="M55.2449 37.2205C54.0535 35.972 52.6225 34.9757 51.0339 34.2948C49.4453 33.6138 47.737 33.267 46.0097 33.267C44.2825 33.267 42.5741 33.6138 40.9855 34.2948C39.397 34.9757 37.966 35.972 36.7745 37.2205C36.4657 37.561 36.1631 37.9015 35.8794 38.2672L46.0034 48.3874L56.1275 38.2546C55.8627 37.8888 55.5664 37.5421 55.2449 37.2205ZM46.0097 46.0229L38.1677 38.1789C39.1952 37.1448 40.4119 36.3188 41.7609 35.7639C43.1099 35.2027 44.5535 34.919 46.0097 34.9253C47.4659 34.919 48.9095 35.2027 50.2585 35.7576C51.6076 36.3188 52.8242 37.1385 53.8518 38.1789L46.0097 46.0229Z" fill="#1A1751"/>
<path d="M57.2871 60.7334C65.1291 49.5223 72.927 38.3869 80.8195 27.1128C81.4751 28.5567 82.1496 29.8683 82.6791 31.2365C86.7262 41.6783 86.5056 52.0382 82.0361 62.3097C81.847 62.7511 81.6264 62.9024 81.141 62.8583C75.6692 62.3602 70.1912 61.8809 64.7131 61.4017C62.3996 61.2 60.0797 60.9982 57.7662 60.7901C57.6401 60.7775 57.514 60.7649 57.2871 60.7334Z" fill="#1A1751"/>
<path d="M11.2057 64.8193C9.56667 61.7926 8.35633 58.7093 7.58725 55.4557C5.49437 46.6155 6.25713 38.0212 9.9386 29.698C10.1466 29.2251 10.3862 29.099 10.8842 29.1431C16.7972 29.6791 22.7166 30.1961 28.6296 30.7195C30.6153 30.896 32.601 31.06 34.7065 31.2428C26.8519 42.4602 19.0603 53.6019 11.2057 64.8193Z" fill="#1A1751"/>
<path d="M64.3915 43.5826C58.6172 31.1987 52.8806 18.8842 47.0811 6.4436C48.1779 6.51927 49.1676 6.53819 50.1447 6.65799C61.7187 8.03888 70.9791 13.4237 77.989 22.7305C78.4113 23.2917 78.405 23.6385 78.0079 24.1997C73.5637 30.4988 69.1509 36.8232 64.7256 43.1412C64.6374 43.2673 64.5428 43.3871 64.3978 43.5826H64.3915Z" fill="#1A1751"/>
<path d="M27.5833 48.4062C33.3576 60.7964 39.1068 73.1235 44.9252 85.6083C43.198 85.4317 41.6031 85.356 40.0334 85.0975C29.1908 83.332 20.5103 77.9913 13.9417 69.1952C13.5697 68.6971 13.5697 68.3755 13.9291 67.8648C18.3607 61.5783 22.7671 55.2728 27.1798 48.9674C27.2996 48.7971 27.4257 48.6269 27.5896 48.3999L27.5833 48.4062Z" fill="#1A1751"/>
<path d="M53.0887 28.8404C39.4724 27.6487 25.9631 26.4696 12.3594 25.2779C12.4602 25.0824 12.517 24.9311 12.6052 24.7987C18.72 15.4414 27.2302 9.55843 38.1675 7.22542C39.5165 6.93537 40.9033 6.82187 42.2713 6.61379C42.5991 6.56335 42.7882 6.65162 42.9395 6.97951C46.2679 14.1425 49.6027 21.2991 52.9375 28.4558C52.9753 28.5378 53.0068 28.6261 53.0887 28.8404Z" fill="#1A1751"/>
<path d="M38.8862 63.1483C52.5215 64.34 66.0307 65.5255 79.6471 66.7172C79.5084 66.9631 79.4139 67.1397 79.3067 67.3036C72.6561 77.3166 63.4272 83.3194 51.5255 85.1543C50.9582 85.2425 50.3782 85.2741 49.8109 85.375C49.3759 85.4506 49.1679 85.293 48.985 84.8957C46.6967 79.946 44.3832 75.0025 42.076 70.0528C41.1115 67.9783 40.147 65.9101 39.1825 63.8356C39.0943 63.6464 39.0186 63.4573 38.8862 63.1483Z" fill="#1A1751"/>
</g>
<defs>
<clipPath id="clip0_3385_418">
<rect width="79.12" height="79.1647" fill="white" transform="translate(6.43994 6.4436)"/>
</clipPath>
</defs>
</svg>