<svg width="130" height="130" viewBox="0 0 130 130" fill="none" xmlns="http://www.w3.org/2000/svg">
<rect width="130" height="130" fill="#F0EBDE"/>
<path d="M44.0318 63.5752C44.0007 61.5956 44.6444 59.6643 45.8571 58.0994L58.305 70.5477C56.736 71.7527 54.8076 72.3956 52.8294 72.373C50.4991 72.3634 48.267 71.4334 46.6192 69.7856C44.9714 68.1377 44.0415 65.9056 44.0318 63.5752Z" fill="#3E6957"/>
<path d="M81.6474 72.3734C82.8564 72.3782 84.0545 72.1533 85.1726 71.7118C86.2907 71.2702 87.3067 70.6207 88.1621 69.8006C89.0174 68.9805 89.6953 68.0061 90.1565 66.9335C90.6178 65.8609 90.8533 64.7113 90.8495 63.5509C90.8722 61.5815 90.2054 59.6618 88.9561 58.0994L76.0049 70.5289C77.6147 71.7376 79.6035 72.3876 81.6474 72.3734Z" fill="#3E6957"/>
<path d="M91.6509 55.2083C93.6077 57.5164 94.683 60.4487 94.6844 63.4803C94.6819 66.8898 93.3319 70.1587 90.931 72.5687C88.5301 74.9787 85.2749 76.3324 81.8808 76.3324C78.8785 76.3358 75.9716 75.2731 73.6738 73.332L67.5139 79.5197L61.3541 73.332C59.0546 75.2766 56.1436 76.3396 53.1378 76.3324C51.4533 76.3386 49.7841 76.0107 48.226 75.3677C46.6678 74.7247 45.2513 73.7792 44.0575 72.5853C42.8638 71.3913 41.9163 69.9725 41.2694 68.4101C40.6225 66.8477 40.2889 65.1725 40.2877 63.4803C40.2901 60.4627 41.3472 57.5417 43.2746 55.227L40.3993 52.3388L37.6544 49.5347C34.3478 54.9958 32.6028 61.2665 32.6111 67.6584C32.6099 72.2527 33.51 76.8022 35.26 81.0469C37.01 85.2916 39.5755 89.1483 42.81 92.3965C46.0444 95.6447 49.8845 98.2208 54.1105 99.9775C58.3366 101.734 62.8659 102.637 67.4395 102.635C76.6693 102.632 85.5211 98.9507 92.051 92.3982C98.581 85.8457 102.256 76.958 102.268 67.6865C102.325 61.2956 100.597 55.0166 97.2804 49.5627L91.6509 55.2083Z" fill="#3E6957"/>
<path d="M92.4405 43.7291C89.185 40.3273 85.2667 37.6197 80.9244 35.7712C76.5822 33.9226 71.9067 32.9718 67.1829 32.9766C62.458 32.9743 57.7819 33.9262 53.4385 35.7746C49.0951 37.623 45.1749 40.3292 41.9159 43.7291C41.0671 44.656 40.237 45.583 39.4629 46.5748L67.1549 74.0863L94.8469 46.547C94.1157 45.55 93.3115 44.6082 92.4405 43.7291Z" fill="#3E6957"/>
<rect x="40.0479" y="28.3206" width="55.2412" height="19.3344" fill="#F0EBDE"/>
<mask id="path-7-inside-1_219_546" fill="white">
<path d="M83.1287 21.7398C89.2177 25.5483 93.6439 30.6264 96.7015 36.9192C99.7638 43.2263 101 49.9008 100.561 56.9572H32.571C32.1298 50.6597 33.1095 44.5912 35.5717 38.7853C38.5889 31.6693 43.2832 25.9588 49.9771 21.7517C50.1834 23.539 50.3827 25.1975 50.5653 26.8608C51.1702 32.3303 51.7632 37.8021 52.3776 43.2716C52.5578 44.8848 53.9312 46.0421 55.4185 45.8989C57.0149 45.7438 58.1772 44.4361 58.0183 42.7633C57.6957 39.3294 57.2853 35.9002 56.9034 32.4711C56.346 27.4741 55.7696 22.4819 55.2264 17.4825C55.02 15.5735 56.2725 14.156 58.1725 14.1488C63.7657 14.1297 69.359 14.1297 74.9523 14.1488C76.8475 14.156 78.1023 15.5902 77.8936 17.4873C77.0444 25.1737 76.1739 32.86 75.3152 40.5464C75.2298 41.3148 75.1207 42.0832 75.0898 42.854C75.0234 44.4791 76.1359 45.7486 77.7062 45.8942C79.1603 46.0278 80.5266 44.911 80.7306 43.3456C80.9535 41.6346 81.1125 39.9164 81.3022 38.2006C81.9047 32.767 82.5096 27.3357 83.1334 21.7374L83.1287 21.7398Z"/>
</mask>
<path d="M83.1287 21.7398C89.2177 25.5483 93.6439 30.6264 96.7015 36.9192C99.7638 43.2263 101 49.9008 100.561 56.9572H32.571C32.1298 50.6597 33.1095 44.5912 35.5717 38.7853C38.5889 31.6693 43.2832 25.9588 49.9771 21.7517C50.1834 23.539 50.3827 25.1975 50.5653 26.8608C51.1702 32.3303 51.7632 37.8021 52.3776 43.2716C52.5578 44.8848 53.9312 46.0421 55.4185 45.8989C57.0149 45.7438 58.1772 44.4361 58.0183 42.7633C57.6957 39.3294 57.2853 35.9002 56.9034 32.4711C56.346 27.4741 55.7696 22.4819 55.2264 17.4825C55.02 15.5735 56.2725 14.156 58.1725 14.1488C63.7657 14.1297 69.359 14.1297 74.9523 14.1488C76.8475 14.156 78.1023 15.5902 77.8936 17.4873C77.0444 25.1737 76.1739 32.86 75.3152 40.5464C75.2298 41.3148 75.1207 42.0832 75.0898 42.854C75.0234 44.4791 76.1359 45.7486 77.7062 45.8942C79.1603 46.0278 80.5266 44.911 80.7306 43.3456C80.9535 41.6346 81.1125 39.9164 81.3022 38.2006C81.9047 32.767 82.5096 27.3357 83.1334 21.7374L83.1287 21.7398Z" fill="#3E6957"/>
<path d="M83.1287 21.7398L82.4753 20.4406L80.166 21.6019L82.3575 22.9727L83.1287 21.7398ZM96.7015 36.9192L98.0097 36.284L98.0095 36.2836L96.7015 36.9192ZM100.561 56.9572V58.4114H101.927L102.012 57.0475L100.561 56.9572ZM32.571 56.9572L31.1204 57.0588L31.2151 58.4114H32.571V56.9572ZM35.5717 38.7853L36.9105 39.3531L36.9105 39.353L35.5717 38.7853ZM49.9771 21.7517L51.4217 21.5849L51.157 19.2925L49.2032 20.5204L49.9771 21.7517ZM50.5653 26.8608L49.1198 27.0196L49.1199 27.0207L50.5653 26.8608ZM52.3776 43.2716L53.8228 43.1101L53.8227 43.1093L52.3776 43.2716ZM55.4185 45.8989L55.5579 47.3465L55.5592 47.3464L55.4185 45.8989ZM58.0183 42.7633L56.5704 42.8993L56.5706 42.9009L58.0183 42.7633ZM56.9034 32.4711L58.3487 32.3101L58.3487 32.3098L56.9034 32.4711ZM55.2264 17.4825L53.7806 17.6388L53.7807 17.6396L55.2264 17.4825ZM58.1725 14.1488L58.1675 12.6946L58.167 12.6946L58.1725 14.1488ZM74.9523 14.1488L74.9578 12.6946L74.9572 12.6946L74.9523 14.1488ZM77.8936 17.4873L79.339 17.647L79.3391 17.6464L77.8936 17.4873ZM75.3152 40.5464L73.87 40.385L73.8699 40.3858L75.3152 40.5464ZM75.0898 42.854L76.5429 42.9134L76.5429 42.9121L75.0898 42.854ZM77.7062 45.8942L77.572 47.3422L77.5731 47.3423L77.7062 45.8942ZM80.7306 43.3456L79.2885 43.1577V43.1577L80.7306 43.3456ZM81.3022 38.2006L79.8568 38.0404L79.8568 38.0408L81.3022 38.2006ZM83.1334 21.7374L84.5787 21.8984L84.8757 19.2334L82.4801 20.4382L83.1334 21.7374ZM82.3575 22.9727C88.2055 26.6305 92.4502 31.4972 95.3935 37.5547L98.0095 36.2836C94.8377 29.7557 90.2299 24.4662 83.8999 20.5068L82.3575 22.9727ZM95.3933 37.5544C98.3406 43.6245 99.5335 50.0476 99.1094 56.8669L102.012 57.0475C102.466 49.7541 101.187 42.8281 98.0097 36.284L95.3933 37.5544ZM100.561 55.503H32.571V58.4114H100.561V55.503ZM34.0217 56.8556C33.5961 50.7812 34.54 44.9427 36.9105 39.3531L34.2328 38.2175C31.6789 44.2398 30.6635 50.5381 31.1204 57.0588L34.0217 56.8556ZM36.9105 39.353C39.8172 32.4978 44.3204 27.0245 50.7509 22.9829L49.2032 20.5204C42.2459 24.8931 37.3606 30.8408 34.2328 38.2176L36.9105 39.353ZM48.5324 21.9185C48.7398 23.7149 48.9377 25.3614 49.1198 27.0196L52.0109 26.7021C51.8277 25.0337 51.627 23.3632 51.4217 21.5849L48.5324 21.9185ZM49.1199 27.0207C49.7243 32.4854 50.3179 37.9633 50.9324 43.4339L53.8227 43.1093C53.2085 37.641 52.6161 32.1751 52.0107 26.701L49.1199 27.0207ZM50.9323 43.4331C51.1926 45.7618 53.2077 47.5727 55.5579 47.3465L55.2792 44.4514C54.6548 44.5115 53.9231 44.0077 53.8228 43.1101L50.9323 43.4331ZM55.5592 47.3464C57.9182 47.1171 59.7041 45.132 59.466 42.6258L56.5706 42.9009C56.6503 43.7402 56.1116 44.3705 55.2779 44.4515L55.5592 47.3464ZM59.4661 42.6273C59.142 39.1767 58.7288 35.7235 58.3487 32.3101L55.4581 32.632C55.8418 36.077 56.2494 39.482 56.5704 42.8993L59.4661 42.6273ZM58.3487 32.3098C57.7903 27.3045 57.2151 22.323 56.6721 17.3255L53.7807 17.6396C54.324 22.6408 54.9017 27.6437 55.4581 32.6323L58.3487 32.3098ZM56.6722 17.3263C56.6078 16.7309 56.7753 16.3189 56.9992 16.0654C57.2219 15.8135 57.5996 15.6052 58.1779 15.6031L58.167 12.6946C56.8453 12.6996 55.6468 13.2037 54.8198 14.1395C53.9942 15.0738 53.6386 16.3252 53.7806 17.6388L56.6722 17.3263ZM58.1774 15.6031C63.7674 15.584 69.3573 15.584 74.9473 15.6031L74.9572 12.6946C69.3607 12.6755 63.7641 12.6755 58.1675 12.6946L58.1774 15.6031ZM74.9468 15.6031C75.5165 15.6052 75.8944 15.8132 76.1198 16.0696C76.347 16.328 76.5125 16.7426 76.4481 17.3283L79.3391 17.6464C79.4834 16.3349 79.1259 15.0838 78.3041 14.1491C77.4804 13.2123 76.2833 12.6996 74.9578 12.6946L74.9468 15.6031ZM76.4482 17.3276C75.5991 25.0131 74.729 32.6953 73.87 40.385L76.7604 40.7079C77.6187 33.0248 78.4897 25.3342 79.339 17.647L76.4482 17.3276ZM73.8699 40.3858C73.791 41.095 73.6703 41.9567 73.6368 42.7959L76.5429 42.9121C76.571 42.2097 76.6686 41.5346 76.7605 40.707L73.8699 40.3858ZM73.6368 42.7946C73.5394 45.1783 75.2164 47.1238 77.572 47.3422L77.8404 44.4461C77.0554 44.3734 76.5075 43.7798 76.5429 42.9134L73.6368 42.7946ZM77.5731 47.3423C79.8608 47.5525 81.8749 45.8179 82.1726 43.5335L79.2885 43.1577C79.1782 44.0042 78.4597 44.5031 77.8393 44.446L77.5731 47.3423ZM82.1726 43.5335C82.3978 41.8055 82.5619 40.0401 82.7476 38.3605L79.8568 38.0408C79.663 39.7927 79.5093 41.4637 79.2885 43.1577L82.1726 43.5335ZM82.7476 38.3609C83.35 32.9277 83.9549 27.4967 84.5787 21.8984L81.6882 21.5763C81.0643 27.1747 80.4594 32.6063 79.8568 38.0404L82.7476 38.3609ZM82.4801 20.4382L82.4753 20.4406L83.7821 23.0389L83.7868 23.0365L82.4801 20.4382Z" fill="#F0EBDE" mask="url(#path-7-inside-1_219_546)"/>
<path d="M68.131 62.3897V62.392H68.1717H68.2308H68.2898H68.3489H68.408H68.467H68.5261H68.5852H68.6442H68.7033H68.7623H68.8214H68.8805H68.9395H68.9986H69.0577H69.1167H69.1758H69.2348H69.2939H69.353H69.412H69.4711H69.5302H69.5892H69.6483H69.7073H69.7664H69.8255H69.8845H69.9436H70.0027H70.0617H70.1208H70.1798H70.2389H70.298H70.357H70.4161H70.4752H70.5342H70.5933H70.6523H70.7114H70.7705H70.8295H70.8886H70.9476H71.0067H71.0658H71.1248H71.1839H71.2429H71.302H71.3611H71.4201H71.4792H71.5382H71.5973H71.6564H71.7154H71.7745H71.8336H71.8926H71.9517H72.0107H72.0698H72.1289H72.1879H72.247H72.306H72.3651H72.4242H72.4832H72.5423H72.6013H72.6604H72.7195H72.7785H72.8376H72.8966H72.9557H73.0148H73.0738H73.1329H73.1919H73.251H73.3101H73.3691H73.4282H73.4872H73.5463H73.6054H73.6644H73.7235H73.7825H73.8416H73.9007H73.9597H74.0188H74.0778H74.1369H74.1959H74.255H74.3141H74.3731H74.4322H74.4912H74.5503H74.6094H74.6684H74.7275H74.7865H74.8456H74.9047H74.9637H75.0228H75.0818H75.1409H75.2H75.259H75.3181H75.3771H75.4362H75.4952H75.5543H75.6134H75.6724H75.7315H75.7905H75.8496H75.9087H75.9677H76.0268H76.0858H76.1449H76.2039H76.263H76.3221H76.3811H76.4402H76.4992H76.5583H76.6174H76.6764H76.7355H76.7945H76.8536H76.9126H76.9717H77.0308H77.0898H77.1489H77.2079H77.267H77.326H77.3851H77.4442H77.5032H77.5623H77.6213H77.6804H77.7395H77.7985H77.8576H77.9166H77.9757H78.0347H78.0938H78.1529H78.2119H78.271H78.33H78.3891H78.4481H78.5072H78.5663H78.6253H78.6844H78.7434H78.8025H78.8615H78.9206H78.9797H79.0387H79.0978H79.1568H79.2159H79.2749H79.334H79.3931H79.4521H79.5112H79.5702H79.6293H79.6883H79.7474H79.8065H79.8655H79.9246H79.9836H80.0427H80.1017H80.1608H80.2199H80.2789H80.338H80.397H80.4561H80.5151H80.5742H80.6333H80.6923H80.7514H80.8104H80.8695H80.9286H80.9876H81.0467H81.1057H81.1648H81.2238H81.2829H81.3419H81.401H81.4601H81.5191H81.5782H81.6372H81.6963H81.7553H81.8144H81.8735H81.9325H81.9916H82.0506H82.1097H82.1687H82.2278H82.2869H82.3459H82.405H82.464H82.5231H82.5821H82.6412H82.7003H82.7593H82.8184H82.8774H82.9365H82.9955H83.0546H83.1137H83.1727H83.2318H83.2908H83.3499H83.4089H83.468H83.5271H83.5861H83.6452H83.7042H83.7633H83.8223H83.8814H83.9405H83.9995H84.0586H84.1176H84.1767H84.2357H84.2948H84.3539H84.4129H84.472H84.531H84.5901H84.6491H84.7082H84.7673H84.8263H84.8854H84.9444H85.0035H85.0625H85.1216H85.1807H85.2397H85.2988H85.3578H85.4169H85.4759H85.535H85.5941H85.6531H85.7122H85.7712H85.8303H85.8893H85.9484H86.0075H86.0665H86.1256H86.1846H86.2437H86.3027H86.3618H86.4209H86.4799H86.539H86.598H86.6571H86.7162H86.7752H86.8343H86.8933H86.9524H87.0114H87.0705H87.1296H87.1886H87.2477H87.3067H87.3658H87.4248H87.4839H87.543H87.602H87.6611H87.7201H87.7792H87.8382H87.8973H87.9564H88.0154H88.0745H88.1335H88.1926H88.2517H88.3107H88.3698H88.4288H88.4879H88.5469H88.606H88.6651H88.7241H88.7832H88.8422H88.9013H88.9604H89.0194H89.0785H89.1375H89.1966H89.2556H89.3147H89.3738H89.4328H89.4919H89.5509H89.61H89.6691H89.7281H89.7872H89.8462H89.9053H89.9643H90.0234H90.0825H90.1415H90.2006H90.2596H90.3187H90.3778H90.4368H90.4959H90.5549H90.614H90.6731H90.7321H90.7912H90.8502H90.9093H90.9684H91.0274H91.0865H91.1455H91.2046H91.2636H91.3227H91.3818H91.4408H91.4999H91.5589H91.618H91.6771H91.7361H91.7952H91.8542H91.9133H91.9724H92.0314H92.0905H92.1495H92.2086H92.2677H92.3267H92.3858H92.4448H92.5039H92.563H92.622H92.6811H92.7401H92.7992H92.8583H92.9173H92.9764H93.0354H93.0945H93.1536H93.2126H93.2717H93.3307H93.3898H93.4489H93.5079H93.567H93.6261H93.6851H93.7442H93.8032H93.8623H93.9214H93.9804H94.0395H94.0985H94.1576H94.2167H94.2757H94.3348H94.3938H94.4529H94.512H94.571H94.6301H94.6892H94.7482H94.8073H94.8663H94.9254H94.9845H95.0435H95.1026H95.1617H95.2207H95.2798H95.3388H95.3979H95.457H95.516H95.5751H95.6341H95.6932H95.7523H95.8113H95.8704H95.9295H95.9885H96.0476H96.1066H96.1657H96.2248H96.2838H96.3429H96.402H96.461H96.5201H96.5791H96.6382H96.6973H96.7563H96.8154H96.8745H96.9335H96.9926H97.0517H97.1107H97.1698H97.2289H97.2879H97.347H97.406H97.4651H97.5242H97.5832H97.6423C98.2609 62.392 98.877 62.3942 99.4916 62.3963C100.898 62.4013 102.296 62.4062 103.697 62.385C105.835 62.351 107.41 60.6628 107.299 58.6865L107.299 58.6863C107.194 56.8113 105.651 55.4045 103.283 55.4045H103.143H103.003H102.863H102.723H102.583H102.443H102.303H102.163H102.024H101.884H101.744H101.604H101.464H101.324H101.184H101.044H100.905H100.765H100.625H100.485H100.345H100.205H100.065H99.9255H99.7856H99.6457H99.5059H99.366H99.2261H99.0862H98.9464H98.8065H98.6666H98.5267H98.3869H98.247H98.1071H97.9672H97.8274H97.6875H97.5476H97.4077H97.2679H97.128H96.9881H96.8482H96.7084H96.5685H96.4286H96.2887H96.1489H96.009H95.8691H95.7292H95.5894H95.4495H95.3096H95.1697H95.0299H94.89H94.7501H94.6102H94.4704H94.3305H94.1906H94.0508H93.9109H93.771H93.6311H93.4913H93.3514H93.2115H93.0716H92.9318H92.7919H92.652H92.5121H92.3723H92.2324H92.0925H91.9527H91.8128H91.6729H91.533H91.3932H91.2533H91.1134H90.9735H90.8337H90.6938H90.5539H90.4141H90.2742H90.1343H89.9944H89.8546H89.7147H89.5748H89.4349H89.2951H89.1552H89.0153H88.8755H88.7356H88.5957H88.4558H88.316H88.1761H88.0362H87.8964H87.7565H87.6166H87.4767H87.3369H87.197H87.0571H86.9172H86.7774H86.6375H86.4976H86.3578H86.2179H86.078H85.9381H85.7983H85.6584H85.5185H85.3787H85.2388H85.0989H84.959H84.8192H84.6793H84.5394H84.3996H84.2597H84.1198H83.9799H83.8401H83.7002H83.5603H83.4205H83.2806H83.1407H83.0009H82.861H82.7211H82.5812H82.4414H82.3015H82.1616H82.0218H81.8819H81.742H81.6021H81.4623H81.3224H81.1825H81.0427H80.9028H80.7629H80.623H80.4832H80.3433H80.2034H80.0636H79.9237H79.7838H79.644H79.5041H79.3642H79.2243H79.0845H78.9446H78.8047H78.6649H78.525H78.3851H78.2452H78.1054H77.9655H77.8256H77.6858H77.5459H77.406H77.2662H77.1263H76.9864H76.8465H76.7067H76.5668H76.4269H76.2871H76.1472H76.0073H75.8675H75.7276H75.5877H75.4478H75.308H75.1681H75.0282H74.8884H74.7485H74.6086H74.4688H74.3289H74.189H74.0491H73.9093H73.7694H73.6295H73.4897H73.3498H73.2099H73.0701H72.9302H72.7903H72.6504H72.5106H72.3707H72.2308H72.091H71.9511H71.8112H71.6714H71.5315H71.3916H71.2517H71.1119H70.972H70.8321H70.6923H70.5524H70.4125H70.2727H70.1328H69.9929H69.8531H69.7132H69.5733H69.4334H69.2936H69.1537H69.0138H68.874H68.7341H68.5942H68.4544H68.3145H68.1746H68.0347H67.8949H67.755H67.6151H67.4753H67.3354H67.1955H67.0557H66.9158H66.7759H66.636H66.4962H66.3563H66.2164H66.0766H65.9367H65.7968H65.657H65.5171H65.3772H65.2374H65.0975H64.9576H64.8177H64.6779H64.538H64.3981H64.2583H64.1184H63.9785H63.8387H63.6988H63.5589H63.419H63.2792H63.1393H62.9994H62.8596H62.7197H62.5798H62.44H62.3001H62.1602H62.0203H61.8805H61.7406H61.6007H61.4609H61.321H61.1811H61.0413H60.9014H60.7615H60.6217H60.4818H60.3419H60.202H60.0622H59.9223H59.7824H59.6426H59.5027H59.3628H59.2229H59.0831H58.9432H58.8033H58.6635H58.5236H58.3837H58.2439H58.104H57.9641H57.8242H57.6844H57.5445H57.4046H57.2648H57.1249H56.985H56.8452H56.7053H56.5654H56.4255H56.2857H56.1458H56.0059H55.8661H55.7262H55.5863H55.4465H55.3066H55.1667H55.0268H54.887H54.7471H54.6072H54.4674H54.3275H54.1876H54.0477H53.9079H53.768H53.6281H53.4883H53.3484H53.2085H53.0687H52.9288H52.7889H52.649H52.5092H52.3693H52.2294H52.0896H51.9497H51.8098H51.6699H51.5301H51.3902H51.2503H51.1105H50.9706H50.8307H50.6908H50.551H50.4111H50.2712H50.1314H49.9915H49.8516H49.7117H49.5719H49.432H49.2921H49.1523H49.0124H48.8725H48.7326H48.5928H48.4529H48.313H48.1732H48.0333H47.8934H47.7535H47.6137H47.4738H47.3339H47.1941H47.0542H46.9143H46.7744H46.6346H46.4947H46.3548H46.215H46.0751H45.9352H45.7953H45.6555H45.5156H45.3757H45.2358H45.096H44.9561H44.8162H44.6764H44.5365H44.3966H44.2567H44.1169H43.977H43.8371H43.6972H43.5574H43.4175H43.2776H43.1378H42.9979H42.858H42.7181H42.5783H42.4384H42.2985H42.1586H42.0188H41.8789H41.739H41.5992H41.4593H41.3194H41.1795H41.0397H40.8998H40.7599H40.62H40.4802H40.3403H40.2004H40.0605H39.9207H39.7808H39.6409H39.501H39.3612H39.2213H39.0814H38.9415H38.8017H38.6618H38.5219H38.3821H38.2422H38.1023H37.9624H37.8226H37.6827H37.5428H37.4029H37.2631H37.1232H36.9833H36.8434H36.7036H36.5637H36.4238H36.2839H36.1441H36.0042H35.8643H35.7244H35.5846H35.4447H35.3048H35.1649H35.0251H34.8852H34.7453H34.6054H34.4656H34.3257H34.1858H34.0459H33.906H33.7662H33.6263H33.4864H33.3465H33.2067H33.0668H32.9269H32.787H32.6472H32.5073H32.3674H32.2275H32.0877H31.9478H31.8079H31.668C31.6 55.4045 31.5366 55.4041 31.4765 55.4037C31.2979 55.4026 31.1489 55.4016 30.9944 55.4122L30.9914 55.4124C29.0981 55.5346 27.6252 57.0881 27.6212 58.8845C27.6212 58.8845 27.6212 58.8845 27.6212 58.8846L68.131 62.3897ZM68.131 62.3897H67.4039M68.131 62.3897H67.4039M67.4039 62.3897C64.4081 62.3897 61.4121 62.3898 58.4161 62.3899M67.4039 62.3897L58.4161 62.3899M58.4161 62.3899C49.4315 62.3904 40.4464 62.3908 31.4626 62.3873L58.4161 62.3899Z" fill="#3E6957" stroke="#F0EBDE" stroke-width="1.45423"/>
<path d="M66.5223 112.974L66.9583 113.563H67.6918H67.6925H68.3909L68.8275 113.018C68.8363 113.007 68.8294 113.016 68.8576 112.982L68.8581 112.981C68.8765 112.959 68.9263 112.899 68.979 112.819C70.2008 110.978 70.8042 108.911 70.4455 106.631L70.4455 106.631C69.9778 103.659 67.5524 101.33 64.5307 100.676C62.8419 100.311 61.2018 100.408 59.6258 100.853C59.1456 100.418 58.6639 99.9838 58.1837 99.5512C57.8819 99.2793 57.5807 99.0079 57.2808 98.7372L57.2807 98.7371C54.6202 96.3362 51.96 93.9354 49.2998 91.5342C48.6456 90.9436 47.9913 90.353 47.337 89.7624C44.4005 87.1114 41.4633 84.46 38.5238 81.8106C38.8994 80.6524 39.0354 79.4282 38.835 78.1538C38.5002 76.0241 37.3671 74.2691 35.4078 73.0723L35.4077 73.0721C33.5736 71.9522 31.5604 71.682 29.5457 71.927L29.5452 71.9271C29.3386 71.9523 29.1033 71.9933 28.9155 72.0261C28.8443 72.0385 28.7798 72.0497 28.7264 72.0584L26.461 72.4284L27.7632 74.3186C27.7768 74.3384 27.7865 74.3528 27.7974 74.3687C27.8023 74.376 27.8075 74.3836 27.8134 74.3923C27.8298 74.4163 27.8538 74.4514 27.8823 74.4902L27.8823 74.4902L27.8846 74.4933C28.1197 74.8121 28.355 75.1312 28.5905 75.4505C29.2859 76.3938 29.9828 77.339 30.6818 78.2819L30.6819 78.282C30.8319 78.4843 30.821 78.6091 30.8106 78.6578C30.7988 78.7126 30.7443 78.8607 30.4836 79.0183L30.4833 79.0184C30.2377 79.167 29.9878 79.3173 29.7362 79.4687C29.2769 79.7449 28.8116 80.0247 28.3545 80.3048L28.3544 80.3049C27.8617 80.6068 27.3935 80.4752 27.136 80.1266L26.0126 80.9564L27.136 80.1266C26.7591 79.6164 26.3821 79.1058 26.005 78.5951C25.5018 77.9136 24.9984 77.232 24.4952 76.551L24.4952 76.551L24.4924 76.5472C24.4526 76.4937 24.4019 76.4295 24.3706 76.3899C24.3619 76.3788 24.3547 76.3697 24.3496 76.3633L23.2926 75.0111L22.137 76.2707C22.1352 76.2726 22.1304 76.2775 22.1203 76.288C22.11 76.2987 22.0848 76.325 22.0558 76.3586C22.0258 76.3933 21.9861 76.4421 21.9443 76.5035C20.6979 78.3336 20.0605 80.4018 20.3992 82.6949L20.3992 82.695C20.8424 85.6934 23.1857 88.0069 26.2198 88.7155L26.2201 88.7156C27.9279 89.1141 29.5884 89.0205 31.1794 88.5806C32.1753 89.4815 33.1729 90.3811 34.1695 91.2799C34.5414 91.6153 34.9132 91.9506 35.2847 92.2857C35.2848 92.2857 35.2848 92.2858 35.2848 92.2858L35.2896 92.2901C37.9157 94.6595 40.5416 97.0288 43.1668 99.3987C43.8722 100.035 44.5776 100.672 45.283 101.309C47.6271 103.426 49.9714 105.543 52.3173 107.658C51.9612 108.776 51.8289 109.957 52.0112 111.185C52.3532 113.49 53.6083 115.342 55.7822 116.538L55.7824 116.538C57.5076 117.487 59.3656 117.71 61.2073 117.504L61.2073 117.504C61.4529 117.476 61.7288 117.429 61.9578 117.39C62.0473 117.375 62.1296 117.361 62.2001 117.35L64.5458 116.98L63.1498 115.059C63.1326 115.035 63.1143 115.01 63.0957 114.984C63.0608 114.935 63.025 114.886 62.9948 114.845C62.7158 114.467 62.437 114.09 62.1584 113.713C61.5149 112.842 60.8726 111.973 60.2321 111.102L60.232 111.102C60.1265 110.958 60.1247 110.85 60.14 110.78C60.1564 110.705 60.2173 110.572 60.4194 110.449C61.155 110.001 61.8935 109.555 62.634 109.111C63.0929 108.835 63.5646 108.969 63.7995 109.287L63.7996 109.287C64.1535 109.766 64.5064 110.244 64.8598 110.723C65.0364 110.962 65.2131 111.202 65.3902 111.442L65.3905 111.442C65.6266 111.762 65.8633 112.082 66.1037 112.407C66.2418 112.594 66.3812 112.783 66.5223 112.974ZM38.2195 82.6185C38.2177 82.6228 38.2163 82.6261 38.2153 82.6283L38.215 82.629C38.2165 82.6255 38.218 82.622 38.2195 82.6185ZM31.8361 88.3784C31.8347 88.3789 31.8329 88.3795 31.8306 88.3803C31.8329 88.3795 31.8352 88.3787 31.8375 88.3779L31.8361 88.3784ZM52.9179 108.2C52.9167 108.198 52.9152 108.197 52.9135 108.196C52.915 108.197 52.9165 108.198 52.9179 108.2Z" fill="#3E6957" stroke="#F0EBDE" stroke-width="2.90846"/>
</svg>
