<svg width="53" height="53" viewBox="0 0 53 53" fill="none" xmlns="http://www.w3.org/2000/svg">
<rect width="53" height="53" rx="26.5" fill="white"/>
<path d="M42.948 26.906C42.948 36.8122 36.2345 43.8621 26.32 43.8621C16.8143 43.8621 9.1377 36.1051 9.1377 26.5C9.1377 16.8949 16.8143 9.13793 26.32 9.13793C30.9481 9.13793 34.8419 10.8531 37.8418 13.6815L33.1652 18.225C27.0475 12.2603 15.6711 16.7408 15.6711 26.5C15.6711 32.5557 20.4586 37.4633 26.32 37.4633C33.1236 37.4633 35.6733 32.5347 36.0751 29.9794H26.32V24.0077H42.6778C42.8372 24.8968 42.948 25.7509 42.948 26.906Z" fill="#325B4B"/>
</svg>
