<svg width="45" height="45" viewBox="0 0 45 45" fill="none" xmlns="http://www.w3.org/2000/svg">
<rect x="0.5" y="0.5" width="44" height="44" rx="9.5" stroke="white"/>
<path d="M32 15.4167C32 14.6331 31.3616 14 30.5714 14C29.7812 14 29.1429 14.6331 29.1429 15.4167V29.5833C29.1429 30.3669 29.7812 31 30.5714 31C31.3616 31 32 30.3669 32 29.5833V15.4167ZM25.8661 23.5005C26.4241 22.9471 26.4241 22.0484 25.8661 21.4951L20.1518 15.8284C19.5938 15.275 18.6875 15.275 18.1295 15.8284C17.5714 16.3818 17.5714 17.2805 18.1295 17.8339L21.4062 21.0833H13.4286C12.6384 21.0833 12 21.7164 12 22.5C12 23.2836 12.6384 23.9167 13.4286 23.9167H21.4062L18.1295 27.1661C17.5714 27.7195 17.5714 28.6182 18.1295 29.1716C18.6875 29.725 19.5938 29.725 20.1518 29.1716L25.8661 23.5049V23.5005Z" fill="white"/>
</svg>
