<svg id="copy" width="21" height="24" viewBox="0 0 21 24" fill="#F0EBDE" xmlns="http://www.w3.org/2000/svg">
<path d="M18 17.25H10.5C9.25781 17.25 8.25 16.2422 8.25 15V3C8.25 1.75781 9.25781 0.75 10.5 0.75H15.5672C15.9656 0.75 16.3453 0.909375 16.6266 1.19062L19.8094 4.37344C20.0906 4.65469 20.25 5.03438 20.25 5.43281V15C20.25 16.2422 19.2422 17.25 18 17.25ZM10.5 18H18C19.6547 18 21 16.6547 21 15V5.43281C21 4.8375 20.7609 4.26562 20.3391 3.84375L17.1609 0.660938C16.7391 0.239063 16.1672 0 15.5719 0H10.5C8.84531 0 7.5 1.34531 7.5 3V15C7.5 16.6547 8.84531 18 10.5 18ZM3 6C1.34531 6 0 7.34531 0 9V21C0 22.6547 1.34531 24 3 24H10.5C12.1547 24 13.5 22.6547 13.5 21V19.5H12.75V21C12.75 22.2422 11.7422 23.25 10.5 23.25H3C1.75781 23.25 0.75 22.2422 0.75 21V9C0.75 7.75781 1.75781 6.75 3 6.75H6V6H3Z"/>
</svg>
