<svg width="187" height="35" viewBox="0 0 187 35" fill="none" xmlns="http://www.w3.org/2000/svg">
<path d="M5.77478 15.377C5.77478 14.3181 6.12413 13.3552 6.72811 12.5917L13.1217 18.9673C12.343 19.5698 11.3764 19.9183 10.3283 19.9183C7.80283 19.9169 5.76145 17.8818 5.77478 15.377ZM24.7926 19.9036C27.3047 19.9169 29.3461 17.8803 29.3461 15.3623C29.3461 14.3181 28.9967 13.3537 28.3928 12.5769L21.9992 18.9525C22.7645 19.555 23.7312 19.9036 24.7926 19.9036ZM29.7354 11.264C30.6754 12.3893 31.2395 13.8086 31.2395 15.3888C31.2395 18.9377 28.3513 21.8176 24.7926 21.8176C23.222 21.8176 21.7846 21.2549 20.6566 20.3171L17.5538 23.4111L14.451 20.3171C13.323 21.2549 11.8989 21.8176 10.315 21.8176C6.75624 21.8176 3.86811 18.9377 3.86811 15.3888C3.86811 13.8219 4.43212 12.3879 5.37213 11.264L3.9214 9.81814L2.53877 8.43875C0.926688 11.0897 0 14.1837 0 17.5066C0 27.1771 7.85612 35 17.5405 35C27.2233 35 35.0809 27.1638 35.0809 17.5066C35.1076 14.1719 34.1809 11.0779 32.5688 8.43875L29.7354 11.264ZM17.5405 20.7336L3.62533 6.85704C4.01466 6.36082 4.43063 5.87936 4.86141 5.42449C8.05745 2.08975 12.5577 0 17.5538 0C22.5499 0 27.062 2.08975 30.2461 5.42449C30.6888 5.86607 31.1062 6.36229 31.4556 6.84375L17.5405 20.7336ZM6.76808 6.73741L17.5523 17.4934L28.3365 6.73741C25.4765 3.85755 21.6617 2.27731 17.5523 2.27731C13.4429 2.27731 9.64288 3.85755 6.76808 6.73741ZM38.9683 17.5126V17.5524C38.9683 27.1874 46.8037 34.997 56.4688 34.997H63.8645V30.472H56.5872C49.3247 30.472 43.4552 24.5261 43.6106 17.2511C43.7631 10.1785 49.7273 4.59745 56.8255 4.59745H63.8645V0.116672H56.4199C46.7829 0.116672 38.9683 7.90561 38.9683 17.5126ZM131.973 0.116672H150.766V34.9985H131.973V0.116672ZM135.299 10.6245C135.299 13.9696 138.017 16.6811 141.37 16.6811C144.723 16.6811 147.441 13.9696 147.441 10.6245C147.441 7.27942 144.723 4.56791 141.37 4.56791C138.017 4.56791 135.299 7.27942 135.299 10.6245ZM89.3573 11.8104C89.3573 12.7748 89.0153 13.5885 88.3329 14.2517C87.649 14.9162 86.8407 15.2485 85.9081 15.2485H75.5103C74.5436 15.2485 73.7265 14.9177 73.0603 14.2517C72.3927 13.5871 72.0611 12.7733 72.0611 11.8104V0.116672H67.5624V34.9985H72.0611V23.0729C72.0611 22.11 72.3942 21.2963 73.0603 20.6317C73.7265 19.9671 74.5436 19.6348 75.5103 19.6348H85.9081C86.8407 19.6348 87.649 19.9671 88.3329 20.6317C89.0153 21.2963 89.3573 22.11 89.3573 23.0729V34.9985H93.8072V0.116672H89.3573V11.8104ZM170.774 0.116672H154.462V34.9985H158.961V16.3517C158.961 9.86096 164.24 4.59893 170.75 4.59893C177.262 4.59893 182.54 9.86096 182.54 16.3517V34.9985H187V16.2927C187.001 7.35917 179.736 0.116672 170.774 0.116672ZM115.504 1.9716L130.34 34.9985H95.477L110.461 1.9716C111.055 0.657201 111.895 0 112.982 0C114.07 0 114.911 0.657201 115.504 1.9716ZM112.982 17.1566C109.629 17.1566 106.911 19.8681 106.911 23.2132C106.911 26.5583 109.629 29.2698 112.982 29.2698C116.335 29.2698 119.053 26.5583 119.053 23.2132C119.053 19.8681 116.335 17.1566 112.982 17.1566Z" fill="white"/>
</svg>
