<svg width="100%" height="auto" viewBox="0 0 573 60" fill="none" xmlns="http://www.w3.org/2000/svg">
<path d="M225.85 59.8473H257.909V0.181807H225.85V59.8473ZM201.752 0.167263H220.754V7.87225H203.18C200.28 7.87225 197.906 8.7122 196.06 10.3885C194.21 12.0647 193.286 14.2682 193.286 16.9953C193.286 19.7224 194.21 22.0132 196.06 23.6895C197.906 25.3657 200.283 26.2057 203.18 26.2057H220.754V59.8509H182.393V52.1314H202.504C205.63 52.1314 208.178 51.2514 210.137 49.4879C212.1 47.728 213.081 45.4809 213.081 42.7538C213.081 40.0267 212.1 37.8086 210.137 36.1033C208.174 34.3979 205.63 33.5471 202.504 33.5471L199.952 33.5907C191.745 33.5907 185.079 26.9693 185.028 18.7661L185.017 16.9662V16.9008C185.017 7.66135 192.512 0.170899 201.755 0.170899L201.752 0.167263ZM281.346 0.167263H299.76V7.87225H282.778C279.877 7.87225 277.504 8.7122 275.658 10.3885C273.807 12.0647 272.884 14.2682 272.884 16.9953C272.884 19.7224 273.807 22.0132 275.658 23.6895C277.504 25.3657 279.881 26.2057 282.778 26.2057H299.76V42.801C299.76 52.2187 292.123 59.8509 282.702 59.8509H263.161V52.1314H281.509C284.635 52.1314 287.183 51.2514 289.142 49.4879C291.105 47.728 292.087 45.4809 292.087 42.7538C292.087 40.0267 291.105 37.8086 289.142 36.1033C287.18 34.3979 284.635 33.5907 281.509 33.5907H264.717L264.611 16.9662V16.9008C264.611 7.66135 272.106 0.170899 281.35 0.170899L281.346 0.167263ZM29.8524 0.167263H51.3484V7.87225H30.4521C26.5302 7.87225 22.9027 8.85401 19.5769 10.8139C16.2511 12.7738 13.6195 15.4463 11.6858 18.828C9.75209 22.2096 8.78524 25.8893 8.78524 29.8673C8.78524 33.8452 9.75209 37.8632 11.6858 41.2157C13.6195 44.5718 16.2474 47.2262 19.5769 49.1861C22.9027 51.146 26.5302 52.1278 30.4521 52.1278H43.1593V33.5871H22.5174V26.0857H51.3484V59.8473H29.8742C13.3796 59.8582 0 46.4954 0 30.0091C0 13.5265 13.3651 0.167263 29.8524 0.167263ZM113.961 27.871V59.8691H106.353V27.9729C106.353 16.8717 97.3501 7.87225 86.2422 7.87225C75.1344 7.87225 66.131 16.8717 66.131 27.9729V59.8691H58.458V0.203624H86.2822C101.57 0.203624 113.965 12.592 113.965 27.8747L113.961 27.871ZM252.231 18.1734C252.231 23.8967 247.593 28.5328 241.876 28.5328C236.158 28.5328 231.52 23.8931 231.52 18.1734C231.52 12.4538 236.158 7.81407 241.876 7.81407C247.593 7.81407 252.231 12.4538 252.231 18.1734ZM320.482 29.9582V30.0273C320.482 46.5063 333.847 59.8473 350.334 59.8473H362.95V52.1278H350.537C338.15 52.1278 328.136 41.9575 328.402 29.5146C328.66 17.4171 338.837 7.86861 350.945 7.86861H362.95V0.203624H350.25C333.807 0.203624 320.478 13.5265 320.478 29.9618L320.482 29.9582ZM545.321 0.203624H517.497V59.8473H525.17V27.9729C525.17 16.8717 534.173 7.87225 545.281 7.87225C556.389 7.87225 565.392 16.8717 565.392 27.9729V59.8473H573V27.871C573 12.5883 560.605 0.199988 545.318 0.199988L545.321 0.203624ZM406.437 20.2061C406.437 21.8532 405.851 23.2459 404.688 24.384C403.522 25.5221 402.144 26.0893 400.552 26.0893H382.814C381.164 26.0893 379.772 25.5221 378.634 24.384C377.497 23.2495 376.93 21.8569 376.93 20.2061V0.203624H369.257V59.8473H376.93V39.4703C376.93 37.8232 377.497 36.4305 378.634 35.2924C379.772 34.1579 381.164 33.5871 382.814 33.5871H400.552C402.144 33.5871 403.522 34.1543 404.688 35.2924C405.851 36.4305 406.437 37.8232 406.437 39.4703V59.8473H414.026V0.203624H406.437V20.2061ZM479.136 0.203624V59.8473H511.194V0.203624H479.136ZM495.165 28.5365C489.444 28.5365 484.81 23.8967 484.81 18.1771C484.81 12.4574 489.448 7.81771 495.165 7.81771C500.883 7.81771 505.521 12.4574 505.521 18.1771C505.521 23.8967 500.883 28.5365 495.165 28.5365ZM451.043 3.37798C450.028 1.13084 448.596 0.00363614 446.739 0.00363614C444.882 0.00363614 443.449 1.1272 442.435 3.37798L416.876 59.8473H476.348L451.043 3.37798ZM446.739 50.0733C441.018 50.0733 436.383 45.4336 436.383 39.714C436.383 33.9943 441.021 29.3546 446.739 29.3546C452.456 29.3546 457.094 33.9943 457.094 39.714C457.094 45.4336 452.456 50.0733 446.739 50.0733ZM176.13 14.8173C173.393 10.2103 169.7 6.58869 165.059 3.95249C160.413 1.31992 155.354 0 149.88 0C144.406 0 139.553 1.31992 134.825 3.95249C130.096 6.58869 126.403 10.2103 123.753 14.8173C121.096 19.4279 119.773 24.4458 119.773 29.8782C119.773 35.3106 121.1 40.3321 123.753 44.9391C126.406 49.5497 130.099 53.2113 134.825 55.9275C139.553 58.6437 144.566 60 149.88 60C155.194 60 160.41 58.6437 165.059 55.9275C169.7 53.2113 173.393 49.5497 176.13 44.9391C178.867 40.3321 180.234 35.307 180.234 29.8782C180.234 24.4494 178.867 19.4243 176.13 14.8173ZM150.007 40.4085C144.271 40.4085 139.623 35.7542 139.623 30.0127C139.623 24.2713 144.271 19.617 150.007 19.617C155.743 19.617 160.392 24.2713 160.392 30.0127C160.392 35.7542 155.743 40.4085 150.007 40.4085Z" fill="#F0EBDE"/>
</svg>
