<svg width="1689" height="1847" viewBox="0 0 1689 1847" fill="none" xmlns="http://www.w3.org/2000/svg">
<path d="M725.022 1032.94C724.374 991.745 737.768 951.562 762.999 919L1022 1178.01C989.355 1203.08 949.229 1216.46 908.069 1215.99C859.585 1215.79 813.142 1196.44 778.857 1162.15C744.573 1127.87 725.223 1081.42 725.022 1032.94Z" fill="black" fill-opacity="0.1"/>
<path d="M1496.65 1216C1521 1216.1 1545.13 1211.39 1567.65 1202.14C1590.17 1192.89 1610.63 1179.28 1627.86 1162.1C1645.09 1144.93 1658.74 1124.52 1668.03 1102.05C1677.32 1079.58 1682.06 1055.5 1681.99 1031.19C1682.45 989.94 1669.02 949.729 1643.85 917L1383 1177.36C1415.42 1202.68 1455.48 1216.29 1496.65 1216Z" fill="black" fill-opacity="0.1"/>
<path d="M1697.78 864.503C1737.81 911.491 1759.81 971.186 1759.84 1032.9C1759.79 1102.31 1732.17 1168.86 1683.05 1217.92C1633.94 1266.98 1567.34 1294.54 1497.91 1294.54C1436.49 1294.61 1377.03 1272.98 1330.02 1233.46L1204.01 1359.43L1078 1233.46C1030.96 1273.05 971.406 1294.69 909.917 1294.54C875.455 1294.67 841.311 1287.99 809.435 1274.9C777.558 1261.81 748.581 1242.56 724.16 1218.26C699.74 1193.95 680.357 1165.07 667.124 1133.26C653.89 1101.46 647.065 1067.35 647.041 1032.9C647.09 971.47 668.715 912.004 708.144 864.883L649.325 806.084L593.172 749C525.528 860.177 489.831 987.833 490.001 1117.96C489.976 1211.49 508.39 1304.11 544.189 1390.52C579.988 1476.93 632.471 1555.44 698.639 1621.57C764.807 1687.7 843.362 1740.14 929.814 1775.9C1016.27 1811.67 1108.92 1830.05 1202.49 1830C1391.3 1829.95 1572.38 1755 1705.97 1621.61C1839.55 1488.21 1914.72 1307.28 1914.97 1118.53C1916.15 988.425 1880.8 860.601 1812.94 749.572L1697.78 864.503Z" fill="black" fill-opacity="0.1"/>
<path d="M1718.86 626.753C1652.38 556.914 1572.36 501.326 1483.69 463.375C1395.02 425.423 1299.54 405.902 1203.07 406C1106.58 405.954 1011.09 425.497 922.397 463.445C833.7 501.393 753.645 556.953 687.092 626.753C669.759 645.784 652.809 664.814 637 685.177L1202.5 1250L1768 684.606C1753.07 664.138 1736.65 644.801 1718.86 626.753ZM1203.07 1118.12L764.994 680.419C822.269 622.582 890.514 576.737 965.734 545.564C1040.95 514.391 1121.64 498.517 1203.07 498.869C1284.52 498.421 1365.23 514.251 1440.47 545.43C1515.7 576.608 1583.93 622.505 1641.15 680.419L1203.07 1118.12Z" fill="black" fill-opacity="0.1"/>
</svg>
