<svg width="40" height="40" viewBox="0 0 130 130" fill="none" xmlns="http://www.w3.org/2000/svg">
<path d="M100 75.101V58.7228H92.8168C92.1628 56.3949 91.238 54.1517 90.0615 52.0391L95.1489 46.9513L83.5649 35.3672L78.4868 40.519C76.3799 39.333 74.1357 38.4094 71.8044 37.7688V30.5273H55.4266V37.7103C53.0985 38.3645 50.8552 39.2894 48.7425 40.4661L43.6551 35.3782L32.082 46.9513L37.1601 52.0298C35.9713 54.1398 35.0457 56.3875 34.4039 58.7228H27.2307V75.101H34.4142C35.0682 77.4291 35.993 79.6724 37.1695 81.7851L32.082 86.8725L43.655 98.4456L48.7332 93.3674C50.8433 94.5561 53.0912 95.4817 55.4266 96.1236V103.297H71.8044V96.1134C74.1324 95.4593 76.3757 94.5346 78.4885 93.3581L83.5759 98.4456L95.1489 86.8725L90.0708 81.794C91.2597 79.6841 92.1853 77.4363 92.827 75.101H100ZM63.6155 87.0333C59.6358 87.0333 55.7456 85.8531 52.4367 83.6421C49.1278 81.4311 46.5488 78.2886 45.0259 74.6118C43.503 70.9351 43.1046 66.8894 43.881 62.9862C44.6574 59.0831 46.5738 55.4978 49.3879 52.6838C52.202 49.8698 55.7873 47.9535 59.6904 47.1771C63.5936 46.4008 67.6393 46.7993 71.316 48.3223C74.9927 49.8452 78.1352 52.4243 80.3462 55.7332C82.5571 59.0422 83.7372 62.9325 83.7371 66.9121C83.7311 72.2468 81.6091 77.3613 77.8369 81.1334C74.0647 84.9056 68.9502 87.0274 63.6155 87.0333Z" fill="#FFFFFF"/>
<path d="M51.6866 64.7844C51.6706 63.7714 52.0001 62.7831 52.6207 61.9822L58.991 68.3526C58.188 68.9692 57.2012 69.2982 56.1888 69.2866C54.9963 69.2817 53.854 68.8058 53.0107 67.9626C52.1674 67.1193 51.6915 65.977 51.6866 64.7844Z" fill="#FFFFFF"/>
<path d="M70.6395 69.2819C71.2359 69.2844 71.827 69.1688 72.3786 68.9418C72.9301 68.7149 73.4313 68.381 73.8533 67.9595C74.2753 67.5379 74.6096 67.0371 74.8372 66.4857C75.0647 65.9344 75.1809 65.3435 75.179 64.747C75.1902 63.7347 74.8613 62.748 74.245 61.9448L67.856 68.3338C68.6501 68.9551 69.6312 69.2893 70.6395 69.2819Z" fill="#FFFFFF"/>
<path d="M75.5672 60.6507C76.5493 61.804 77.089 63.2691 77.0897 64.7839C77.0885 66.4875 76.4108 68.1209 75.2058 69.3251C74.0008 70.5292 72.3669 71.2057 70.6633 71.2057C69.1564 71.2073 67.6974 70.6763 66.5441 69.7065L63.4523 72.7982L60.3605 69.7065C59.2064 70.6781 57.7453 71.2093 56.2366 71.2057C55.3911 71.2087 54.5533 71.0449 53.7713 70.7236C52.9892 70.4024 52.2782 69.9299 51.679 69.3333C51.0799 68.7368 50.6043 68.0279 50.2796 67.2472C49.9549 66.4665 49.7875 65.6294 49.7869 64.7839C49.7881 63.2761 50.3187 61.8166 51.2861 60.66L49.8429 59.2169L48.4652 57.8158C46.8055 60.5445 45.9297 63.6778 45.9339 66.8716C45.9332 69.1672 46.385 71.4404 47.2634 73.5613C48.1417 75.6822 49.4294 77.6093 51.0529 79.2323C52.6763 80.8553 54.6037 82.1425 56.7249 83.0203C58.846 83.898 61.1193 84.3492 63.4149 84.348C68.0476 84.3468 72.4904 82.5072 75.768 79.2331C79.0455 75.9591 80.8899 71.5182 80.896 66.8856C80.9249 63.6923 80.0576 60.5549 78.3927 57.8298L75.5672 60.6507Z" fill="#FFFFFF"/>
<path d="M76.0751 54.8176C74.445 53.1037 72.483 51.7395 70.3087 50.8081C68.1344 49.8767 65.7932 49.3976 63.4278 49.4C61.062 49.3989 58.7205 49.8785 56.5456 50.8098C54.3707 51.7411 52.4078 53.1046 50.7759 54.8176C50.3509 55.2847 49.9352 55.7517 49.5476 56.2514L63.4138 70.113L77.2801 56.2374C76.9139 55.7351 76.5112 55.2605 76.0751 54.8176Z" fill="#FFFFFF"/>
<path d="M15.6473 83.8675C15.1842 83.8672 14.7334 83.7186 14.3609 83.4433C13.9884 83.1681 13.7139 82.7808 13.5776 82.3382C11.3845 75.2002 10.7422 67.676 11.694 60.2696C12.6457 52.8632 15.1694 45.7457 19.0959 39.3942C23.0225 33.0426 28.2612 27.6036 34.4611 23.4416C40.661 19.2797 47.6788 16.4909 55.0443 15.2621C55.325 15.2158 55.6121 15.2254 55.8892 15.2901C56.1663 15.3548 56.4279 15.4735 56.6591 15.6393C56.8903 15.8051 57.0866 16.0149 57.2368 16.2565C57.3869 16.4982 57.488 16.7671 57.5342 17.0479C57.5805 17.3286 57.571 17.6157 57.5062 17.8928C57.4415 18.1699 57.3229 18.4315 57.157 18.6627C56.9912 18.8939 56.7815 19.0902 56.5398 19.2404C56.2981 19.3905 56.0292 19.4916 55.7484 19.5379C48.9933 20.6662 42.5572 23.225 36.8714 27.043C31.1856 30.8609 26.3813 35.8498 22.7803 41.6755C19.1794 47.5012 16.8649 54.0291 15.992 60.822C15.119 67.6149 15.7078 74.5159 17.7188 81.0628C17.8184 81.3869 17.8405 81.7299 17.7835 82.0642C17.7265 82.3985 17.5918 82.7147 17.3903 82.9875C17.1889 83.2603 16.9262 83.482 16.6235 83.6349C16.3208 83.7877 15.9864 83.8674 15.6473 83.8675Z" fill="#FFFFFF"/>
<path d="M63.6154 119.26C55.9771 119.266 48.4303 117.598 41.5063 114.373C34.5823 111.147 28.4494 106.444 23.5393 100.593C23.1705 100.153 22.9913 99.5847 23.0411 99.0128C23.0909 98.441 23.3656 97.9123 23.8048 97.5428C24.2441 97.1733 24.812 96.9932 25.3839 97.042C25.9558 97.0908 26.485 97.3646 26.8553 97.8032C31.3294 103.127 36.9064 107.415 43.2006 110.371C49.4948 113.328 56.3561 114.882 63.3099 114.926C70.2638 114.97 77.1442 113.504 83.4755 110.628C89.8069 107.751 95.4379 103.534 99.9794 98.2683C100.355 97.8332 100.888 97.5652 101.461 97.523C102.034 97.4809 102.6 97.6681 103.035 98.0436C103.47 98.419 103.738 98.9518 103.78 99.5249C103.823 100.098 103.635 100.664 103.26 101.099C98.3461 106.799 92.2609 111.372 85.4193 114.506C78.5778 117.64 71.1407 119.262 63.6154 119.26Z" fill="#FFFFFF"/>
<path d="M110.488 87.0363C110.137 87.036 109.791 86.9503 109.48 86.7866C109.169 86.6229 108.903 86.3861 108.704 86.0966C108.505 85.8071 108.379 85.4736 108.338 85.1247C108.296 84.7758 108.34 84.4221 108.466 84.0939C110.997 77.4674 112.031 70.3627 111.492 63.2896C110.953 56.2164 108.855 49.3503 105.348 43.184C101.841 37.0177 97.0132 31.7041 91.2101 27.6245C85.4069 23.5449 78.7727 20.8005 71.7834 19.5882C71.5024 19.5407 71.2336 19.4383 70.9923 19.2868C70.751 19.1353 70.5419 18.9377 70.3771 18.7053C70.2123 18.4729 70.0949 18.2102 70.0317 17.9324C69.9685 17.6546 69.9608 17.367 70.0089 17.0862C70.057 16.8053 70.16 16.5367 70.3121 16.2958C70.4642 16.0548 70.6623 15.8462 70.8951 15.6819C71.1279 15.5176 71.3908 15.4009 71.6688 15.3383C71.9468 15.2758 72.2343 15.2687 72.5151 15.3175C80.1358 16.6379 87.3698 19.6291 93.6976 24.0765C100.025 28.5238 105.29 34.317 109.114 41.04C112.937 47.7631 115.225 55.2493 115.813 62.9613C116.4 70.6733 115.273 78.4197 112.512 85.6444C112.355 86.0539 112.078 86.4062 111.716 86.6546C111.355 86.9032 110.927 87.0362 110.488 87.0363Z" fill="#FFFFFF"/>
<path d="M55.6105 24.4001C55.1821 24.4001 54.7632 24.273 54.407 24.0349C54.0507 23.7968 53.7731 23.4584 53.6091 23.0626C53.4451 22.6667 53.4022 22.2311 53.4858 21.8109C53.5694 21.3906 53.7757 21.0046 54.0786 20.7016L57.2728 17.507L53.8645 14.0983C53.6633 13.8971 53.5038 13.6583 53.3949 13.3955C53.286 13.1326 53.23 12.8509 53.23 12.5664C53.23 11.9918 53.4582 11.4408 53.8645 11.0345C54.2708 10.6282 54.8218 10.4 55.3964 10.4C55.971 10.4 56.522 10.6282 56.9283 11.0345L63.4012 17.507L57.1425 23.7654C56.9415 23.9669 56.7028 24.1267 56.4399 24.2357C56.177 24.3446 55.8951 24.4005 55.6105 24.4001Z" fill="#FFFFFF"/>
<path d="M108.21 90.7882L104.882 82.5871C104.668 82.0549 104.673 81.4594 104.897 80.9311C105.121 80.4029 105.545 79.9851 106.077 79.7693C106.609 79.5536 107.204 79.5576 107.733 79.7804C108.262 80.0032 108.68 80.4266 108.897 80.9578L110.596 85.1439L115.063 83.3314C115.595 83.1169 116.191 83.1222 116.719 83.3461C117.247 83.5701 117.665 83.9945 117.881 84.5262C118.097 85.0578 118.093 85.6534 117.87 86.1821C117.647 86.7108 117.224 87.1296 116.692 87.3465L108.21 90.7882Z" fill="#FFFFFF"/>
<path d="M21.5611 103.83C21.2378 103.83 20.9186 103.758 20.6269 103.619C20.3351 103.479 20.0782 103.277 19.8749 103.025C19.6717 102.774 19.5271 102.48 19.452 102.166C19.3768 101.851 19.3729 101.524 19.4406 101.208L21.3622 92.2579L30.0158 94.1156C30.5771 94.2367 31.0674 94.5758 31.3789 95.0582C31.6905 95.5406 31.7977 96.127 31.6771 96.6885C31.5566 97.25 31.218 97.7406 30.7359 98.0526C30.2538 98.3646 29.6675 98.4725 29.1059 98.3525L24.6892 97.4045L23.6774 102.118C23.5734 102.602 23.3066 103.036 22.9216 103.348C22.5365 103.659 22.0564 103.829 21.5611 103.83Z" fill="#FFFFFF"/>
</svg>
