<?xml version="1.0" encoding="utf-8"?>
<!-- Generator: Adobe Illustrator 27.0.1, SVG Export Plug-In . SVG Version: 6.00 Build 0)  -->
<svg version="1.1" id="Layer_1" xmlns="http://www.w3.org/2000/svg" xmlns:xlink="http://www.w3.org/1999/xlink" x="0px" y="0px"
	 viewBox="0 0 150 131" style="enable-background:new 0 0 150 131;" xml:space="preserve">
<style type="text/css">
	.st0{fill:#3E6957;}
</style>
<path class="st0" d="M70.3,73.3c-3,7.9-6,15.7-9,23.5c-1.3,3.4-2.6,6.8-3.9,10.1c-0.4,1-0.2,1.5,0.6,2.2c3.8,3.2,5.2,7.3,4.2,12.1
	c-1,4.7-4,7.9-8.7,9.2c-5,1.4-9.4,0-12.7-3.9c-3.3-3.9-3.9-8.5-1.7-13.2c2.2-4.6,6-7.1,11.1-7c1.9,0,2.5-0.6,3.2-2.2
	c4-10.6,8-21.1,12.1-31.6c0.1-0.2,0.2-0.4,0.4-0.8C67.2,72.2,68.6,72.7,70.3,73.3L70.3,73.3z"/>
<path class="st0" d="M102.3,63c0.9-1.4,1.7-2.7,2.5-4.2c8,5.2,16,10.4,24.1,15.6c2.2-1.9,4.6-3.1,7.4-3.5
	c6.6-0.9,12.8,4.2,13.6,11.1c0.8,6.5-4.5,12.9-11,13.4c-9.1,0.7-15.5-7.1-13.1-15.9c0.3-1.1-0.2-1.4-0.9-1.8
	c-7.2-4.7-14.4-9.3-21.6-14C103.1,63.5,102.7,63.3,102.3,63L102.3,63z"/>
<path class="st0" d="M49.6,49.5c0.4,1.7,0.8,3.1,1.1,4.7c-3.6,0.9-7.1,1.8-10.6,2.7c-4.7,1.2-9.5,2.4-14.2,3.5
	c-0.8,0.2-1.2,0.5-1.2,1.4c-0.4,6.9-6.4,12-13.4,11.5C4.7,72.8-0.6,66.7,0,60.1c0.6-7,6.7-12.1,13.6-11.3c4.1,0.4,7.3,2.5,9.4,6.1
	c0.5,0.8,0.9,1,1.8,0.8c7.8-2,15.6-3.9,23.3-5.8C48.6,49.7,49,49.6,49.6,49.5L49.6,49.5z"/>
<path class="st0" d="M56.8,25.5c-1,1.3-1.9,2.5-3,3.9c-3.5-2.6-7-5.2-10.5-7.8c-6.9,4.2-13,3.8-17.5-1.1c-3.9-4.4-4.2-11-0.6-15.7
	c3.7-4.8,10-6.2,15.4-3.5c5.8,2.9,7.8,8.8,5.6,16.3C49.7,20.3,53.2,22.9,56.8,25.5L56.8,25.5z"/>
<path class="st0" d="M115.4,25.5c-3.5,2.1-6.8,4.1-10.3,6.2c-0.9-1.4-1.7-2.7-2.6-4.2c3-1.8,5.8-3.6,8.7-5.2
	c1.3-0.7,1.7-1.4,1.4-2.9c-1.1-6.7,3.3-12.9,9.8-14.1c6.6-1.2,12.8,3,14.3,9.6c1.2,5.1-1.2,10.5-5.8,13.2
	c-4.7,2.7-10.6,2.1-14.6-1.5C116.2,26.2,115.8,25.9,115.4,25.5L115.4,25.5z"/>
<path class="st0" d="M62.5,41.5c0-1.4,0.4-2.7,1.3-3.8l8.8,8.8c-1.1,0.8-2.5,1.3-3.8,1.3c-1.6,0-3.2-0.7-4.4-1.8
	C63.2,44.7,62.5,43.2,62.5,41.5z"/>
<path class="st0" d="M88.5,47.7c0.8,0,1.6-0.2,2.4-0.5c0.8-0.3,1.4-0.8,2-1.3c0.6-0.6,1-1.3,1.4-2c0.3-0.8,0.5-1.6,0.5-2.4
	c0-1.4-0.4-2.7-1.3-3.8l-8.8,8.8C85.8,47.3,87.2,47.7,88.5,47.7z"/>
<path class="st0" d="M95.3,35.8c1.3,1.6,2.1,3.6,2.1,5.7c0,2.3-0.9,4.6-2.6,6.2c-1.7,1.7-3.9,2.6-6.2,2.6c-2.1,0-4.1-0.7-5.7-2.1
	l-4.2,4.2l-4.2-4.2c-1.6,1.3-3.6,2.1-5.7,2.1c-1.2,0-2.3-0.2-3.4-0.7c-1.1-0.4-2.1-1.1-2.9-1.9C61.7,47,61,46,60.6,44.9
	c-0.4-1.1-0.7-2.2-0.7-3.4c0-2.1,0.7-4.1,2.1-5.7l-2-2L58.1,32c-2.3,3.7-3.5,8.1-3.5,12.4c0,3.2,0.6,6.3,1.8,9.2
	c1.2,2.9,3,5.6,5.2,7.8c2.2,2.2,4.9,4,7.8,5.2c2.9,1.2,6,1.8,9.2,1.8c6.4,0,12.5-2.5,17-7c4.5-4.5,7-10.6,7-17
	c0-4.4-1.2-8.7-3.4-12.4L95.3,35.8z"/>
<path class="st0" d="M96,27.8c-2.2-2.4-4.9-4.2-7.9-5.5c-3-1.3-6.2-1.9-9.5-1.9c-3.2,0-6.5,0.7-9.5,1.9c-3,1.3-5.7,3.2-7.9,5.5
	c-0.6,0.6-1.2,1.3-1.7,2l19,19l19-19.1C97.2,29.1,96.6,28.4,96,27.8z"/>
</svg>
