<?xml version="1.0" encoding="utf-8"?>
<!-- Generator: Adobe Illustrator 27.0.1, SVG Export Plug-In . SVG Version: 6.00 Build 0)  -->
<svg version="1.1" id="Layer_1" xmlns="http://www.w3.org/2000/svg" xmlns:xlink="http://www.w3.org/1999/xlink" x="0px" y="0px"
	 viewBox="0 0 154 183" style="enable-background:new 0 0 154 183;" xml:space="preserve">
<style type="text/css">
	.st0{fill:none;}
	.st1{fill:#3E6957;}
	.st2{fill:#F0EBDE;}
</style>
<g>
	<polygon class="st0" points="11.9,82.4 9.9,82.4 11.9,82.4 	"/>
	<polygon class="st0" points="135.3,39.9 137,39 135.2,39.9 	"/>
	<polygon class="st0" points="19.9,89.8 19.9,91.8 19.9,89.9 	"/>
	<path class="st0" d="M43,102.4c2.1,2.1,4.6,3.7,7.3,4.9c2.7,1.1,5.7,1.7,8.6,1.7c5.3,0,10.4-1.8,14.4-5.3l10.8,10.8l10.8-10.8
		c4,3.4,9.1,5.3,14.4,5.3c5.9,0,11.6-2.4,15.9-6.6c2.9-2.9,4.9-6.6,5.9-10.6h-7c-0.1,0.2-0.2,0.5-0.3,0.7c-0.8,1.9-2,3.6-3.5,5
		s-3.3,2.6-5.2,3.3c-2,0.8-4.1,1.2-6.2,1.2c-3.6,0-7.1-1.1-9.9-3.2l7.3-7h-9.5L83.5,105L70.2,91.8c-1,0-2.1,0-3.1,0
		c-2,0-4.1,0-6.1,0l7,7c-2.7,2.1-6.1,3.2-9.6,3.2c-4.1,0-8-1.6-10.9-4.5c-1.6-1.6-2.8-3.6-3.6-5.7c-2.3,0-4.5,0-6.8,0
		c0.3,1.1,0.6,2.2,1,3.3C39.3,97.8,41,100.3,43,102.4z"/>
	<polygon class="st0" points="102.4,5.9 104.3,6.1 102.3,5.9 	"/>
	<polygon class="st0" points="62.6,5.9 62.6,5.9 60.6,6.1 62.6,5.9 	"/>
	<polygon class="st0" points="146.4,89.8 146.4,89.8 146.5,91.8 146.4,89.8 	"/>
	<polygon class="st0" points="97.2,0 97.2,-2 97.2,0 	"/>
	<polygon class="st0" points="54.5,22.3 54.4,22.3 54.4,22.3 	"/>
	<polygon class="st0" points="97.2,0 97.2,-2 97.2,0 	"/>
	<polygon class="st0" points="154,82 154.1,81.9 154,82 154,82 	"/>
	<rect x="111.5" y="13.3" transform="matrix(0.7071 -0.7071 0.7071 0.7071 23.2385 82.735)" class="st0" width="0" height="0"/>
	<polygon class="st0" points="19,75 19,75 19,75 	"/>
	<path class="st1" d="M58.4,102c3.5,0,6.8-1.1,9.6-3.2l-7-7c-5.7,0-11.4,0-17,0c0.8,2.1,2,4.1,3.6,5.7C50.4,100.4,54.3,102,58.4,102
		z"/>
	<path class="st1" d="M108.9,102c2.1,0,4.2-0.4,6.2-1.2c2-0.8,3.7-1.9,5.2-3.3s2.7-3.1,3.5-5c0.1-0.2,0.2-0.5,0.3-0.7h-17.8l-7.3,7
		C101.8,100.9,105.3,102,108.9,102z"/>
	<path class="st1" d="M139,91.8c-1.1,0-2.1,0-3.2,0H131c-1,4-3,7.6-5.9,10.6c-4.2,4.2-9.9,6.6-15.9,6.6c-5.3,0-10.3-1.9-14.4-5.3
		l-10.8,10.8l-10.8-10.8c-4,3.4-9.1,5.3-14.4,5.3c-3,0-5.9-0.6-8.6-1.7c-2.7-1.1-5.2-2.8-7.3-4.9s-3.8-4.6-4.9-7.3
		c-0.4-1.1-0.8-2.2-1-3.3c-4.7,0-9.4,0-14.1,0c0,0.7,0,1.3,0,2c0,2.1,0.1,4.1,0.3,6.2c1.9,0.4,3.7,1,5.3,2.1c3.7,2.3,6,5.7,6.7,9.9
		c0.3,2,0.2,4.1-0.3,6.2c4.9,4.4,9.8,8.9,14.8,13.3l19.1,17.2c0.6,0.6,1.2,1.1,1.8,1.7c2.9-0.7,5.7-0.7,8.5-0.1
		c3.3,0.7,6.1,2.4,8.2,4.7c14.9-0.8,29.1-7.2,39.7-17.8c11.4-11.5,17.9-27,17.9-43.3c0-0.7,0-1.3,0-2C143,91.8,141,91.8,139,91.8z"
		/>
	<path class="st1" d="M96.8,91.8H82.8h-2v0c-3.5,0-7.1,0-10.6,0L83.5,105L96.8,91.8z"/>
	<path class="st2" d="M36,24.8v1.2c0.3-0.4,0.7-0.8,1-1.2H36z"/>
	<path class="st1" d="M99.8,46.5L99.8,46.5c0,0.3-0.1,0.6-0.1,0.9c-0.1,1-0.2,2-0.3,3l0,0c-0.1,1.8,1.1,3.1,2.8,3.3l0,0
		c1.4,0.1,2.9-1,3.1-2.7v0c0.3-2,0.5-4,0.7-6c0.1-1,0.2-2,0.3-2.9v0c0.6-5.7,1.3-11.4,1.9-17.1h-6c-0.3,2.4-0.5,4.8-0.8,7.2
		C100.9,36.9,100.3,41.7,99.8,46.5z"/>
	<path class="st1" d="M59.6,50.8L59.6,50.8c0.2,1.8,1.7,3,3.1,2.8c1.7-0.2,2.9-1.5,2.8-3.3l0,0c-0.4-4.5-0.9-9.1-1.5-13.6
		c-0.2-1.5-0.3-2.9-0.5-4.4h0c-0.3-2.5-0.6-5-0.8-7.5h-6c0.3,2.5,0.6,5,0.8,7.6C58.2,38.5,58.9,44.7,59.6,50.8z"/>
	<polygon class="st2" points="107.3,51.2 105.3,50.9 107.3,51.2 	"/>
	<polygon class="st2" points="105.3,50.9 107.3,51.2 107.3,51.2 	"/>
	<polygon class="st2" points="62.9,55.6 62.9,55.6 62.9,55.6 	"/>
	<polygon class="st2" points="102,55.6 102,54.9 102,55.6 102,55.6 	"/>
	<polygon class="st2" points="108.3,42.1 108.3,42.1 106.3,41.9 108.3,42.1 	"/>
	<polygon class="st2" points="97.4,50.3 97.4,50.3 99.4,50.4 97.5,50.3 	"/>
	<polygon class="st2" points="67.5,50.1 67.5,50.1 65.5,50.3 67.5,50.1 	"/>
	<polygon class="st1" points="152,82.1 154,82 154,82 	"/>
	<polygon class="st1" points="146.4,89.8 146.4,89.8 146.4,89.8 	"/>
	<polygon class="st1" points="154,82 152,82.1 154,82 	"/>
	<polygon class="st1" points="97.2,0 97.2,0.2 97.2,0 97.2,0 	"/>
	<polygon class="st1" points="20,75 19.9,77 20,75 	"/>
	<polygon class="st1" points="19,75 19,75 19.1,77 19,75 	"/>
	<polygon class="st1" points="54.4,22.3 54.4,22.3 52.5,22.5 54.4,22.3 	"/>
	<polygon class="st1" points="12.2,82.4 11.9,82.4 11.9,82.4 	"/>
	<polygon class="st1" points="28.7,43.4 30,44 28.6,43.3 	"/>
	<polygon class="st1" points="62.6,5.9 62.6,5.9 62.6,5.9 	"/>
	<path class="st1" d="M152,82.1L152,82.1c-0.2-2.8-2.5-5.1-6.3-5.1H20.3c-0.1,0-0.2,0-0.3,0h0c-0.3,0-0.6,0-0.8,0l0,0v0
		c-3,0.2-5.2,2.6-5.2,5.4c0,3,2.4,5.4,6,5.4l0,0c15.7,0,31.5,0,47.2,0c5.2,0,10.5,0,15.7,0h2v0h51c1.1,0,2.2,0,3.2,0
		c2.5,0,4.9,0,7.4,0l0,0C149.8,87.7,152.2,85.1,152,82.1z"/>
	<polygon class="st1" points="65.8,32.1 67.5,31.9 65.8,32.1 	"/>
	<polygon class="st1" points="107.3,51.2 109.3,51.4 107.3,51.2 107.3,51.2 	"/>
	<polygon class="st1" points="108.5,42.2 108.3,42.1 108.3,42.1 	"/>
	<polygon class="st1" points="97.4,50.3 97.4,50.3 97.4,50.3 	"/>
	<polygon class="st1" points="97.7,46.2 95.8,46 97.7,46.2 	"/>
	<polygon class="st1" points="101.8,57.6 102,55.6 102,55.6 	"/>
	<polygon class="st1" points="62.9,55.6 63.1,57.6 62.9,55.6 	"/>
	<polygon class="st1" points="102,55.6 101.8,57.6 102,55.6 	"/>
	<path class="st1" d="M101.8,57.6L101.8,57.6c-3.8-0.4-6.6-3.5-6.4-7.4l0,0c0,0,0,0,0,0c0,0,0,0,0,0h0c0-1.1,0.2-2.2,0.3-3.3
		c0-0.3,0.1-0.6,0.1-0.9l0,0c0.5-4.8,1.1-9.6,1.6-14.4c1-8.7,1.9-17.3,2.9-26l0,0c0.1-1.2-0.2-2-0.7-2.6c-0.5-0.6-1.3-1-2.5-1
		c-9.8,0-19.6,0-29.4,0c-1.2,0-2,0.4-2.5,1c-0.5,0.6-0.8,1.5-0.7,2.6c0.6,5.6,1.2,11.1,1.9,16.7c0.4,3.2,0.7,6.4,1.1,9.6v0
		c0.2,1.5,0.3,2.9,0.5,4.4c0.5,4.5,1,9.1,1.5,13.7h0c0.4,4.1-2.5,7.3-6.4,7.7l0,0c-3.8,0.4-7.1-2.6-7.5-6.4h0
		c-0.7-6.1-1.4-12.3-2-18.4c-0.4-3.4-0.8-6.9-1.1-10.3l0,0c-0.2-1.9-0.4-3.8-0.7-5.7C41.9,23.8,34.7,32.8,30,44v0
		c-3.9,9.3-5.6,19-5.2,29h115.3c0.4-11.3-1.7-22.1-6.7-32.2l0,0c-4.7-9.7-11.4-17.7-20.3-24c-1,8.7-1.9,17.1-2.8,25.6h0
		c-0.1,1-0.2,1.9-0.3,2.9c-0.2,2-0.4,4.1-0.7,6.1C108.8,55.1,105.5,58,101.8,57.6z"/>
	<polygon class="st1" points="67.5,50.1 67.5,50.1 67.5,50.1 	"/>
	<polygon class="st2" points="97.2,-2 97.2,-2 97.2,0 	"/>
	<path class="st1" d="M111.5,13.3L111.5,13.3L111.5,13.3L111.5,13.3L111.5,13.3z M139,87.8c-1.1,0-2.1,0-3.2,0h-51v0h-2
		c-5.2,0-10.5,0-15.7,0c-15.7,0-31.5,0-47.2,0l0,0c-3.6,0-6-2.5-6-5.4c0-2.7,2.3-5.2,5.2-5.4v0l0,0L19,75l0,0l0,0l0,0l0.1,2
		c0.2,0,0.5,0,0.8,0h0l0-2l0,0l0,2c0.1,0,0.2,0,0.3,0h125.4c3.8,0,6.2,2.2,6.3,5.1l2-0.1l0.1,0l-0.1,0l-2,0.1c0.2,3-2.2,5.7-5.6,5.7
		l0,0C144,87.8,141.5,87.8,139,87.8z"/>
	<polygon class="st2" points="107.3,51.2 105.3,50.9 105.3,50.9 	"/>
	<polygon class="st2" points="154,82 152,82.1 152,82.1 	"/>
	<polygon class="st2" points="102,55.6 101.8,57.6 101.8,57.6 	"/>
	<path class="st1" d="M78.4,154.1c-2.5-0.5-5.1-0.4-7.6,0.3l-1.1,0.3l-0.8-0.8c-0.9-0.8-1.8-1.6-2.6-2.4l-1.7-1.5l-17.4-15.7
		c-5.2-4.7-10.5-9.4-15.7-14.2l-1-0.9l0.1-0.3l0,0l0-0.1l0,0l0-0.1l0.3-0.8c0.6-1.9,0.8-3.7,0.5-5.5c-0.5-3.1-2.1-5.5-4.8-7.1
		c-2.5-1.5-5.3-2.1-8.6-1.7c-0.3,0-0.6,0.1-0.9,0.1l-0.4,0.1l1.4,1.9c1.2,1.6,2.4,3.3,3.7,5c0.6,0.8,0.9,1.8,0.7,2.7
		c-0.1,0.5-0.5,1.5-1.7,2.3l-1.3,0.8c-0.8,0.5-1.6,1-2.4,1.5c-1.3,0.8-2.7,0.9-3.9,0.3l-0.4,0.3l-2.4-3.2l0,0l-3.6-4.9l-0.1,0.1
		c-2,3-2.8,5.9-2.3,9c0.6,4.1,3.8,7.4,8.3,8.4c2.5,0.6,8.3-1.1,8.3-1.1l22.6,20.4l0,0l4.8,4.3c3.8,3.5,7.7,6.9,11.5,10.4l0.5,0.4
		l0.6,0l-0.1,0.6l-0.1,0.3l0,0l-0.3,0.8c-0.6,1.8-0.8,3.6-0.5,5.3c0.5,3.3,2.3,5.8,5.3,7.5c2.3,1.3,4.9,1.7,8,1.4
		c0.4,0,0.8-0.1,1.1-0.2l0.5-0.1l-0.3-0.4l-1.5-2c-1.1-1.5-2.3-3.1-3.4-4.6c-0.6-0.8-0.8-1.7-0.6-2.6c0.2-0.9,0.8-1.7,1.7-2.3
		c1.3-0.8,2.6-1.6,3.9-2.4c1.8-1.1,4.2-0.7,5.4,1l4.8,6.5l0.1-0.2c2-2.9,2.7-5.9,2.2-9C86.1,158.4,82.7,155,78.4,154.1z"/>
	<polygon class="st1" points="76,177.1 76,177.1 76,177.1 	"/>
</g>
</svg>
