<?xml version="1.0" encoding="utf-8"?>
<!-- Generator: Adobe Illustrator 27.0.1, SVG Export Plug-In . SVG Version: 6.00 Build 0)  -->
<svg version="1.1" id="Layer_1" xmlns="http://www.w3.org/2000/svg" xmlns:xlink="http://www.w3.org/1999/xlink" x="0px" y="0px"
	 viewBox="0 0 158.7 177.9" style="enable-background:new 0 0 158.7 177.9;" xml:space="preserve">
<style type="text/css">
	.st0{fill:#3E6957;}
	.st1{fill:none;stroke:#3E6957;stroke-width:0;stroke-linecap:round;stroke-linejoin:round;}
</style>
<g>
	<path class="st0" d="M27.2,114.9c3.2,3.2,7.6,5.1,12.2,5.1c3.9,0,7.7-1.2,10.8-3.6L25.7,91.9c-2.4,3.1-3.7,6.9-3.6,10.8
		C22.1,107.2,24,111.6,27.2,114.9z"/>
	<path class="st0" d="M95,120c2.3,0,4.6-0.4,6.7-1.3c2.1-0.9,4-2.2,5.7-3.8c1.6-1.6,2.9-3.5,3.8-5.7c0.9-2.1,1.3-4.4,1.3-6.7
		c0-3.9-1.2-7.7-3.6-10.8l-24.6,24.6C87.4,118.7,91.2,120,95,120z"/>
	<path class="st0" d="M114,86.8c3.8,4.4,5.9,10.1,5.9,15.9c0,6.6-2.6,12.8-7.2,17.5s-10.9,7.2-17.5,7.2c-5.8,0-11.4-2-15.8-5.8
		l-11.9,11.9l-11.9-11.9c-4.4,3.7-10.1,5.8-15.9,5.8c-3.3,0-6.5-0.6-9.5-1.9c-3-1.2-5.7-3.1-8-5.3c-2.3-2.3-4.1-5-5.4-8
		c-1.2-3-1.9-6.2-1.9-9.5c0-5.8,2-11.4,5.8-15.9L15,81.2l-5.3-5.4C3.4,86.3,0,98.4,0,110.7c0,8.8,1.7,17.6,5.1,25.7
		c3.4,8.2,8.3,15.6,14.6,21.8c6.2,6.2,13.7,11.2,21.8,14.6c8.2,3.4,16.9,5.1,25.7,5.1c17.8,0,34.9-7.1,47.5-19.7
		c12.6-12.6,19.7-29.7,19.7-47.5c0.1-12.3-3.2-24.4-9.6-34.8L114,86.8z"/>
	<path class="st0" d="M119.6,70.8c-0.6,0.3-1.2,0.6-1.9,0.9c-3.3,1.3-6.7,1.6-9.7,1.6c-0.4,0-0.8,0-1.2,0
		c-10.8-0.2-21.5-2.6-32.7-7.4c-8.1-3.5-14.2-7.2-19.3-11.7c-1.5-1.3-2.9-3-4.5-5.3c-0.6-0.9-1-1.9-1.2-2.9
		c-2.8,0.8-5.6,1.7-8.3,2.9c-8.4,3.6-15.9,8.8-22.2,15.4c-1.6,1.8-3.2,3.6-4.7,5.5l53.3,53.3L119.6,70.8z"/>
	<path class="st0" d="M62.8,33.5c6.5,5.1,13.2,10.4,19.9,15.7c2.7,2.1,5.6,3.1,8.9,3l0,0v0v0h0c0.2,0,0.3,0,0.5,0l1,0v0
		c8-0.2,16-0.3,24-0.4l10.1-0.2l0,0.1c8.3-0.1,16.6-0.3,24.8-0.4c1.4,0,2.7-0.2,3.7-1.3c1.7-1.8,1.3-4.3-1.1-6.1
		c-16.7-13-33.3-26.1-50-39.1c-1.2-0.9-2.4-1.3-3.9-1.3c-21.1,0.4-42.1,0.7-63.2,1c-1.8,0-3.3,0.4-4.4,1.8l0,0l-0.6,1.7
		c0.1,1.6,0.7,2.8,2,3.8c6.7,5.2,13.3,10.5,19.9,15.7l0.1-0.3L62.8,33.5z"/>
	<line class="st1" x1="91.7" y1="52.2" x2="91.7" y2="52.2"/>
	<path class="st0" d="M56.8,52c4.8,4.3,10.6,7.8,18.4,11.2c10.8,4.6,21.1,7,31.6,7.1c3,0.1,6.5-0.1,9.7-1.3c1.6-0.6,2-1,2.1-1.3
		c1.5-4,2.8-8,4.2-12.1l0.3-0.9l-5.8,0.1c-8.5,0.1-17,0.3-25.5,0.5c-4.1,0.1-7.6-1.1-10.9-3.7C74.2,46.2,67.5,40.9,61,35.8l-4.8-3.8
		l-0.5,1.4c-1.1,3.2-2.2,6.6-3.4,9.9c-0.5,1.5-0.4,2.8,0.3,3.9C54.2,49.3,55.5,50.8,56.8,52z"/>
	<polygon class="st0" points="154.8,52.8 154.8,52.8 154.8,52.8 	"/>
	<path class="st0" d="M155.7,86.8c-0.6-0.5-0.9-1-0.9-1.8c0-7.6,0-15.2,0-22.9v-9.4c-3.1-0.9-7.1-0.4-7.1,0.4
		c-0.9,0.3-0.6,2.6-0.6,3.5c0,9.4,0,18.7,0,28.1c0,0.9-0.2,1.5-1,2.1c-3.9,3.1-3.9,8.9,0,11.9c0.7,0.6,0.9,1.1,0.9,2
		c0,5.7,0,11.5,0,17.2c0,2,1.2,3.6,2.9,4c2.5,0.6,4.7-1.2,4.7-4c0-5.8,0-11.7,0-17.5c0-0.5,0.3-1.2,0.7-1.5
		C159.6,95.8,159.7,90,155.7,86.8z"/>
</g>
</svg>
