<?xml version="1.0" encoding="iso-8859-1"?>
<!-- Generator: Adobe Illustrator 19.0.0, SVG Export Plug-In . SVG Version: 6.00 Build 0)  -->
<svg version="1.1" id="Layer_1" xmlns="http://www.w3.org/2000/svg" xmlns:xlink="http://www.w3.org/1999/xlink" x="0px" y="0px"
	 viewBox="0 0 512.001 512.001" style="enable-background:new 0 0 512.001 512.001;" xml:space="preserve">
<g>
	<g>
		<path d="M336.129,173.05L199.272,36.199c-3.851-3.85-9.071-6.012-14.515-6.012H20.529C9.191,30.187,0,39.378,0,50.715v410.571
			c0,11.337,9.191,20.529,20.529,20.529h301.086c11.337,0,20.529-9.191,20.529-20.529v-273.72
			C342.143,182.121,339.98,176.9,336.129,173.05z M205.286,100.274l66.767,66.764h-66.767V100.274z M301.086,440.758H41.057V71.244
			h123.171v116.323c0,11.337,9.191,20.529,20.529,20.529h116.328V440.758z"/>
	</g>
</g>
<g>
	<g>
		<path d="M239.5,344.958H102.643c-11.337,0-20.529,9.191-20.529,20.529s9.191,20.529,20.529,20.529H239.5
			c11.337,0,20.529-9.191,20.529-20.529C260.028,354.148,250.837,344.958,239.5,344.958z"/>
	</g>
</g>
<g>
	<g>
		<path d="M239.5,262.844H102.643c-11.337,0-20.529,9.191-20.529,20.529c0,11.337,9.191,20.529,20.529,20.529H239.5
			c11.337,0,20.529-9.191,20.529-20.529C260.028,272.034,250.837,262.844,239.5,262.844z"/>
	</g>
</g>
<g>
	<g>
		<path d="M505.988,36.199c-3.85-3.85-9.071-6.013-14.516-6.013h-87.743c-5.446,0-10.667,2.164-14.516,6.013
			s-6.012,9.072-6.012,14.516l0.003,366.702c0,5.446,2.162,10.667,6.014,14.516l43.87,43.87c4.009,4.009,9.263,6.014,14.515,6.014
			c5.253,0,10.508-2.004,14.515-6.014l43.87-43.87c3.85-3.85,6.013-9.071,6.013-14.516l0.003-366.702
			C512,45.271,509.838,40.048,505.988,36.199z M470.94,408.914l-23.341,23.341l-23.341-23.341l-0.001-337.67h46.686L470.94,408.914z
			"/>
	</g>
</g>
<g>
</g>
<g>
</g>
<g>
</g>
<g>
</g>
<g>
</g>
<g>
</g>
<g>
</g>
<g>
</g>
<g>
</g>
<g>
</g>
<g>
</g>
<g>
</g>
<g>
</g>
<g>
</g>
<g>
</g>
</svg>
