<?xml version="1.0" encoding="UTF-8"?>
<!-- Generator: visioncortex VTracer 0.6.2 -->
<svg version="1.1" xmlns="http://www.w3.org/2000/svg" width="1280" height="558">
<path d="M0 0 C1.33827347 -0.01925285 1.33827347 -0.01925285 2.70358276 -0.03889465 C3.65878815 -0.04628159 4.61399353 -0.05366852 5.59814453 -0.0612793 C6.5987088 -0.06935104 7.59927307 -0.07742279 8.63015747 -0.08573914 C10.75000288 -0.09955387 12.8698703 -0.11028767 14.98974609 -0.11816406 C17.13271722 -0.12962466 19.27566116 -0.14998115 21.41845703 -0.1796875 C34.06961946 -0.35485443 45.34963455 -0.07956908 57.35595703 4.17700195 C58.11763184 4.42861084 58.87930664 4.68021973 59.6640625 4.93945312 C80.80237501 12.23495301 103.99357199 25.90905664 117.35595703 44.17700195 C117.35595703 44.83700195 117.35595703 45.49700195 117.35595703 46.17700195 C118.34595703 46.50700195 119.33595703 46.83700195 120.35595703 47.17700195 C122.0353588 49.35455665 123.55263604 51.50036855 125.04345703 53.80200195 C125.48334961 54.47642334 125.92324219 55.15084473 126.37646484 55.84570312 C145.67252112 85.86062798 152.86115173 120.89535034 145.32470703 156.25512695 C140.53384872 176.34901616 130.68502347 197.07977937 116.35595703 212.17700195 C115.03431438 212.86655464 113.70051565 213.53327504 112.35595703 214.17700195 C110.91320095 215.43774057 109.51819044 216.75463921 108.16845703 218.11450195 C107.47365234 218.80415039 106.77884766 219.49379883 106.06298828 220.2043457 C104.14856957 222.16307328 104.14856957 222.16307328 103.35595703 225.17700195 C101.16315517 227.01373315 98.98750038 228.70162425 96.66845703 230.36450195 C95.99363281 230.85136475 95.31880859 231.33822754 94.62353516 231.83984375 C64.64925661 253.12759877 29.56665951 260.17988877 -6.64404297 254.17700195 C-39.92876855 247.5849486 -70.47550717 227.31786297 -89.83935547 199.48168945 C-104.35492735 177.71342482 -112.08761269 154.15044356 -111.95654297 127.92700195 C-111.94917114 126.16102661 -111.94917114 126.16102661 -111.94165039 124.359375 C-111.81638342 114.98876316 -110.93456814 106.2556422 -108.64404297 97.17700195 C-108.48307129 96.53327637 -108.32209961 95.88955078 -108.15625 95.22631836 C-103.97187316 79.03145352 -96.56586481 63.62208298 -86.64404297 50.17700195 C-86.01240234 49.30043945 -85.38076172 48.42387695 -84.72998047 47.52075195 C-81.88965904 43.70142611 -79.95499274 41.24176547 -75.64404297 39.17700195 C-73.82295186 37.07637781 -73.82295186 37.07637781 -72.08544922 34.9074707 C-56.49966997 16.19608803 -24.59202231 0.31092703 0 0 Z M-13.02294922 96.3684082 C-21.93715677 106.31365663 -26.53068509 118.26290986 -26.08935547 131.59106445 C-24.69913938 142.78596245 -19.86754876 153.65563528 -11.35888672 161.2043457 C-3.79039888 166.87771297 4.87977609 170.47506262 14.35595703 171.17700195 C15.33048828 171.2543457 15.33048828 171.2543457 16.32470703 171.33325195 C29.14149365 171.89050355 40.19226905 167.66718081 49.64111328 159.10668945 C59.25889677 149.07543116 61.87487752 137.93836982 61.63720703 124.39575195 C61.15412848 113.76802376 56.94295895 104.52850419 50.10595703 96.55200195 C31.14290669 80.17482211 6.03832082 78.76987351 -13.02294922 96.3684082 Z M-109.64404297 106.17700195 C-108.64404297 108.17700195 -108.64404297 108.17700195 -108.64404297 108.17700195 Z M-110.64404297 114.17700195 C-109.64404297 116.17700195 -109.64404297 116.17700195 -109.64404297 116.17700195 Z M-110.64404297 139.17700195 C-109.64404297 141.17700195 -109.64404297 141.17700195 -109.64404297 141.17700195 Z M-109.64404297 147.17700195 C-108.64404297 149.17700195 -108.64404297 149.17700195 -108.64404297 149.17700195 Z " fill="#0C3328" transform="translate(621.64404296875,-0.177001953125)"/>
<path d="M0 0 C9.53545399 7.21134255 14.20411163 21.17699682 18.85400391 31.91259766 C20.55975622 35.8498181 22.29220285 39.77533528 24.01953125 43.703125 C24.38164703 44.52856812 24.74376282 45.35401123 25.11685181 46.20446777 C28.93950336 54.90689248 32.86290748 63.56295961 36.79309082 72.21722412 C43.10634945 86.11986632 49.37599883 100.04048166 55.5625 114 C61.23044848 126.78917597 66.94147467 139.55820226 72.6875 152.3125 C73.25942078 153.58201004 73.25942078 153.58201004 73.84289551 154.87716675 C75.34482508 158.21084746 76.84682281 161.54449744 78.34899902 164.87806702 C81.67891795 172.26896217 84.99793209 179.66470978 88.3125 187.0625 C89.0849707 188.78629883 89.0849707 188.78629883 89.87304688 190.54492188 C92.24699613 195.84343219 94.61981979 201.14244537 96.99163818 206.44190979 C98.11321728 208.94758462 99.2353041 211.45303194 100.35742188 213.95846558 C101.17502919 215.78464561 101.99181784 217.6111921 102.80859375 219.43774414 C105.35813661 225.13154048 107.92516733 230.81589398 110.5390625 236.48046875 C111.00868408 237.50084229 111.47830566 238.52121582 111.9621582 239.57250977 C112.83852456 241.47243908 113.71959999 243.370206 114.60620117 245.26538086 C114.9901001 246.0981958 115.37399902 246.93101074 115.76953125 247.7890625 C116.10573486 248.5104541 116.44193848 249.2318457 116.78833008 249.97509766 C117.5 251.875 117.5 251.875 117.5 254.875 C33.35 254.875 -50.8 254.875 -137.5 254.875 C-132.27368139 242.68025658 -127.05907253 230.56053642 -121.47219849 218.53985596 C-115.37523903 205.41516395 -109.40695413 192.2388813 -103.5625 179 C-97.93383171 166.25512437 -92.17133504 153.57819842 -86.3125 140.9375 C-80.64342874 128.70503316 -75.03048796 116.4533563 -69.53564453 104.14135742 C-69.01599121 102.97709229 -68.49633789 101.81282715 -67.9609375 100.61328125 C-67.69439362 100.01607773 -67.42784973 99.41887421 -67.15322876 98.80357361 C-57.42743555 77.03310839 -47.55077595 55.32842078 -37.65542603 33.63458252 C-36.97920932 32.1517323 -36.30355173 30.66862696 -35.62850952 29.1852417 C-32.72598581 22.8092842 -29.81463927 16.43623739 -26.7734375 10.125 C-26.23468994 9.00351562 -26.23468994 9.00351562 -25.68505859 7.859375 C-23.12399365 3.57088388 -19.34230876 0.91425109 -15.0625 -1.5 C-9.28249896 -2.90975635 -5.19592287 -2.92046699 0 0 Z M-43.1171875 138.3125 C-44.77467967 140.18537251 -44.95751063 141.44898752 -45.5 143.875 C-46.4594378 145.86380546 -47.44123183 147.84188644 -48.4375 149.8125 C-53.83856911 161.50177034 -54.57043459 171.59253479 -50.5 183.875 C-47.79500066 190.11195561 -44.71665953 195.42175406 -39.5 199.875 C-38.99984375 200.36484375 -38.4996875 200.8546875 -37.984375 201.359375 C-28.19277943 210.60190913 -16.28094521 211.34335032 -3.5078125 211.1484375 C7.64363596 210.72989558 15.34921814 205.81561847 23.21484375 198.21875 C33.3214765 187.31490195 34.20322697 175.43535283 33.67919922 161.30224609 C32.92673972 151.11021294 27.75626818 141.69830022 20.4375 134.6875 C0.23168143 118.6390733 -24.27814199 122.76817546 -43.1171875 138.3125 Z M34.5 163.875 C34.5 167.175 34.5 170.475 34.5 173.875 C34.83 173.875 35.16 173.875 35.5 173.875 C35.5 170.575 35.5 167.275 35.5 163.875 C35.17 163.875 34.84 163.875 34.5 163.875 Z M-13.5 211.875 C-13.5 212.205 -13.5 212.535 -13.5 212.875 C-10.53 212.875 -7.56 212.875 -4.5 212.875 C-4.5 212.545 -4.5 212.215 -4.5 211.875 C-7.47 211.875 -10.44 211.875 -13.5 211.875 Z " fill="#0C3328" transform="translate(648.5,303.125)"/>
<path d="M0 0 C45.54 0 91.08 0 138 0 C138 84.15 138 168.3 138 255 C92.79 255 47.58 255 1 255 C-0.15708269 252.68583462 -0.12432138 251.37783333 -0.12304783 248.80270958 C-0.12503888 247.9174284 -0.12702993 247.03214722 -0.12908131 246.12003934 C-0.12616847 245.14145511 -0.12325563 244.16287087 -0.12025452 243.15463257 C-0.12110894 242.11978497 -0.12196337 241.08493737 -0.12284368 240.01873076 C-0.12449932 236.5285832 -0.11897572 233.03848302 -0.11352539 229.54833984 C-0.11324351 227.05546571 -0.11340127 224.56259149 -0.1139679 222.06971741 C-0.11419609 216.69112913 -0.11134777 211.31255579 -0.10573006 205.93397141 C-0.097613 198.15738297 -0.09499963 190.3808004 -0.09374207 182.60420819 C-0.09155187 169.9880886 -0.08489266 157.37197546 -0.07543945 144.75585938 C-0.0662645 132.49837272 -0.05919553 120.24088783 -0.05493164 107.98339844 C-0.05466364 107.22050617 -0.05439565 106.4576139 -0.05411953 105.67160368 C-0.05204018 99.70554196 -0.05008323 93.7394802 -0.04816496 87.77341843 C-0.03872634 58.51560636 -0.01860921 29.25781045 0 0 Z M36.1875 47.6875 C28.34839007 57.41101136 23.68218418 69.46015884 25 82 C26.83781621 91.77775656 30.31366988 101.38618106 38 108 C38.84498047 108.84691406 38.84498047 108.84691406 39.70703125 109.7109375 C48.37500881 118.07880178 59.24065436 120.28005297 70.98266602 120.3190918 C82.30446637 120.10712428 92.01755124 115.98537397 100.625 108.8125 C110.21284976 97.45846739 113.12582393 85.70403419 112.21142578 71.08349609 C111.14240355 60.54881279 106.56045908 51.06787256 98.875 43.8125 C79.53639262 28.41879701 53.44956071 29.51889781 36.1875 47.6875 Z " fill="#0C3328" transform="translate(963,0)"/>
<path d="M0 0 C1.70159271 -0.00422974 1.70159271 -0.00422974 3.43756104 -0.00854492 C4.69317337 -0.00652069 5.94878571 -0.00449646 7.2424469 -0.00241089 C8.55611237 -0.00416321 9.86977783 -0.00591553 11.22325134 -0.00772095 C14.83685684 -0.01229529 18.45043392 -0.0105056 22.06403995 -0.00734186 C25.83876547 -0.00481774 29.61348849 -0.00715599 33.38821411 -0.00872803 C39.7294407 -0.01054979 46.07065567 -0.00814347 52.41188049 -0.00338745 C59.75034405 0.00205284 67.08877982 0.00029423 74.4272427 -0.00521386 C80.71853958 -0.00974758 87.00982808 -0.01039419 93.30112606 -0.00777519 C97.06266775 -0.00621355 100.82419637 -0.00601553 104.58573723 -0.00931168 C108.7786156 -0.01272879 112.97144587 -0.00799638 117.1643219 -0.00241089 C118.41791 -0.00443512 119.67149811 -0.00645935 120.96307373 -0.00854492 C122.1002887 -0.0057251 123.23750366 -0.00290527 124.40917969 0 C125.89777071 0.00056554 125.89777071 0.00056554 127.41643429 0.0011425 C129.76808167 0.12698364 129.76808167 0.12698364 131.76808167 1.12698364 C131.76808167 85.27698364 131.76808167 169.42698364 131.76808167 256.12698364 C86.55808167 256.12698364 41.34808167 256.12698364 -5.23191833 256.12698364 C-5.5232003 192.17490781 -5.5232003 192.17490781 -5.63621521 165.53128052 C-5.6620987 159.43224048 -5.68804495 153.33320071 -5.71409607 147.23416138 C-5.71735875 146.4696967 -5.72062144 145.70523203 -5.72398299 144.91760176 C-5.77681752 132.5596402 -5.83319783 120.2016972 -5.89087654 107.8437574 C-5.94994761 95.17067832 -6.00523445 82.49758686 -6.05697387 69.82447571 C-6.08904605 61.99815289 -6.12410553 54.17185497 -6.16293024 46.34556269 C-6.19233514 40.3545419 -6.21648694 34.36351196 -6.23862457 28.37245941 C-6.24856959 25.90727159 -6.26025261 23.44209011 -6.2737484 20.97691917 C-6.2918338 17.62728672 -6.30383007 14.27768813 -6.31420898 10.92802429 C-6.32101277 9.93874532 -6.32781656 8.94946634 -6.33482653 7.93020922 C-6.33631888 7.0399523 -6.33781122 6.14969538 -6.33934879 5.23246098 C-6.34276628 4.45821122 -6.34618376 3.68396147 -6.3497048 2.8862496 C-6.09281603 -0.95065703 -3.18797346 0.00121162 0 0 Z M26.76808167 50.12698364 C26.38904141 51.4480504 26.06105179 52.78420392 25.76808167 54.12698364 C24.9826936 55.88931784 24.16751893 57.63853828 23.33058167 59.37698364 C17.99507324 71.01949479 17.4021118 80.75828902 21.51417542 92.95120239 C25.63261829 103.38202501 32.0738391 111.74805439 42.45558167 116.50198364 C43.88039169 117.07620087 45.31930442 117.61624542 46.76808167 118.12698364 C47.72069885 118.47503052 48.67331604 118.82307739 49.65480042 119.18167114 C60.53816441 122.48628104 72.62434132 121.7211922 82.95558167 117.00198364 C93.53029698 111.17994937 100.53692096 102.83194558 104.64308167 91.50198364 C107.88039544 79.15366702 106.42004943 65.7044475 100.34230042 54.49807739 C94.24901038 44.94090155 85.41790129 37.84560289 74.43605042 34.59963989 C57.43267472 31.58732882 38.33367069 36.61611206 26.76808167 50.12698364 Z " fill="#0C3328" transform="translate(783.2319183349609,301.8730163574219)"/>
<path d="M0 0 C2.44049613 0.0074786 4.88099835 0.01316386 7.32150269 0.01715088 C13.68366656 0.03227972 20.04545367 0.07144912 26.4074707 0.1159668 C32.92393907 0.15719735 39.44046949 0.17522073 45.95703125 0.1953125 C58.69810717 0.23795785 71.43880677 0.30820079 84.1796875 0.390625 C84.1796875 11.280625 84.1796875 22.170625 84.1796875 33.390625 C79.99647827 33.41249878 79.99647827 33.41249878 75.72875977 33.43481445 C66.45276824 33.48544216 57.17693965 33.55208456 47.90110874 33.62633991 C42.28426649 33.67082304 36.6674931 33.71012613 31.05053711 33.73706055 C25.6168431 33.76331562 20.18341735 33.80387013 14.74989128 33.85381126 C12.69019885 33.87033133 10.63046018 33.8819371 8.57071114 33.88823891 C-20.35004813 33.98556298 -45.45150497 40.05382734 -67.8203125 59.390625 C-69.95322472 61.64588401 -71.86708088 63.9747859 -73.8203125 66.390625 C-74.8103125 66.720625 -75.8003125 67.050625 -76.8203125 67.390625 C-77.54575072 69.03256337 -78.19964547 70.70628695 -78.8203125 72.390625 C-80.06634506 74.61863025 -81.33382434 76.81941322 -82.6328125 79.015625 C-96.00708337 102.22125351 -99.74112949 126.16026911 -93.8203125 152.390625 C-90.13941528 166.03839608 -83.45616016 180.03208876 -73.8203125 190.390625 C-73.8203125 191.050625 -73.8203125 191.710625 -73.8203125 192.390625 C-73.21960938 192.65746094 -72.61890625 192.92429688 -72 193.19921875 C-69.76521925 194.42073869 -68.60817385 195.55206999 -66.9453125 197.453125 C-48.67127708 216.07634581 -21.81606394 220.37180912 3.0625 220.70703125 C4.78714478 220.73500793 4.78714478 220.73500793 6.54663086 220.7635498 C10.79924596 220.83131665 15.05197459 220.89180212 19.3046875 220.953125 C33.5978125 221.1696875 33.5978125 221.1696875 48.1796875 221.390625 C48.1796875 195.650625 48.1796875 169.910625 48.1796875 143.390625 C19.4696875 143.390625 -9.2403125 143.390625 -38.8203125 143.390625 C-40.93488672 139.16147656 -40.00617078 133.61162694 -40.00561523 128.95947266 C-40.00780408 126.89855373 -40.02597233 124.8381681 -40.04492188 122.77734375 C-40.04685547 121.48441406 -40.04878906 120.19148438 -40.05078125 118.859375 C-40.05489014 117.66763672 -40.05899902 116.47589844 -40.06323242 115.24804688 C-39.8203125 112.390625 -39.8203125 112.390625 -37.8203125 110.390625 C-35.70571899 110.14173603 -35.70571899 110.14173603 -33.03759766 110.14338684 C-32.02804016 110.13919235 -31.01848267 110.13499786 -29.97833252 110.13067627 C-28.86657654 110.13629578 -27.75482056 110.14191528 -26.609375 110.14770508 C-25.44186707 110.14580673 -24.27435913 110.14390839 -23.07147217 110.14195251 C-19.86488436 110.13887669 -16.65846542 110.14476786 -13.45189667 110.15490556 C-10.10025954 110.16367589 -6.74861838 110.16192881 -3.39697266 110.1615448 C2.23212004 110.16248193 7.86115889 110.17117235 13.49023438 110.18481445 C20.003365 110.20054049 26.51643664 110.20581258 33.02958488 110.2050789 C39.28838802 110.20446902 45.54717189 110.2095708 51.80596924 110.21787071 C54.472603 110.22106205 57.13921405 110.22323434 59.80584717 110.22376442 C63.52684524 110.22592306 67.247768 110.23465705 70.96875 110.24536133 C72.08050598 110.24490814 73.19226196 110.24445496 74.33770752 110.24398804 C75.34726501 110.24825302 76.35682251 110.25251801 77.39697266 110.25691223 C78.2774527 110.25858808 79.15793274 110.26026392 80.06509399 110.26199055 C82.1796875 110.390625 82.1796875 110.390625 84.1796875 111.390625 C84.1796875 158.910625 84.1796875 206.430625 84.1796875 255.390625 C67.3909375 255.4525 50.6021875 255.514375 33.3046875 255.578125 C25.40619873 255.61909302 25.40619873 255.61909302 17.34814453 255.66088867 C10.82788086 255.67443848 10.82788086 255.67443848 7.75802612 255.67695618 C5.65213102 255.6815085 3.54624283 255.69194394 1.44039917 255.70735168 C-38.11431145 255.98183518 -71.13712575 244.70075424 -99.8203125 216.765625 C-119.34804284 197.0714473 -135.0147707 168.76230695 -135.19140625 140.5546875 C-135.20043472 139.63585785 -135.2094632 138.7170282 -135.21876526 137.77035522 C-135.23319326 135.83245049 -135.24213581 133.89449786 -135.24584961 131.95654297 C-135.25764264 129.05738165 -135.30681423 126.1604259 -135.35742188 123.26171875 C-135.52142754 104.42538655 -131.09488663 88.21859043 -122.8203125 71.390625 C-122.2634375 70.24851562 -121.7065625 69.10640625 -121.1328125 67.9296875 C-115.57911081 57.10511151 -108.70726398 47.17003919 -99.2578125 39.390625 C-96.70830918 37.23085467 -94.75906154 35.12249865 -92.8203125 32.390625 C-82.64183444 20.97839202 -66.98528822 13.20402877 -52.9453125 7.578125 C-51.97754883 7.17980469 -51.97754883 7.17980469 -50.99023438 6.7734375 C-34.21507444 0.37217801 -17.74109975 -0.16159454 0 0 Z " fill="#0C3328" transform="translate(134.8203125,-0.390625)"/>
<path d="M0 0 C17.55167055 -0.09386357 35.10326164 -0.16418341 52.65512657 -0.20724869 C60.80662859 -0.22778516 68.95797374 -0.25573285 77.109375 -0.30175781 C84.2225486 -0.34190117 91.33560848 -0.3674974 98.44889224 -0.37635398 C102.2077441 -0.38152276 105.96627093 -0.39347945 109.72501755 -0.42292023 C131.94464096 -0.58997448 150.9360265 0.8666301 171 11 C171.67305176 11.33660645 172.34610352 11.67321289 173.03955078 12.02001953 C183.18712873 17.17927447 191.57336727 23.38999319 200 31 C201.35050965 32.12938747 202.7039253 33.25532721 204.0625 34.375 C206.7393222 36.76705388 208.95427608 39.05415755 211 42 C211 42.66 211 43.32 211 44 C211.66 44 212.32 44 213 44 C214.64859375 46.13275326 216.14933098 48.25059583 217.625 50.5 C218.0686792 51.17562988 218.5123584 51.85125977 218.96948242 52.54736328 C232.08131616 72.91640082 238.35650476 93.93441318 238.22705078 118.2019043 C238.22648544 119.70104464 238.22680563 121.20018554 238.22793579 122.69932556 C238.22850549 126.73578507 238.21681371 130.77212374 238.20278788 134.80855536 C238.1902162 139.03925942 238.18910497 143.26996679 238.18673706 147.50068665 C238.1805411 155.49727221 238.16415599 163.49380256 238.14403808 171.4903639 C238.12162018 180.60047415 238.11067088 189.71058716 238.10064721 198.82071817 C238.07978793 217.54717665 238.0446489 236.27358387 238 255 C233.47934572 255.049377 228.95884783 255.08570823 224.43798828 255.10986328 C222.89954902 255.11993118 221.36112893 255.13358646 219.82275391 255.15087891 C217.61355867 255.17509317 215.40461605 255.18647491 213.1953125 255.1953125 C212.50567413 255.20563507 211.81603577 255.21595764 211.10549927 255.22659302 C209.40199094 255.22699478 207.69914057 255.12191026 206 255 C203.32451489 252.32451489 203.74962716 251.03315997 203.7484436 247.29319763 C203.74036934 245.47060425 203.74036934 245.47060425 203.73213196 243.6111908 C203.73614684 242.25698807 203.74031779 240.9027858 203.74462891 239.54858398 C203.74187976 238.12761229 203.73820033 236.70664214 203.73365784 235.28567505 C203.72553004 232.21854518 203.72338155 229.15148828 203.72560501 226.08434868 C203.72843877 221.21934445 203.71407858 216.35448545 203.69662476 211.48951721 C203.6496202 197.65229529 203.62569836 183.81508137 203.61914062 169.9777832 C203.61536834 162.34044736 203.5971565 154.70327428 203.56404626 147.06600815 C203.54726258 143.03061099 203.53792977 138.99550962 203.54698563 134.9600811 C203.6058269 106.22604905 201.03291127 80.42756712 180.40625 58.25390625 C165.77390974 44.54796415 146.10661958 35.34044131 126 34 C125.23300781 33.9484375 124.46601563 33.896875 123.67578125 33.84375 C101.05156071 33.03211877 78.80284378 42.13709378 62 57 C61.08154297 57.77730469 61.08154297 57.77730469 60.14453125 58.5703125 C45.71380046 71.71317487 36.58270004 93.93754416 35 113 C34.83660076 117.6474004 34.81527961 122.29339272 34.79467773 126.94335938 C34.78508387 128.34353922 34.77507294 129.74371625 34.76467896 131.14389038 C34.73778704 134.92426976 34.71669305 138.70466143 34.69667697 142.48508263 C34.67471976 146.44356871 34.64737897 150.40201762 34.62062073 154.36047363 C34.57082485 161.84712229 34.52583774 169.33379174 34.48259836 176.82048082 C34.43311356 185.34773542 34.37823734 193.8749527 34.32291877 202.40217113 C34.20930006 219.93474756 34.10312928 237.46735852 34 255 C23.11 255 12.22 255 1 255 C-0.15708269 252.68583462 -0.12432138 251.37783333 -0.12304783 248.80270958 C-0.12503888 247.9174284 -0.12702993 247.03214722 -0.12908131 246.12003934 C-0.12616847 245.14145511 -0.12325563 244.16287087 -0.12025452 243.15463257 C-0.12110894 242.11978497 -0.12196337 241.08493737 -0.12284368 240.01873076 C-0.12449932 236.5285832 -0.11897572 233.03848302 -0.11352539 229.54833984 C-0.11324351 227.05546571 -0.11340127 224.56259149 -0.1139679 222.06971741 C-0.11419609 216.69112913 -0.11134777 211.31255579 -0.10573006 205.93397141 C-0.097613 198.15738297 -0.09499963 190.3808004 -0.09374207 182.60420819 C-0.09155187 169.9880886 -0.08489266 157.37197546 -0.07543945 144.75585938 C-0.0662645 132.49837273 -0.05918407 120.24088783 -0.05493164 107.98339844 C-0.05466892 107.228214 -0.05440619 106.47302957 -0.05413551 105.69496076 C-0.0528305 101.90653201 -0.05156678 98.11810325 -0.05032361 94.32967448 C-0.039952 62.88644496 -0.02226038 31.44322346 0 0 Z " fill="#0C3328" transform="translate(248,0)"/>
<path d="M0 0 C1.08892044 -0.00571014 2.17784088 -0.01142029 3.29975891 -0.01730347 C4.5053244 -0.01842133 5.71088989 -0.01953918 6.95298767 -0.02069092 C8.21490433 -0.02565582 9.47682098 -0.03062073 10.77697754 -0.03573608 C14.25308784 -0.04889446 17.72917877 -0.05531403 21.20531011 -0.05974674 C23.38223165 -0.06267758 25.55914792 -0.06678285 27.73606682 -0.07125092 C34.56086582 -0.08494725 41.38565275 -0.09459817 48.21046454 -0.09845281 C56.06003123 -0.10291107 63.90942183 -0.12034507 71.75893503 -0.1494534 C77.83898866 -0.17120641 83.91899331 -0.18116461 89.99908537 -0.18249393 C93.6225269 -0.18353413 97.24580342 -0.18926965 100.86920357 -0.20731354 C118.70150901 -0.29105597 135.61041531 -0.25039813 152.47618103 6.26544189 C153.65990295 6.71548584 153.65990295 6.71548584 154.86753845 7.17462158 C173.2880096 14.42820199 190.00204913 26.12751784 202.97618103 41.14044189 C202.97618103 41.80044189 202.97618103 42.46044189 202.97618103 43.14044189 C203.96618103 43.47044189 204.95618103 43.80044189 205.97618103 44.14044189 C207.65994612 46.29673787 209.174455 48.41759771 210.66368103 50.70294189 C211.10284851 51.37333496 211.54201599 52.04372803 211.99449158 52.73443604 C226.95331899 76.03771704 232.16600235 99.97943413 232.08970642 127.51617432 C232.08942369 128.92664589 232.08958395 130.33711762 232.09014893 131.74758911 C232.09043356 135.54228442 232.08459126 139.33694754 232.07757497 143.13163543 C232.07128541 147.1100992 232.07073323 151.08856388 232.06954956 155.06703186 C232.06645267 162.58548243 232.05826159 170.10391831 232.04820007 177.62236243 C232.03698772 186.18835336 232.03151562 194.75434502 232.02650464 203.32034147 C232.01607746 220.92705161 231.99775258 238.53374163 231.97618103 256.14044189 C220.75618103 256.14044189 209.53618103 256.14044189 197.97618103 256.14044189 C197.95636169 251.87662598 197.93654236 247.61281006 197.91612244 243.2197876 C197.84910975 229.10625467 197.77156915 214.99279393 197.68865395 200.87934589 C197.63865548 192.32536395 197.59221174 183.77139098 197.55430603 175.21734619 C197.52123594 167.75661493 197.48132327 160.29595603 197.43339097 152.83530492 C197.40827432 148.8895234 197.38645038 144.94378896 197.37283707 140.9979496 C197.35988062 137.27396469 197.33768442 133.55014249 197.30879784 129.82624817 C197.29559229 127.82848778 197.29182703 125.83067172 197.28848267 123.83287048 C197.08080059 101.11599265 191.31185722 79.37264094 175.97618103 62.14044189 C175.11573181 61.32253174 175.11573181 61.32253174 174.23789978 60.48809814 C172.97618103 59.14044189 172.97618103 59.14044189 172.97618103 57.14044189 C172.13120056 56.75759033 172.13120056 56.75759033 171.26914978 56.36700439 C168.69079714 54.98778339 166.58539341 53.32540989 164.28868103 51.51544189 C145.308279 37.65193443 123.24902687 32.64495389 100.05430603 35.64825439 C84.38734985 38.67719926 70.16907703 45.25840925 57.97227478 55.50372314 C55.97618103 57.14044189 55.97618103 57.14044189 53.97618103 58.14044189 C52.28855252 59.7858797 50.62214613 61.45332766 48.97618103 63.14044189 C48.31618103 63.80044189 47.65618103 64.46044189 46.97618103 65.14044189 C45.74566699 67.13883485 44.65141813 69.19723652 43.53477478 71.26153564 C42.38209537 73.3906703 41.20361041 75.50587983 40.01133728 77.61309814 C27.3821998 100.15794314 27.66300618 123.33192704 27.57146406 148.5284245 C27.55564036 152.32271933 27.52891359 156.11693854 27.50343323 159.91117859 C27.45698102 167.06815054 27.4200766 174.22513726 27.38676035 181.38218111 C27.34829907 189.54208037 27.29895339 197.70190306 27.2487762 205.86173737 C27.14595661 222.62125534 27.05797265 239.38080611 26.97618103 256.14044189 C16.41618103 256.14044189 5.85618103 256.14044189 -5.02381897 256.14044189 C-5.17381934 223.67199361 -5.31913014 191.20352997 -5.45706657 158.7350283 C-5.47333847 154.90589191 -5.48965408 151.07675571 -5.5059967 147.24761963 C-5.50924963 146.48527517 -5.51250255 145.72293072 -5.51585405 144.93748491 C-5.56869899 132.57738171 -5.62508847 120.21729708 -5.68277717 107.85721565 C-5.74184825 95.18413657 -5.79713509 82.51104511 -5.84887451 69.83793396 C-5.88094668 62.01161114 -5.91600616 54.18531322 -5.95483088 46.35902094 C-5.98423577 40.36800015 -6.00838757 34.37697021 -6.03052521 28.38591766 C-6.04047023 25.92072984 -6.05215324 23.45554837 -6.06564903 20.99037743 C-6.08373443 17.64074498 -6.09573071 14.29114638 -6.10610962 10.94148254 C-6.11291341 9.95220357 -6.1197172 8.9629246 -6.12672716 7.94366747 C-6.12821951 7.05341055 -6.12971186 6.16315363 -6.13124943 5.24591923 C-6.13466691 4.47166947 -6.13808439 3.69741972 -6.14160544 2.89970785 C-5.88919197 -0.87035529 -3.15514771 0.00986172 0 0 Z M197.97618103 110.14044189 C198.97618103 113.14044189 198.97618103 113.14044189 198.97618103 113.14044189 Z " fill="#0C3328" transform="translate(947.0238189697266,301.85955810546875)"/>
<path d="M0 0 C0.6819191 -0.00095673 1.3638382 -0.00191345 2.06642151 -0.00289917 C3.51148572 -0.00358089 4.95655297 -0.00172719 6.40161133 0.00244141 C8.61611818 0.00778166 10.83042144 0.00250045 13.04492188 -0.00390625 C14.44661503 -0.00324531 15.84830806 -0.00196381 17.25 0 C18.53189209 0.00112793 19.81378418 0.00225586 21.13452148 0.00341797 C24.19140625 0.1328125 24.19140625 0.1328125 26.19140625 1.1328125 C26.19061066 2.24622009 26.18981506 3.35962769 26.18899536 4.5067749 C26.18538073 15.04001261 26.21337168 25.57276436 26.27168465 36.10584641 C26.30065976 41.52006182 26.31880224 46.93384685 26.31152344 52.34814453 C26.30489818 57.58101185 26.32759659 62.8130311 26.36996078 68.04572296 C26.38103526 70.03419218 26.38184371 72.022748 26.37182999 74.01122284 C26.19198149 90.03227668 26.19198149 90.03227668 33.19140625 104.1328125 C39.39993292 108.76967563 46.01577822 109.28420944 53.56494141 109.30981445 C54.82919449 109.31967125 54.82919449 109.31967125 56.11898804 109.32972717 C58.90614925 109.34942331 61.6932566 109.36111626 64.48046875 109.37109375 C65.43518444 109.37516928 66.38990013 109.3792448 67.3735466 109.38344383 C72.42953015 109.4042916 77.48548669 109.41859738 82.54150391 109.42797852 C87.74653483 109.43902373 92.951136 109.47340562 98.1560154 109.51315022 C102.17280841 109.5393828 106.18950018 109.54767637 110.20637131 109.55125999 C112.12398548 109.55611092 114.04159558 109.56768198 115.95912552 109.58629799 C130.21450232 110.16867539 130.21450232 110.16867539 143.19140625 105.1328125 C148.70291942 99.1147919 149.63493309 92.72072553 149.59204102 84.92456055 C149.59902008 84.02942245 149.60599915 83.13428436 149.6131897 82.21202087 C149.63308021 79.27276037 149.63266591 76.33385286 149.6328125 73.39453125 C149.64458796 71.34665483 149.6579526 69.29878698 149.6728363 67.25093079 C149.70895542 61.87430468 149.72920898 56.49775467 149.74438477 51.12103271 C149.76926082 42.4974941 149.8087174 33.8741234 149.86628532 25.25074196 C149.88265506 22.23602524 149.88639485 19.22146656 149.88929749 16.20671082 C149.89906817 14.36916831 149.90933051 12.53162833 149.92016602 10.6940918 C149.91761307 9.85201172 149.91506012 9.00993164 149.91242981 8.14233398 C149.96392053 2.36029822 149.96392053 2.36029822 152.19140625 0.1328125 C155.140625 -0.11010742 155.140625 -0.11010742 158.87890625 -0.09765625 C159.86636841 -0.09696892 159.86636841 -0.09696892 160.8737793 -0.0962677 C162.26580609 -0.09324631 163.65782953 -0.08536331 165.04980469 -0.07299805 C167.18306428 -0.05475882 169.31588938 -0.05248826 171.44921875 -0.05273438 C181.89630992 -0.01473567 181.89630992 -0.01473567 184.19140625 1.1328125 C184.19140625 85.2828125 184.19140625 169.4328125 184.19140625 256.1328125 C172.97140625 256.1328125 161.75140625 256.1328125 150.19140625 256.1328125 C150.18206055 253.33240479 150.17271484 250.53199707 150.16308594 247.64672852 C150.12925732 238.37464879 150.07367552 229.10279026 150.00750351 219.83088779 C149.96806287 214.2115471 149.93585751 208.59236232 149.92041016 202.97290039 C149.9052213 197.54566571 149.87073565 192.11885976 149.82309723 186.69181633 C149.8083065 184.62551547 149.80036657 182.55915339 149.7995224 180.49279976 C149.79714407 177.58922205 149.76999449 174.68682087 149.73730469 171.78344727 C149.74233505 170.93683533 149.74736542 170.09022339 149.75254822 169.21795654 C149.62547741 161.88110047 147.489803 155.99027874 142.87890625 150.2578125 C136.99107927 145.6023214 131.76742611 144.68557448 124.49316406 144.71289062 C123.65149689 144.70442108 122.80982971 144.69595154 121.94265747 144.68722534 C119.1764591 144.66394026 116.41081999 144.66283138 113.64453125 144.6640625 C111.70790386 144.65695426 109.77127857 144.64925429 107.83465576 144.64099121 C103.77968492 144.62756472 99.72490869 144.62596871 95.66992188 144.63183594 C90.49740386 144.63772095 85.32582804 144.60718142 80.15349197 144.56671906 C76.1537786 144.54074563 72.15428894 144.53797354 68.15450287 144.54161072 C66.24888498 144.53992754 64.34325585 144.53036302 62.43772125 144.51246643 C47.62658731 144.31640933 47.62658731 144.31640933 34.19140625 150.1328125 C26.38252538 157.94169337 26.53596747 168.24796209 26.47245789 178.55839539 C26.47590014 180.55585832 26.47988493 182.55332039 26.484375 184.55078125 C26.47124265 186.62015732 26.45593374 188.68952061 26.43855286 190.75886536 C26.39887005 196.17244291 26.38852319 201.58568384 26.38452148 206.99938965 C26.37515846 212.53680525 26.33772514 218.07402566 26.30273438 223.61132812 C26.23832854 234.45186015 26.20754721 245.29210106 26.19140625 256.1328125 C15.30140625 256.1328125 4.41140625 256.1328125 -6.80859375 256.1328125 C-6.95859412 223.66436422 -7.10390492 191.19590058 -7.24184135 158.72739891 C-7.25811325 154.89826252 -7.27442886 151.06912632 -7.29077148 147.23999023 C-7.29402441 146.47764578 -7.29727733 145.71530132 -7.30062883 144.92985552 C-7.35347377 132.56975232 -7.40986325 120.20966769 -7.46755195 107.84958626 C-7.52662303 95.17650718 -7.58190987 82.50341571 -7.63364929 69.83030456 C-7.66572146 62.00398175 -7.70078094 54.17768383 -7.73960566 46.35139155 C-7.76901055 40.36037075 -7.79316235 34.36934082 -7.81529999 28.37828827 C-7.82524501 25.91310045 -7.83692802 23.44791897 -7.85042381 20.98274803 C-7.86850921 17.63311558 -7.88050549 14.28351699 -7.8908844 10.93385315 C-7.89768819 9.94457418 -7.90449198 8.9552952 -7.91150194 7.93603808 C-7.91299429 7.04578116 -7.91448664 6.15552424 -7.91602421 5.23828983 C-7.91944169 4.46404008 -7.92285917 3.68979033 -7.92638022 2.89207846 C-7.64033385 -1.38032771 -3.3650955 0.00296354 0 0 Z M151.19140625 3.1328125 C151.19140625 31.1828125 151.19140625 59.2328125 151.19140625 88.1328125 C151.52140625 88.1328125 151.85140625 88.1328125 152.19140625 88.1328125 C152.19140625 60.0828125 152.19140625 32.0328125 152.19140625 3.1328125 C151.86140625 3.1328125 151.53140625 3.1328125 151.19140625 3.1328125 Z " fill="#0C3328" transform="translate(315.80859375,301.8671875)"/>
<path d="M0 0 C1.37634865 -0.00021904 1.37634865 -0.00021904 2.78050232 -0.0004425 C5.8051085 0.00025264 8.82965266 0.00802642 11.85424805 0.01586914 C13.95460476 0.01773473 16.05496191 0.01915797 18.15531921 0.02015686 C23.6774313 0.0239709 29.19951698 0.03379171 34.72161865 0.04486084 C40.35892378 0.05509887 45.99623318 0.05965961 51.63354492 0.06469727 C62.690199 0.07541496 73.74682657 0.09300277 84.8034668 0.11352539 C84.8034668 11.00352539 84.8034668 21.89352539 84.8034668 33.11352539 C82.47840088 33.12810791 80.15333496 33.14269043 77.7578125 33.15771484 C70.03043249 33.20830795 62.30324879 33.27494479 54.5760622 33.3492403 C49.8962664 33.39375242 45.21655383 33.43304942 40.53662109 33.45996094 C36.01065523 33.48618676 31.48501302 33.52672154 26.9592495 33.57671165 C25.24235279 33.59325118 23.52540027 33.6048451 21.80843544 33.6111393 C9.79178448 33.65959959 -2.60441381 33.78991821 -13.2590332 40.11352539 C-14.11625977 40.60852539 -14.97348633 41.10352539 -15.85668945 41.61352539 C-16.62883789 42.10852539 -17.40098633 42.60352539 -18.1965332 43.11352539 C-19.20973633 43.70327148 -19.20973633 43.70327148 -20.2434082 44.30493164 C-23.21609502 47.05763963 -24.65517326 50.42787988 -26.3840332 54.05102539 C-26.73916992 54.76709961 -27.09430664 55.48317383 -27.46020508 56.22094727 C-32.08460562 65.6891222 -32.69471246 75.22709561 -29.5715332 85.42602539 C-26.41592175 93.86700726 -21.47042591 100.51164481 -13.2590332 104.56274414 C-11.7430957 105.17569336 -11.7430957 105.17569336 -10.1965332 105.80102539 C-9.1859082 106.21739258 -8.1752832 106.63375977 -7.1340332 107.06274414 C-1.79027093 108.97427612 3.227003 109.27132949 8.86669922 109.30297852 C9.66400955 109.31127182 10.46131989 109.31956512 11.28279114 109.32810974 C13.00752509 109.34545725 14.73228191 109.36063833 16.45705223 109.37388611 C19.18426431 109.39497122 21.91136079 109.42198624 24.63850403 109.45056152 C31.40744244 109.52027447 38.17646285 109.57987751 44.94549561 109.6395874 C50.67354172 109.69047121 56.40152373 109.7452626 62.12948036 109.80540466 C64.8206099 109.83201997 67.51174535 109.85280459 70.20292664 109.87341309 C71.84476003 109.89000999 73.48659069 109.90688129 75.12841797 109.92407227 C75.88013275 109.92825668 76.63184753 109.9324411 77.40634155 109.93675232 C82.57576425 109.99967412 82.57576425 109.99967412 84.8034668 111.11352539 C84.8034668 158.63352539 84.8034668 206.15352539 84.8034668 255.11352539 C30.6834668 255.11352539 -23.4365332 255.11352539 -79.1965332 255.11352539 C-81.34989791 250.80679597 -80.38238799 245.04027534 -80.38183594 240.25512695 C-80.38402473 238.12178674 -80.4021924 235.98896174 -80.42114258 233.85571289 C-80.42407614 232.50415216 -80.42606118 231.15258897 -80.42700195 229.80102539 C-80.43111084 228.56739258 -80.43521973 227.33375977 -80.43945312 226.06274414 C-80.1965332 223.11352539 -80.1965332 223.11352539 -78.1965332 221.11352539 C-75.36850774 220.90617331 -72.63631967 220.82304737 -69.80639648 220.82641602 C-68.93780502 220.81958298 -68.06921356 220.81274994 -67.17430115 220.80570984 C-65.28256963 220.79209456 -63.390801 220.78305885 -61.49902725 220.77799988 C-58.49620014 220.76971845 -55.4936783 220.74921442 -52.49093628 220.72546387 C-46.10118068 220.67714724 -39.71139396 220.64433752 -33.3215332 220.61352539 C-25.94950934 220.57776251 -18.57763128 220.53553162 -11.2057457 220.47758484 C-8.26353687 220.45767592 -5.32144269 220.44922484 -2.37918091 220.44128418 C13.23619961 220.35424878 28.07844084 220.02135074 40.20581055 208.84008789 C48.57287925 199.79792562 50.30004709 191.05569416 50.11987305 179.00805664 C49.43803198 170.61551912 47.1820139 161.05886906 40.8034668 155.11352539 C31.41003601 147.9523453 21.57582665 144.06444344 9.75268555 143.93774414 C-15.04798582 143.49392642 -34.08863813 140.16658498 -52.1965332 122.11352539 C-63.59583372 109.24274654 -68.57102135 94.56780641 -68.56713867 77.62768555 C-68.57148076 75.51405281 -68.60777738 73.40256691 -68.64575195 71.28930664 C-68.7857924 54.62339406 -62.9929675 38.00926635 -52.1965332 25.11352539 C-51.2065332 24.78352539 -50.2165332 24.45352539 -49.1965332 24.11352539 C-48.8871582 23.47415039 -48.5777832 22.83477539 -48.2590332 22.17602539 C-46.9622994 19.65883624 -45.7743595 19.14465591 -43.1965332 18.11352539 C-43.1965332 17.45352539 -43.1965332 16.79352539 -43.1965332 16.11352539 C-41.20669824 14.58052465 -39.24589645 13.21127355 -37.1340332 11.86352539 C-36.51149658 11.46456055 -35.88895996 11.0655957 -35.24755859 10.65454102 C-24.19549581 3.80576368 -13.0137042 -0.05434174 0 0 Z " fill="#0C3328" transform="translate(857.196533203125,-0.113525390625)"/>
<path d="M0 0 C0.78801498 -0.00137466 1.57602997 -0.00274933 2.38792419 -0.00416565 C3.24316177 -0.00057037 4.09839935 0.0030249 4.97955322 0.00672913 C5.88721939 0.0065831 6.79488556 0.00643707 7.73005676 0.00628662 C10.72763465 0.00698281 13.72515026 0.0147615 16.72271729 0.02259827 C18.80208299 0.02446349 20.88144913 0.0258869 22.96081543 0.02688599 C28.4319785 0.03070295 33.903115 0.04052626 39.37426758 0.05158997 C44.95786174 0.06182171 50.5414602 0.06638739 56.12506104 0.07142639 C67.07950167 0.08214924 78.03391561 0.09973943 88.98834229 0.12025452 C88.98834229 11.01025452 88.98834229 21.90025452 88.98834229 33.12025452 C83.5807251 33.15763733 78.17310791 33.19502014 72.60162354 33.23353577 C69.15172341 33.26385365 65.70187251 33.29502638 62.25201416 33.32923889 C56.79037121 33.38332226 51.32882561 33.43444006 45.86700439 33.46669006 C41.45774352 33.4929247 37.04881437 33.53346525 32.63976097 33.58344078 C30.9675227 33.59997448 29.29522723 33.61157196 27.62291908 33.61786842 C13.17433429 33.67771104 -3.10018873 34.43748807 -14.58978271 44.34291077 C-17.25340976 47.39748952 -19.04326667 50.5494748 -20.76165771 54.18275452 C-21.0645874 54.79441467 -21.36751709 55.40607483 -21.67962646 56.03627014 C-25.82944445 64.56645156 -26.40720755 74.00713948 -24.29290771 83.26869202 C-23.3481879 85.98857083 -22.27553017 88.53430496 -21.01165771 91.12025452 C-20.66103271 91.86017639 -20.31040771 92.60009827 -19.94915771 93.36244202 C-15.75520196 101.0804856 -9.09869974 104.68803564 -0.90179443 107.25404358 C8.13386388 109.73676894 16.97635006 109.72518429 26.29302979 109.72962952 C28.11149543 109.74464545 29.92994761 109.76137962 31.74838257 109.77973938 C36.48617248 109.8230425 41.22377857 109.84332885 45.96173096 109.85847473 C50.81576239 109.87818083 55.6695991 109.92013469 60.52349854 109.96009827 C70.01171916 110.03499808 79.49989538 110.08553168 88.98834229 110.12025452 C89.12866988 120.4488643 89.23462582 130.77723958 89.29921532 141.10661602 C89.33024834 145.90537377 89.37219321 150.70346946 89.440979 155.50184631 C90.19958996 209.87523272 90.19958996 209.87523272 72.97662354 228.26869202 C70.56443271 230.51501511 68.04026694 232.5858314 65.47662354 234.65541077 C63.72277829 236.1597833 63.72277829 236.1597833 62.98834229 239.12025452 C60.93146841 240.70749534 58.92718167 242.11375968 56.73834229 243.49525452 C56.11153564 243.89301086 55.484729 244.29076721 54.83892822 244.70057678 C42.87356382 252.06699839 30.20472433 255.46655301 16.22418213 255.3473053 C15.30588623 255.34759735 14.38759033 255.3478894 13.44146729 255.34819031 C10.44397107 255.34681089 7.4467319 255.33131588 4.44927979 255.31556702 C2.35607031 255.31183194 0.26285907 255.30898731 -1.83035278 255.30699158 C-7.31132931 255.29939408 -12.79219806 255.2797793 -18.27313232 255.25758362 C-23.87736555 255.23704114 -29.48161636 255.22797196 -35.08587646 255.21791077 C-46.06118396 255.19652945 -57.03641184 255.16244088 -68.01165771 255.12025452 C-70.16502242 250.8135251 -69.1975125 245.04700447 -69.19696045 240.26185608 C-69.19914924 238.12851586 -69.21731691 235.99569086 -69.23626709 233.86244202 C-69.23920065 232.51088129 -69.2411857 231.1593181 -69.24212646 229.80775452 C-69.24623535 228.5741217 -69.25034424 227.34048889 -69.25457764 226.06947327 C-69.01165771 223.12025452 -69.01165771 223.12025452 -67.01165771 221.12025452 C-64.42546167 220.91323869 -61.94401395 220.82975708 -59.355896 220.83314514 C-58.5653331 220.8263121 -57.7747702 220.81947906 -56.96025085 220.81243896 C-55.23876933 220.79882626 -53.51724706 220.78978888 -51.79571915 220.784729 C-49.06171903 220.77644314 -46.3280535 220.7559345 -43.59414673 220.73219299 C-37.77503358 220.68388363 -31.95588621 220.65107708 -26.13665771 220.62025452 C-19.42547293 220.58447156 -12.71444766 220.54219617 -6.00341415 220.48431396 C-3.32711304 220.46443272 -0.65093795 220.45595932 2.02542114 220.44801331 C18.77151057 220.49494747 18.77151057 220.49494747 34.42584229 215.18275452 C35.84703369 214.42671936 35.84703369 214.42671936 37.29693604 213.65541077 C38.1851001 213.1488092 39.07326416 212.64220764 39.98834229 212.12025452 C40.88681885 211.64459045 41.78529541 211.16892639 42.71099854 210.67884827 C45.24427981 208.94509315 45.86957862 207.92489707 46.98834229 205.12025452 C47.60902588 203.91369202 47.60902588 203.91369202 48.24224854 202.68275452 C48.67408447 201.83712952 49.10592041 200.99150452 49.55084229 200.12025452 C49.98525635 199.27462952 50.41967041 198.42900452 50.86724854 197.55775452 C54.85380124 188.89012773 54.39368855 175.93540471 51.36334229 166.99525452 C46.92881442 156.9405785 40.73051899 151.3016305 30.55474854 147.12025452 C23.78520042 144.74577558 17.24952552 143.972887 10.0869751 143.94667053 C9.31877945 143.93998352 8.5505838 143.93329651 7.7591095 143.92640686 C6.10096021 143.91242098 4.44279239 143.90050674 2.78461456 143.89045906 C0.16232958 143.87397763 -2.45981621 143.85074204 -5.08203125 143.82556152 C-12.53392571 143.75494717 -19.98587305 143.69446187 -27.43792725 143.64344788 C-32.00310444 143.61172531 -36.56811399 143.5704822 -41.13315582 143.52325249 C-42.8731105 143.50720944 -44.61310365 143.49489855 -46.35311127 143.48634529 C-48.77820491 143.47424207 -51.20290047 143.45011884 -53.62786865 143.42323303 C-54.34996017 143.42264389 -55.0720517 143.42205475 -55.81602478 143.42144775 C-60.78374647 143.34816576 -60.78374647 143.34816576 -63.01165771 141.12025452 C-63.27908325 138.06419373 -63.27908325 138.06419373 -63.30218506 134.07875061 C-63.31226089 132.99032616 -63.31226089 132.99032616 -63.32254028 131.87991333 C-63.34161325 129.46777058 -63.34545161 127.05590564 -63.34759521 124.64369202 C-63.35402571 122.95852038 -63.36075426 121.27334986 -63.36776733 119.58818054 C-63.37976957 116.04220503 -63.38344604 112.49632704 -63.38226318 108.95033264 C-63.38206187 104.44975369 -63.40915304 99.94981969 -63.4438076 95.44939232 C-63.46629389 91.95904296 -63.47009387 88.46884219 -63.46904373 84.97842789 C-63.47137531 83.32256003 -63.48005771 81.66668649 -63.49570847 80.01089096 C-63.61740163 65.78237738 -61.9791844 52.20554733 -55.01165771 39.49525452 C-54.68165771 38.85459045 -54.35165771 38.21392639 -54.01165771 37.55384827 C-48.38561893 26.80723513 -48.38561893 26.80723513 -45.01165771 25.12025452 C-43.46166523 23.39756092 -42.01208077 21.60670628 -40.54681396 19.81166077 C-39.01165771 18.12025452 -39.01165771 18.12025452 -36.01165771 16.12025452 C-35.33103271 15.54275452 -34.65040771 14.96525452 -33.94915771 14.37025452 C-24.5813412 7.19490569 -12.13139675 -0.01639378 0 0 Z M-62.01165771 64.12025452 C-61.01165771 67.12025452 -61.01165771 67.12025452 -61.01165771 67.12025452 Z M54.98834229 180.12025452 C54.98834229 181.77025452 54.98834229 183.42025452 54.98834229 185.12025452 C55.31834229 185.12025452 55.64834229 185.12025452 55.98834229 185.12025452 C55.98834229 183.47025452 55.98834229 181.82025452 55.98834229 180.12025452 C55.65834229 180.12025452 55.32834229 180.12025452 54.98834229 180.12025452 Z " fill="#0C3328" transform="translate(1191.0116577148438,-0.1202545166015625)"/>
<path d="M0 0 C1.45779377 0.00119536 2.91558833 0.00164421 4.37338257 0.00138855 C7.400502 0.00293888 10.42750073 0.0111237 13.45458984 0.0246582 C17.33723427 0.04179899 21.21974867 0.04546742 25.10242653 0.04471302 C28.09977461 0.04498429 31.0970942 0.05045602 34.09443283 0.05771446 C35.52739624 0.06089576 36.96036287 0.06286728 38.39332962 0.06360817 C40.38413914 0.0657688 42.37493659 0.07530172 44.36572266 0.08520508 C46.0634935 0.09092278 46.0634935 0.09092278 47.79556274 0.09675598 C50.4609375 0.23046875 50.4609375 0.23046875 52.4609375 1.23046875 C52.4609375 12.12046875 52.4609375 23.01046875 52.4609375 34.23046875 C48.19414062 34.25625 43.92734375 34.28203125 39.53125 34.30859375 C36.07521017 34.34038893 32.61925685 34.37604565 29.1632843 34.41426086 C25.54487473 34.45323587 21.92669742 34.48580488 18.30810547 34.50146484 C-9.65541828 34.63149269 -31.50415812 38.36048196 -55.5390625 53.23046875 C-56.43238281 53.75125 -57.32570313 54.27203125 -58.24609375 54.80859375 C-60.62172475 56.16093269 -60.62172475 56.16093269 -62.5390625 58.23046875 C-68.5390625 64.23046875 -68.5390625 64.23046875 -74.5390625 70.23046875 C-75.77179495 72.23246447 -76.86730468 74.29438769 -77.984375 76.36328125 C-79.11916635 78.4560874 -80.28502738 80.53213217 -81.46875 82.59765625 C-93.88277915 104.52005217 -97.7564489 128.8007603 -91.01220703 153.29394531 C-87.55761369 164.83933725 -82.38109902 176.58273394 -74.5703125 185.84765625 C-73.5390625 187.23046875 -73.5390625 187.23046875 -73.5390625 189.23046875 C-72.5490625 189.56046875 -71.5590625 189.89046875 -70.5390625 190.23046875 C-69.1015625 191.796875 -69.1015625 191.796875 -67.5390625 193.79296875 C-54.20969529 209.33927854 -32.36010934 217.54464762 -12.5390625 220.23046875 C-7.61036278 220.52134805 -2.69031082 220.55440894 2.24609375 220.57421875 C3.63806768 220.58788852 5.030031 220.6026798 6.42198181 220.61853027 C11.53468922 220.67438705 16.6474958 220.71030185 21.76037598 220.74615479 C26.11106013 220.77736843 30.46152957 220.8164647 34.81204033 220.8664093 C36.84510524 220.88646241 38.878005 220.89478599 40.91114807 220.90270996 C42.74962563 220.92283142 42.74962563 220.92283142 44.62524414 220.94335938 C46.24759727 220.95429626 46.24759727 220.95429626 47.90272522 220.9654541 C50.4609375 221.23046875 50.4609375 221.23046875 52.4609375 223.23046875 C52.63589356 225.73967721 52.69263319 228.13671816 52.65625 230.64453125 C52.6534201 231.37417084 52.65059021 232.10381042 52.64767456 232.8555603 C52.63646752 235.18902903 52.6113626 237.52211578 52.5859375 239.85546875 C52.57590835 241.43619238 52.56678239 243.01692202 52.55859375 244.59765625 C52.53652655 248.47540789 52.50199365 252.35287353 52.4609375 256.23046875 C43.99215299 256.34788294 35.5237253 256.43593469 27.05432034 256.48952961 C23.11884137 256.51529168 19.18393105 256.55005108 15.2487793 256.60766602 C-25.86087326 257.19336401 -61.1849542 248.4237478 -91.578125 219.15625 C-113.00050832 198.11029833 -129.40402679 168.59402459 -129.7421875 137.953125 C-129.75999126 135.80294396 -129.77357622 133.65293495 -129.77929688 131.50268555 C-129.78889813 129.33016091 -129.81991868 127.15862717 -129.8515625 124.98632812 C-130.07364407 95.88038322 -118.31847222 64.66333304 -97.98828125 43.5859375 C-96.11671998 41.78601494 -94.27098927 40.13307846 -92.2265625 38.54296875 C-90.89625 37.39828125 -90.89625 37.39828125 -89.5390625 36.23046875 C-89.5390625 35.57046875 -89.5390625 34.91046875 -89.5390625 34.23046875 C-87.54622112 32.88645945 -85.54486579 31.55505583 -83.5390625 30.23046875 C-82.8171875 29.47121094 -82.0953125 28.71195312 -81.3515625 27.9296875 C-77.92590985 24.64201253 -74.2786209 22.29959494 -70.2265625 19.85546875 C-69.43258057 19.37577637 -68.63859863 18.89608398 -67.82055664 18.40185547 C-46.75179547 5.92706903 -24.48791153 -0.13421742 0 0 Z " fill="#0C3328" transform="translate(229.5390625,301.76953125)"/>
<path d="M0 0 C0.33 0 0.66 0 1 0 C1 83.82 1 167.64 1 254 C0.67 254 0.34 254 0 254 C0 170.18 0 86.36 0 0 Z " fill="#0D3429" transform="translate(940,304)"/>
<path d="M0 0 C0.33 0 0.66 0 1 0 C1 83.82 1 167.64 1 254 C0.67 254 0.34 254 0 254 C0 170.18 0 86.36 0 0 Z " fill="#0D3429" transform="translate(776,304)"/>
<path d="M0 0 C0.33 0 0.66 0 1 0 C1 82.5 1 165 1 250 C0.67 250 0.34 250 0 250 C0 167.5 0 85 0 0 Z " fill="#0D3429" transform="translate(307,304)"/>
<path d="M0 0 C0.33 0 0.66 0 1 0 C1 5.94 1 11.88 1 18 C0.67 18 0.34 18 0 18 C0 12.06 0 6.12 0 0 Z " fill="#0D3429" transform="translate(788,66)"/>
<path d="M0 0 C0.33 0 0.66 0 1 0 C1 4.29 1 8.58 1 13 C0.67 13 0.34 13 0 13 C0 8.71 0 4.42 0 0 Z " fill="#0D3429" transform="translate(99,424)"/>
<path d="M0 0 C0 3 0 3 -2 5.1875 C-2.66 5.785625 -3.32 6.38375 -4 7 C-4.66 6.67 -5.32 6.34 -6 6 C-4.02 4.02 -2.04 2.04 0 0 Z " fill="#061812" transform="translate(734,214)"/>
<path d="M0 0 C0.33 0.66 0.66 1.32 1 2 C0.34 1.67 -0.32 1.34 -1 1 C-0.67 0.67 -0.34 0.34 0 0 Z " fill="#04120D" transform="translate(606,442)"/>
<path d="M0 0 C0.33 0.66 0.66 1.32 1 2 C0.34 1.67 -0.32 1.34 -1 1 C-0.67 0.67 -0.34 0.34 0 0 Z " fill="#04120D" transform="translate(812,351)"/>
<path d="" fill="#0D3429" transform="translate(0,0)"/>
<path d="" fill="#000100" transform="translate(0,0)"/>
<path d="" fill="#000100" transform="translate(0,0)"/>
<path d="" fill="#000100" transform="translate(0,0)"/>
<path d="" fill="#000100" transform="translate(0,0)"/>
<path d="" fill="#000100" transform="translate(0,0)"/>
<path d="" fill="#000100" transform="translate(0,0)"/>
<path d="" fill="#0D3429" transform="translate(0,0)"/>
<path d="" fill="#0D3429" transform="translate(0,0)"/>
<path d="" fill="#0D3429" transform="translate(0,0)"/>
<path d="" fill="#0D3429" transform="translate(0,0)"/>
<path d="" fill="#0D3429" transform="translate(0,0)"/>
<path d="" fill="#000100" transform="translate(0,0)"/>
<path d="" fill="#000100" transform="translate(0,0)"/>
<path d="" fill="#000100" transform="translate(0,0)"/>
<path d="" fill="#000100" transform="translate(0,0)"/>
<path d="" fill="#000100" transform="translate(0,0)"/>
<path d="" fill="#000100" transform="translate(0,0)"/>
<path d="" fill="#000100" transform="translate(0,0)"/>
<path d="" fill="#000100" transform="translate(0,0)"/>
<path d="" fill="#000100" transform="translate(0,0)"/>
<path d="" fill="#000100" transform="translate(0,0)"/>
<path d="" fill="#000100" transform="translate(0,0)"/>
<path d="" fill="#0D3429" transform="translate(0,0)"/>
<path d="" fill="#0D3429" transform="translate(0,0)"/>
<path d="" fill="#0D3429" transform="translate(0,0)"/>
<path d="" fill="#0D3429" transform="translate(0,0)"/>
<path d="" fill="#0D3429" transform="translate(0,0)"/>
<path d="" fill="#0D3429" transform="translate(0,0)"/>
<path d="" fill="#0D3429" transform="translate(0,0)"/>
<path d="" fill="#000100" transform="translate(0,0)"/>
<path d="" fill="#000100" transform="translate(0,0)"/>
<path d="" fill="#000100" transform="translate(0,0)"/>
<path d="" fill="#000100" transform="translate(0,0)"/>
<path d="" fill="#000100" transform="translate(0,0)"/>
<path d="" fill="#000100" transform="translate(0,0)"/>
<path d="" fill="#000100" transform="translate(0,0)"/>
<path d="" fill="#000100" transform="translate(0,0)"/>
<path d="" fill="#000100" transform="translate(0,0)"/>
<path d="" fill="#000100" transform="translate(0,0)"/>
<path d="" fill="#000100" transform="translate(0,0)"/>
<path d="" fill="#000100" transform="translate(0,0)"/>
<path d="" fill="#0D3429" transform="translate(0,0)"/>
<path d="" fill="#0D3429" transform="translate(0,0)"/>
<path d="" fill="#0D3429" transform="translate(0,0)"/>
<path d="" fill="#0D3429" transform="translate(0,0)"/>
<path d="" fill="#0D3429" transform="translate(0,0)"/>
<path d="" fill="#0D3429" transform="translate(0,0)"/>
<path d="" fill="#000100" transform="translate(0,0)"/>
<path d="" fill="#000100" transform="translate(0,0)"/>
<path d="" fill="#000100" transform="translate(0,0)"/>
<path d="" fill="#000100" transform="translate(0,0)"/>
<path d="" fill="#000100" transform="translate(0,0)"/>
<path d="" fill="#000100" transform="translate(0,0)"/>
<path d="" fill="#000100" transform="translate(0,0)"/>
<path d="" fill="#000100" transform="translate(0,0)"/>
<path d="" fill="#0D3429" transform="translate(0,0)"/>
<path d="" fill="#0D3429" transform="translate(0,0)"/>
<path d="" fill="#0D3429" transform="translate(0,0)"/>
<path d="" fill="#0D3429" transform="translate(0,0)"/>
<path d="" fill="#0D3429" transform="translate(0,0)"/>
<path d="" fill="#0D3429" transform="translate(0,0)"/>
<path d="" fill="#0D3429" transform="translate(0,0)"/>
<path d="" fill="#0D3429" transform="translate(0,0)"/>
<path d="" fill="#0D3429" transform="translate(0,0)"/>
<path d="" fill="#0D3429" transform="translate(0,0)"/>
<path d="" fill="#0D3429" transform="translate(0,0)"/>
<path d="" fill="#0D3429" transform="translate(0,0)"/>
<path d="" fill="#0D3429" transform="translate(0,0)"/>
<path d="" fill="#0D3429" transform="translate(0,0)"/>
<path d="" fill="#0D3429" transform="translate(0,0)"/>
<path d="" fill="#0D3429" transform="translate(0,0)"/>
<path d="" fill="#0D3429" transform="translate(0,0)"/>
<path d="" fill="#0D3429" transform="translate(0,0)"/>
<path d="" fill="#0D3429" transform="translate(0,0)"/>
<path d="" fill="#0D3429" transform="translate(0,0)"/>
<path d="" fill="#0D3429" transform="translate(0,0)"/>
<path d="" fill="#0D3429" transform="translate(0,0)"/>
<path d="" fill="#0D3429" transform="translate(0,0)"/>
<path d="" fill="#0D3429" transform="translate(0,0)"/>
</svg>
