<svg width="40" height="40" viewBox="0 0 130 131" fill="none" xmlns="http://www.w3.org/2000/svg">
<!-- <rect y="0.844604" width="130" height="130" fill="#F0EBDE"/> -->
<path fill-rule="evenodd" clip-rule="evenodd" d="M101.428 93.2997C98.5124 96.2479 94.5611 97.9098 90.4375 97.9222H38.5625C37.1867 97.9222 35.8672 98.4748 34.8944 99.4585C33.9215 100.442 33.375 101.776 33.375 103.167C33.375 104.558 33.9215 105.893 34.8944 106.876C35.8672 107.86 37.1867 108.413 38.5625 108.413H100.812C102.188 108.413 103.508 108.965 104.481 109.949C105.453 110.932 106 112.267 106 113.658C106 115.049 105.453 116.383 104.481 117.367C103.508 118.35 102.188 118.903 100.812 118.903H38.5625C34.4351 118.903 30.4767 117.245 27.5582 114.294C24.6396 111.343 23 107.341 23 103.167V29.7354C23.0123 25.566 24.6559 21.5708 27.5718 18.6226C30.4876 15.6743 34.4389 14.0125 38.5625 14H90.4375C94.5611 14.0125 98.5124 15.6743 101.428 18.6226C104.344 21.5708 105.988 25.566 106 29.7354V82.1868C105.988 86.3563 104.344 90.3514 101.428 93.2997Z" fill="#FFFFFF"/>
<path d="M51.5343 52.4848C51.5159 51.317 51.8957 50.1777 52.6111 49.2545L59.9547 56.5981C59.0291 57.309 57.8914 57.6882 56.7244 57.6749C55.3496 57.6692 54.0328 57.1206 53.0607 56.1485C52.0886 55.1764 51.54 53.8596 51.5343 52.4848Z" fill="#3E6957"/>
<path d="M73.3829 57.6695C74.0704 57.6723 74.7518 57.5391 75.3876 57.2774C76.0235 57.0158 76.6012 56.6309 77.0877 56.145C77.5741 55.659 77.9596 55.0817 78.2219 54.4461C78.4842 53.8105 78.6181 53.1293 78.616 52.4417C78.6289 51.2748 78.2497 50.1373 77.5392 49.2114L70.1741 56.5766C71.0896 57.2927 72.2205 57.6779 73.3829 57.6695Z" fill="#3E6957"/>
<path d="M79.0635 47.7195C80.1956 49.049 80.8178 50.738 80.8186 52.4843C80.8172 54.4481 80.036 56.331 78.6469 57.7192C77.2577 59.1073 75.3743 59.8871 73.4104 59.8871C71.6733 59.889 69.9914 59.2769 68.6618 58.1589L65.0977 61.723L61.5336 58.1589C60.2032 59.2789 58.5188 59.8912 56.7797 59.8871C55.805 59.8906 54.8392 59.7018 53.9376 59.3314C53.0361 58.961 52.2165 58.4164 51.5258 57.7287C50.8351 57.041 50.2869 56.2238 49.9126 55.3238C49.5383 54.4239 49.3452 53.4589 49.3445 52.4843C49.3459 50.7461 49.9576 49.0636 51.0728 47.7303L49.4091 46.0667L47.8209 44.4515C45.9077 47.5972 44.898 51.2091 44.9028 54.8908C44.9021 57.5372 45.423 60.1577 46.4355 62.6026C47.448 65.0476 48.9325 67.269 50.8039 69.14C52.6754 71.011 54.8973 72.4948 57.3425 73.5067C59.7877 74.5186 62.4083 75.0387 65.0546 75.0373C70.3951 75.0358 75.5167 72.9152 79.295 69.141C83.0732 65.3667 85.1993 60.2474 85.2065 54.907C85.2397 51.2258 84.2399 47.6091 82.3207 44.4677L79.0635 47.7195Z" fill="#3E6957"/>
<path d="M79.6489 40.9953C77.7697 39.0195 75.508 37.4469 73.0015 36.3732C70.495 35.2995 67.7962 34.7472 65.0694 34.75C62.3421 34.7487 59.6429 35.3016 57.1358 36.3752C54.6286 37.4487 52.3657 39.0206 50.4845 40.9953C49.9946 41.5337 49.5155 42.0721 49.0686 42.6481L65.0533 58.6274L81.038 42.632C80.6159 42.0529 80.1517 41.5059 79.6489 40.9953Z" fill="#3E6957"/>
</svg>
