<?xml version="1.0" encoding="utf-8"?>
<!-- Generator: Adobe Illustrator 27.0.1, SVG Export Plug-In . SVG Version: 6.00 Build 0)  -->
<svg version="1.1" id="Layer_1" xmlns="http://www.w3.org/2000/svg" xmlns:xlink="http://www.w3.org/1999/xlink" x="0px" y="0px"
	 viewBox="0 0 154 183" style="enable-background:new 0 0 154 183;" xml:space="preserve">
<style type="text/css">
	.st0{fill:#3E6957;}
</style>
<g>
	<path class="st0" d="M58.4,102c3.5,0,6.8-1.1,9.6-3.2l-7-7c-5.7,0-11.4,0-17,0c0.8,2.1,2,4.1,3.6,5.7C50.4,100.4,54.3,102,58.4,102
		z"/>
	<path class="st0" d="M108.9,102c2.1,0,4.2-0.4,6.2-1.2c2-0.8,3.7-1.9,5.2-3.3s2.7-3.1,3.5-5c0.1-0.2,0.2-0.5,0.3-0.7h-17.8l-7.3,7
		C101.8,100.9,105.3,102,108.9,102z"/>
	<path class="st0" d="M139,91.8c-1.1,0-2.1,0-3.2,0H131c-1,4-3,7.6-5.9,10.6c-4.2,4.2-9.9,6.6-15.9,6.6c-5.3,0-10.3-1.9-14.4-5.3
		L84,114.5l-10.8-10.8c-4,3.4-9.1,5.3-14.4,5.3c-3,0-5.9-0.6-8.6-1.7c-2.7-1.1-5.2-2.8-7.3-4.9s-3.8-4.6-4.9-7.3
		c-0.4-1.1-0.8-2.2-1-3.3c-4.7,0-9.4,0-14.1,0c0,0.7,0,1.3,0,2c0,2.1,0.1,4.1,0.3,6.2c1.9,0.4,3.7,1,5.3,2.1c3.7,2.3,6,5.7,6.7,9.9
		c0.3,2,0.2,4.1-0.3,6.2c4.9,4.4,9.8,8.9,14.8,13.3l19.1,17.2c0.6,0.6,1.2,1.1,1.8,1.7c2.9-0.7,5.7-0.7,8.5-0.1
		c3.3,0.7,6.1,2.4,8.2,4.7c14.9-0.8,29.1-7.2,39.7-17.8c11.4-11.5,17.9-27,17.9-43.3c0-0.7,0-1.3,0-2C143,91.8,141,91.8,139,91.8z"
		/>
	<path class="st0" d="M96.8,91.8h-14h-2l0,0c-3.5,0-7.1,0-10.6,0L83.5,105L96.8,91.8z"/>
	<path class="st0" d="M99.8,46.5L99.8,46.5c0,0.3-0.1,0.6-0.1,0.9c-0.1,1-0.2,2-0.3,3l0,0c-0.1,1.8,1.1,3.1,2.8,3.3l0,0
		c1.4,0.1,2.9-1,3.1-2.7l0,0c0.3-2,0.5-4,0.7-6c0.1-1,0.2-2,0.3-2.9l0,0c0.6-5.7,1.3-11.4,1.9-17.1h-6c-0.3,2.4-0.5,4.8-0.8,7.2
		C100.9,36.9,100.3,41.7,99.8,46.5z"/>
	<path class="st0" d="M59.6,50.8L59.6,50.8c0.2,1.8,1.7,3,3.1,2.8c1.7-0.2,2.9-1.5,2.8-3.3l0,0c-0.4-4.5-0.9-9.1-1.5-13.6
		c-0.2-1.5-0.3-2.9-0.5-4.4l0,0c-0.3-2.5-0.6-5-0.8-7.5h-6c0.3,2.5,0.6,5,0.8,7.6C58.2,38.5,58.9,44.7,59.6,50.8z"/>
	<path class="st0" d="M152,82.1L152,82.1c-0.2-2.8-2.5-5.1-6.3-5.1H20.3c-0.1,0-0.2,0-0.3,0l0,0c-0.3,0-0.6,0-0.8,0l0,0l0,0
		c-3,0.2-5.2,2.6-5.2,5.4c0,3,2.4,5.4,6,5.4l0,0c15.7,0,31.5,0,47.2,0c5.2,0,10.5,0,15.7,0h2l0,0h51c1.1,0,2.2,0,3.2,0
		c2.5,0,4.9,0,7.4,0l0,0C149.8,87.7,152.2,85.1,152,82.1z"/>
	<path class="st0" d="M101.8,57.6L101.8,57.6c-3.8-0.4-6.6-3.5-6.4-7.4l0,0l0,0l0,0l0,0c0-1.1,0.2-2.2,0.3-3.3
		c0-0.3,0.1-0.6,0.1-0.9l0,0c0.5-4.8,1.1-9.6,1.6-14.4c1-8.7,1.9-17.3,2.9-26l0,0c0.1-1.2-0.2-2-0.7-2.6s-1.3-1-2.5-1
		c-9.8,0-19.6,0-29.4,0c-1.2,0-2,0.4-2.5,1s-0.8,1.5-0.7,2.6c0.6,5.6,1.2,11.1,1.9,16.7c0.4,3.2,0.7,6.4,1.1,9.6l0,0
		c0.2,1.5,0.3,2.9,0.5,4.4c0.5,4.5,1,9.1,1.5,13.7l0,0c0.4,4.1-2.5,7.3-6.4,7.7l0,0c-3.8,0.4-7.1-2.6-7.5-6.4l0,0
		c-0.7-6.1-1.4-12.3-2-18.4c-0.4-3.4-0.8-6.9-1.1-10.3l0,0c-0.2-1.9-0.4-3.8-0.7-5.7C41.9,23.8,34.7,32.8,30,44l0,0
		c-3.9,9.3-5.6,19-5.2,29h115.3c0.4-11.3-1.7-22.1-6.7-32.2l0,0c-4.7-9.7-11.4-17.7-20.3-24c-1,8.7-1.9,17.1-2.8,25.6l0,0
		c-0.1,1-0.2,1.9-0.3,2.9c-0.2,2-0.4,4.1-0.7,6.1C108.8,55.1,105.5,58,101.8,57.6z"/>
	<path class="st0" d="M78.4,154.1c-2.5-0.5-5.1-0.4-7.6,0.3l-1.1,0.3l-0.8-0.8c-0.9-0.8-1.8-1.6-2.6-2.4l-1.7-1.5l-17.4-15.7
		c-5.2-4.7-10.5-9.4-15.7-14.2l-1-0.9l0.1-0.3l0,0v-0.1l0,0v-0.1l0.3-0.8c0.6-1.9,0.8-3.7,0.5-5.5c-0.5-3.1-2.1-5.5-4.8-7.1
		c-2.5-1.5-5.3-2.1-8.6-1.7c-0.3,0-0.6,0.1-0.9,0.1l-0.4,0.1l1.4,1.9c1.2,1.6,2.4,3.3,3.7,5c0.6,0.8,0.9,1.8,0.7,2.7
		c-0.1,0.5-0.5,1.5-1.7,2.3l-1.3,0.8c-0.8,0.5-1.6,1-2.4,1.5c-1.3,0.8-2.7,0.9-3.9,0.3l-0.4,0.3l-2.4-3.2l0,0l-3.6-4.9l-0.1,0.1
		c-2,3-2.8,5.9-2.3,9c0.6,4.1,3.8,7.4,8.3,8.4c2.5,0.6,8.3-1.1,8.3-1.1l22.6,20.4l0,0l4.8,4.3c3.8,3.5,7.7,6.9,11.5,10.4l0.5,0.4H61
		l-0.1,0.6l-0.1,0.3l0,0l-0.3,0.8c-0.6,1.8-0.8,3.6-0.5,5.3c0.5,3.3,2.3,5.8,5.3,7.5c2.3,1.3,4.9,1.7,8,1.4c0.4,0,0.8-0.1,1.1-0.2
		l0.5-0.1l-0.3-0.4l-1.5-2c-1.1-1.5-2.3-3.1-3.4-4.6c-0.6-0.8-0.8-1.7-0.6-2.6c0.2-0.9,0.8-1.7,1.7-2.3c1.3-0.8,2.6-1.6,3.9-2.4
		c1.8-1.1,4.2-0.7,5.4,1l4.8,6.5L85,171c2-2.9,2.7-5.9,2.2-9C86.1,158.4,82.7,155,78.4,154.1z"/>
</g>
</svg>
