<svg id="generated" width="100%" xmlns="http://www.w3.org/2000/svg" xmlns:xlink="http://www.w3.org/1999/xlink" style="max-width: 2013px;" viewBox="-50 -10 2013 2147" role="graphics-document document" aria-roledescription="sequence"><g><rect x="1190" y="-5" fill="transparent" stroke="rgb(0,0,0, 0.5)" width="743" height="2141" class="rect"/><text x="1561.5" y="14" dominant-baseline="central" alignment-baseline="central" class="text" style="text-anchor: middle; font-size: 16px; font-weight: 400; font-family: Arial;"><tspan x="1561.5" dy="0">Gnosis Chain</tspan></text></g><g><rect x="-20" y="-5" fill="transparent" stroke="rgb(0,0,0, 0.5)" width="1190" height="2141" class="rect"/><text x="575" y="14" dominant-baseline="central" alignment-baseline="central" class="text" style="text-anchor: middle; font-size: 16px; font-weight: 400; font-family: Arial;"><tspan x="575" dy="0">Ethereum</tspan></text></g><g><rect x="1758" y="2051" fill="#eaeaea" stroke="#666" width="150" height="65" name="Receiver" rx="3" ry="3" class="actor actor-bottom"/><text x="1833" y="2083.5" dominant-baseline="central" alignment-baseline="central" class="actor actor-box" style="text-anchor: middle; font-size: 16px; font-weight: 400; font-family: Arial;"><tspan x="1833" dy="0">Receiver</tspan></text></g><g><rect x="1529" y="2051" fill="#eaeaea" stroke="#666" width="179" height="65" name="USDSDepositContract" rx="3" ry="3" class="actor actor-bottom"/><text x="1618.5" y="2083.5" dominant-baseline="central" alignment-baseline="central" class="actor actor-box" style="text-anchor: middle; font-size: 16px; font-weight: 400; font-family: Arial;"><tspan x="1618.5" dy="0">USDSDepositContract</tspan></text></g><g><rect x="1215" y="2051" fill="#eaeaea" stroke="#666" width="264" height="65" name="GnosisChain" rx="3" ry="3" class="actor actor-bottom"/><text x="1347" y="2083.5" dominant-baseline="central" alignment-baseline="central" class="actor actor-box" style="text-anchor: middle; font-size: 16px; font-weight: 400; font-family: Arial;"><tspan x="1347" dy="0">xDaiHomeBridge on Gnosis Chain</tspan></text></g><g><rect x="990" y="2051" fill="#eaeaea" stroke="#666" width="155" height="65" name="XDaiForeignBridge" rx="3" ry="3" class="actor actor-bottom"/><text x="1067.5" y="2083.5" dominant-baseline="central" alignment-baseline="central" class="actor actor-box" style="text-anchor: middle; font-size: 16px; font-weight: 400; font-family: Arial;"><tspan x="1067.5" dy="0">XDaiForeignBridge</tspan></text></g><g><rect x="790" y="2051" fill="#eaeaea" stroke="#666" width="150" height="65" name="DaiUsds" rx="3" ry="3" class="actor actor-bottom"/><text x="865" y="2083.5" dominant-baseline="central" alignment-baseline="central" class="actor actor-box" style="text-anchor: middle; font-size: 16px; font-weight: 400; font-family: Arial;"><tspan x="865" dy="0">DaiUsds</tspan></text></g><g><rect x="566" y="2051" fill="#eaeaea" stroke="#666" width="174" height="65" name="XDaiBridgePeripheral" rx="3" ry="3" class="actor actor-bottom"/><text x="653" y="2083.5" dominant-baseline="central" alignment-baseline="central" class="actor actor-box" style="text-anchor: middle; font-size: 16px; font-weight: 400; font-family: Arial;"><tspan x="653" dy="0">XDaiBridgePeripheral</tspan></text></g><g><rect x="366" y="2051" fill="#eaeaea" stroke="#666" width="150" height="65" name="BridgeRouter" rx="3" ry="3" class="actor actor-bottom"/><text x="441" y="2083.5" dominant-baseline="central" alignment-baseline="central" class="actor actor-box" style="text-anchor: middle; font-size: 16px; font-weight: 400; font-family: Arial;"><tspan x="441" dy="0">BridgeRouter</tspan></text></g><g><rect x="5" y="2051" fill="#eaeaea" stroke="#666" width="150" height="65" name="User" rx="3" ry="3" class="actor actor-bottom"/><text x="80" y="2083.5" dominant-baseline="central" alignment-baseline="central" class="actor actor-box" style="text-anchor: middle; font-size: 16px; font-weight: 400; font-family: Arial;"><tspan x="80" dy="0">User</tspan></text></g><g><line id="actor7" x1="1833" y1="93" x2="1833" y2="2051" class="actor-line 200" stroke-width="0.5px" stroke="#999" name="Receiver"/><g id="root-7"><rect x="1758" y="28" fill="#eaeaea" stroke="#666" width="150" height="65" name="Receiver" rx="3" ry="3" class="actor actor-top"/><text x="1833" y="60.5" dominant-baseline="central" alignment-baseline="central" class="actor actor-box" style="text-anchor: middle; font-size: 16px; font-weight: 400; font-family: Arial;"><tspan x="1833" dy="0">Receiver</tspan></text></g></g><g><line id="actor6" x1="1618.5" y1="93" x2="1618.5" y2="2051" class="actor-line 200" stroke-width="0.5px" stroke="#999" name="USDSDepositContract"/><g id="root-6"><rect x="1529" y="28" fill="#eaeaea" stroke="#666" width="179" height="65" name="USDSDepositContract" rx="3" ry="3" class="actor actor-top"/><text x="1618.5" y="60.5" dominant-baseline="central" alignment-baseline="central" class="actor actor-box" style="text-anchor: middle; font-size: 16px; font-weight: 400; font-family: Arial;"><tspan x="1618.5" dy="0">USDSDepositContract</tspan></text></g></g><g><line id="actor5" x1="1347" y1="93" x2="1347" y2="2051" class="actor-line 200" stroke-width="0.5px" stroke="#999" name="GnosisChain"/><g id="root-5"><rect x="1215" y="28" fill="#eaeaea" stroke="#666" width="264" height="65" name="GnosisChain" rx="3" ry="3" class="actor actor-top"/><text x="1347" y="60.5" dominant-baseline="central" alignment-baseline="central" class="actor actor-box" style="text-anchor: middle; font-size: 16px; font-weight: 400; font-family: Arial;"><tspan x="1347" dy="0">xDaiHomeBridge on Gnosis Chain</tspan></text></g></g><g><line id="actor4" x1="1067.5" y1="93" x2="1067.5" y2="2051" class="actor-line 200" stroke-width="0.5px" stroke="#999" name="XDaiForeignBridge"/><g id="root-4"><rect x="990" y="28" fill="#eaeaea" stroke="#666" width="155" height="65" name="XDaiForeignBridge" rx="3" ry="3" class="actor actor-top"/><text x="1067.5" y="60.5" dominant-baseline="central" alignment-baseline="central" class="actor actor-box" style="text-anchor: middle; font-size: 16px; font-weight: 400; font-family: Arial;"><tspan x="1067.5" dy="0">XDaiForeignBridge</tspan></text></g></g><g><line id="actor3" x1="865" y1="93" x2="865" y2="2051" class="actor-line 200" stroke-width="0.5px" stroke="#999" name="DaiUsds"/><g id="root-3"><rect x="790" y="28" fill="#eaeaea" stroke="#666" width="150" height="65" name="DaiUsds" rx="3" ry="3" class="actor actor-top"/><text x="865" y="60.5" dominant-baseline="central" alignment-baseline="central" class="actor actor-box" style="text-anchor: middle; font-size: 16px; font-weight: 400; font-family: Arial;"><tspan x="865" dy="0">DaiUsds</tspan></text></g></g><g><line id="actor2" x1="653" y1="93" x2="653" y2="2051" class="actor-line 200" stroke-width="0.5px" stroke="#999" name="XDaiBridgePeripheral"/><g id="root-2"><rect x="566" y="28" fill="#eaeaea" stroke="#666" width="174" height="65" name="XDaiBridgePeripheral" rx="3" ry="3" class="actor actor-top"/><text x="653" y="60.5" dominant-baseline="central" alignment-baseline="central" class="actor actor-box" style="text-anchor: middle; font-size: 16px; font-weight: 400; font-family: Arial;"><tspan x="653" dy="0">XDaiBridgePeripheral</tspan></text></g></g><g><line id="actor1" x1="441" y1="93" x2="441" y2="2051" class="actor-line 200" stroke-width="0.5px" stroke="#999" name="BridgeRouter"/><g id="root-1"><rect x="366" y="28" fill="#eaeaea" stroke="#666" width="150" height="65" name="BridgeRouter" rx="3" ry="3" class="actor actor-top"/><text x="441" y="60.5" dominant-baseline="central" alignment-baseline="central" class="actor actor-box" style="text-anchor: middle; font-size: 16px; font-weight: 400; font-family: Arial;"><tspan x="441" dy="0">BridgeRouter</tspan></text></g></g><g><line id="actor0" x1="80" y1="93" x2="80" y2="2051" class="actor-line 200" stroke-width="0.5px" stroke="#999" name="User"/><g id="root-0"><rect x="5" y="28" fill="#eaeaea" stroke="#666" width="150" height="65" name="User" rx="3" ry="3" class="actor actor-top"/><text x="80" y="60.5" dominant-baseline="central" alignment-baseline="central" class="actor actor-box" style="text-anchor: middle; font-size: 16px; font-weight: 400; font-family: Arial;"><tspan x="80" dy="0">User</tspan></text></g></g><style>#generated{font-family:Arial;font-size:16px;fill:#333;}@keyframes edge-animation-frame{from{stroke-dashoffset:0;}}@keyframes dash{to{stroke-dashoffset:0;}}#generated .edge-animation-slow{stroke-dasharray:9,5!important;stroke-dashoffset:900;animation:dash 50s linear infinite;stroke-linecap:round;}#generated .edge-animation-fast{stroke-dasharray:9,5!important;stroke-dashoffset:900;animation:dash 20s linear infinite;stroke-linecap:round;}#generated .error-icon{fill:#552222;}#generated .error-text{fill:#552222;stroke:#552222;}#generated .edge-thickness-normal{stroke-width:1px;}#generated .edge-thickness-thick{stroke-width:3.5px;}#generated .edge-pattern-solid{stroke-dasharray:0;}#generated .edge-thickness-invisible{stroke-width:0;fill:none;}#generated .edge-pattern-dashed{stroke-dasharray:3;}#generated .edge-pattern-dotted{stroke-dasharray:2;}#generated .marker{fill:#333333;stroke:#333333;}#generated .marker.cross{stroke:#333333;}#generated svg{font-family:Arial;font-size:16px;}#generated p{margin:0;}#generated .actor{stroke:hsl(259.6261682243, 59.7765363128%, 87.9019607843%);fill:#ECECFF;}#generated text.actor&gt;tspan{fill:black;stroke:none;}#generated .actor-line{stroke:hsl(259.6261682243, 59.7765363128%, 87.9019607843%);}#generated .innerArc{stroke-width:1.5;stroke-dasharray:none;}#generated .messageLine0{stroke-width:1.5;stroke-dasharray:none;stroke:#333;}#generated .messageLine1{stroke-width:1.5;stroke-dasharray:2,2;stroke:#333;}#generated #arrowhead path{fill:#333;stroke:#333;}#generated .sequenceNumber{fill:white;}#generated #sequencenumber{fill:#333;}#generated #crosshead path{fill:#333;stroke:#333;}#generated .messageText{fill:#333;stroke:none;}#generated .labelBox{stroke:hsl(259.6261682243, 59.7765363128%, 87.9019607843%);fill:#ECECFF;}#generated .labelText,#generated .labelText&gt;tspan{fill:black;stroke:none;}#generated .loopText,#generated .loopText&gt;tspan{fill:black;stroke:none;}#generated .loopLine{stroke-width:2px;stroke-dasharray:2,2;stroke:hsl(259.6261682243, 59.7765363128%, 87.9019607843%);fill:hsl(259.6261682243, 59.7765363128%, 87.9019607843%);}#generated .note{stroke:#aaaa33;fill:#fff5ad;}#generated .noteText,#generated .noteText&gt;tspan{fill:black;stroke:none;}#generated .activation0{fill:#f4f4f4;stroke:#666;}#generated .activation1{fill:#f4f4f4;stroke:#666;}#generated .activation2{fill:#f4f4f4;stroke:#666;}#generated .actorPopupMenu{position:absolute;}#generated .actorPopupMenuPanel{position:absolute;fill:#ECECFF;box-shadow:0px 8px 16px 0px rgba(0,0,0,0.2);filter:drop-shadow(3px 5px 2px rgb(0 0 0 / 0.4));}#generated .actor-man line{stroke:hsl(259.6261682243, 59.7765363128%, 87.9019607843%);fill:#ECECFF;}#generated .actor-man circle,#generated line{stroke:hsl(259.6261682243, 59.7765363128%, 87.9019607843%);fill:#ECECFF;stroke-width:2px;}#generated :root{--mermaid-font-family:Arial;}</style><g/><defs><symbol id="computer" width="24" height="24"><path transform="scale(.5)" d="M2 2v13h20v-13h-20zm18 11h-16v-9h16v9zm-10.228 6l.466-1h3.524l.467 1h-4.457zm14.228 3h-24l2-6h2.104l-1.33 4h18.45l-1.297-4h2.073l2 6zm-5-10h-14v-7h14v7z"/></symbol></defs><defs><symbol id="database" fill-rule="evenodd" clip-rule="evenodd"><path transform="scale(.5)" d="M12.258.001l.256.004.255.005.253.008.251.01.249.012.247.015.246.016.242.019.241.02.239.023.236.024.233.027.231.028.229.031.225.032.223.034.22.036.217.038.214.04.211.041.208.043.205.045.201.046.198.048.194.05.191.051.187.053.183.054.18.056.175.057.172.059.168.06.163.061.16.063.155.064.15.066.074.033.073.033.071.034.07.034.069.035.068.035.067.035.066.035.064.036.064.036.062.036.06.036.06.037.058.037.058.037.055.038.055.038.053.038.052.038.051.039.05.039.048.039.047.039.045.04.044.04.043.04.041.04.04.041.039.041.037.041.036.041.034.041.033.042.032.042.03.042.029.042.027.042.026.043.024.043.023.043.021.043.02.043.018.044.017.043.015.044.013.044.012.044.011.045.009.044.007.045.006.045.004.045.002.045.001.045v17l-.001.045-.002.045-.004.045-.006.045-.007.045-.009.044-.011.045-.012.044-.013.044-.015.044-.017.043-.018.044-.02.043-.021.043-.023.043-.024.043-.026.043-.027.042-.029.042-.03.042-.032.042-.033.042-.034.041-.036.041-.037.041-.039.041-.04.041-.041.04-.043.04-.044.04-.045.04-.047.039-.048.039-.05.039-.051.039-.052.038-.053.038-.055.038-.055.038-.058.037-.058.037-.06.037-.06.036-.062.036-.064.036-.064.036-.066.035-.067.035-.068.035-.069.035-.07.034-.071.034-.073.033-.074.033-.15.066-.155.064-.16.063-.163.061-.168.06-.172.059-.175.057-.18.056-.183.054-.187.053-.191.051-.194.05-.198.048-.201.046-.205.045-.208.043-.211.041-.214.04-.217.038-.22.036-.223.034-.225.032-.229.031-.231.028-.233.027-.236.024-.239.023-.241.02-.242.019-.246.016-.247.015-.249.012-.251.01-.253.008-.255.005-.256.004-.258.001-.258-.001-.256-.004-.255-.005-.253-.008-.251-.01-.249-.012-.247-.015-.245-.016-.243-.019-.241-.02-.238-.023-.236-.024-.234-.027-.231-.028-.228-.031-.226-.032-.223-.034-.22-.036-.217-.038-.214-.04-.211-.041-.208-.043-.204-.045-.201-.046-.198-.048-.195-.05-.19-.051-.187-.053-.184-.054-.179-.056-.176-.057-.172-.059-.167-.06-.164-.061-.159-.063-.155-.064-.151-.066-.074-.033-.072-.033-.072-.034-.07-.034-.069-.035-.068-.035-.067-.035-.066-.035-.064-.036-.063-.036-.062-.036-.061-.036-.06-.037-.058-.037-.057-.037-.056-.038-.055-.038-.053-.038-.052-.038-.051-.039-.049-.039-.049-.039-.046-.039-.046-.04-.044-.04-.043-.04-.041-.04-.04-.041-.039-.041-.037-.041-.036-.041-.034-.041-.033-.042-.032-.042-.03-.042-.029-.042-.027-.042-.026-.043-.024-.043-.023-.043-.021-.043-.02-.043-.018-.044-.017-.043-.015-.044-.013-.044-.012-.044-.011-.045-.009-.044-.007-.045-.006-.045-.004-.045-.002-.045-.001-.045v-17l.001-.045.002-.045.004-.045.006-.045.007-.045.009-.044.011-.045.012-.044.013-.044.015-.044.017-.043.018-.044.02-.043.021-.043.023-.043.024-.043.026-.043.027-.042.029-.042.03-.042.032-.042.033-.042.034-.041.036-.041.037-.041.039-.041.04-.041.041-.04.043-.04.044-.04.046-.04.046-.039.049-.039.049-.039.051-.039.052-.038.053-.038.055-.038.056-.038.057-.037.058-.037.06-.037.061-.036.062-.036.063-.036.064-.036.066-.035.067-.035.068-.035.069-.035.07-.034.072-.034.072-.033.074-.033.151-.066.155-.064.159-.063.164-.061.167-.06.172-.059.176-.057.179-.056.184-.054.187-.053.19-.051.195-.05.198-.048.201-.046.204-.045.208-.043.211-.041.214-.04.217-.038.22-.036.223-.034.226-.032.228-.031.231-.028.234-.027.236-.024.238-.023.241-.02.243-.019.245-.016.247-.015.249-.012.251-.01.253-.008.255-.005.256-.004.258-.001.258.001zm-9.258 20.499v.01l.001.021.003.021.004.022.005.021.006.022.007.022.009.023.01.022.011.023.012.023.013.023.015.023.016.024.017.023.018.024.019.024.021.024.022.025.023.024.024.025.052.049.056.05.061.051.066.051.07.051.075.051.079.052.084.052.088.052.092.052.097.052.102.051.105.052.11.052.114.051.119.051.123.051.127.05.131.05.135.05.139.048.144.049.147.047.152.047.155.047.16.045.163.045.167.043.171.043.176.041.178.041.183.039.187.039.19.037.194.035.197.035.202.033.204.031.209.03.212.029.216.027.219.025.222.024.226.021.23.02.233.018.236.016.24.015.243.012.246.01.249.008.253.005.256.004.259.001.26-.001.257-.004.254-.005.25-.008.247-.011.244-.012.241-.014.237-.016.233-.018.231-.021.226-.021.224-.024.22-.026.216-.027.212-.028.21-.031.205-.031.202-.034.198-.034.194-.036.191-.037.187-.039.183-.04.179-.04.175-.042.172-.043.168-.044.163-.045.16-.046.155-.046.152-.047.148-.048.143-.049.139-.049.136-.05.131-.05.126-.05.123-.051.118-.052.114-.051.11-.052.106-.052.101-.052.096-.052.092-.052.088-.053.083-.051.079-.052.074-.052.07-.051.065-.051.06-.051.056-.05.051-.05.023-.024.023-.025.021-.024.02-.024.019-.024.018-.024.017-.024.015-.023.014-.024.013-.023.012-.023.01-.023.01-.022.008-.022.006-.022.006-.022.004-.022.004-.021.001-.021.001-.021v-4.127l-.077.055-.08.053-.083.054-.085.053-.087.052-.09.052-.093.051-.095.05-.097.05-.1.049-.102.049-.105.048-.106.047-.109.047-.111.046-.114.045-.115.045-.118.044-.12.043-.122.042-.124.042-.126.041-.128.04-.13.04-.132.038-.134.038-.135.037-.138.037-.139.035-.142.035-.143.034-.144.033-.147.032-.148.031-.15.03-.151.03-.153.029-.154.027-.156.027-.158.026-.159.025-.161.024-.162.023-.163.022-.165.021-.166.02-.167.019-.169.018-.169.017-.171.016-.173.015-.173.014-.175.013-.175.012-.177.011-.178.01-.179.008-.179.008-.181.006-.182.005-.182.004-.184.003-.184.002h-.37l-.184-.002-.184-.003-.182-.004-.182-.005-.181-.006-.179-.008-.179-.008-.178-.01-.176-.011-.176-.012-.175-.013-.173-.014-.172-.015-.171-.016-.17-.017-.169-.018-.167-.019-.166-.02-.165-.021-.163-.022-.162-.023-.161-.024-.159-.025-.157-.026-.156-.027-.155-.027-.153-.029-.151-.03-.15-.03-.148-.031-.146-.032-.145-.033-.143-.034-.141-.035-.14-.035-.137-.037-.136-.037-.134-.038-.132-.038-.13-.04-.128-.04-.126-.041-.124-.042-.122-.042-.12-.044-.117-.043-.116-.045-.113-.045-.112-.046-.109-.047-.106-.047-.105-.048-.102-.049-.1-.049-.097-.05-.095-.05-.093-.052-.09-.051-.087-.052-.085-.053-.083-.054-.08-.054-.077-.054v4.127zm0-5.654v.011l.001.021.003.021.004.021.005.022.006.022.007.022.009.022.01.022.011.023.012.023.013.023.015.024.016.023.017.024.018.024.019.024.021.024.022.024.023.025.024.024.052.05.056.05.061.05.066.051.07.051.075.052.079.051.084.052.088.052.092.052.097.052.102.052.105.052.11.051.114.051.119.052.123.05.127.051.131.05.135.049.139.049.144.048.147.048.152.047.155.046.16.045.163.045.167.044.171.042.176.042.178.04.183.04.187.038.19.037.194.036.197.034.202.033.204.032.209.03.212.028.216.027.219.025.222.024.226.022.23.02.233.018.236.016.24.014.243.012.246.01.249.008.253.006.256.003.259.001.26-.001.257-.003.254-.006.25-.008.247-.01.244-.012.241-.015.237-.016.233-.018.231-.02.226-.022.224-.024.22-.025.216-.027.212-.029.21-.03.205-.032.202-.033.198-.035.194-.036.191-.037.187-.039.183-.039.179-.041.175-.042.172-.043.168-.044.163-.045.16-.045.155-.047.152-.047.148-.048.143-.048.139-.05.136-.049.131-.05.126-.051.123-.051.118-.051.114-.052.11-.052.106-.052.101-.052.096-.052.092-.052.088-.052.083-.052.079-.052.074-.051.07-.052.065-.051.06-.05.056-.051.051-.049.023-.025.023-.024.021-.025.02-.024.019-.024.018-.024.017-.024.015-.023.014-.023.013-.024.012-.022.01-.023.01-.023.008-.022.006-.022.006-.022.004-.021.004-.022.001-.021.001-.021v-4.139l-.077.054-.08.054-.083.054-.085.052-.087.053-.09.051-.093.051-.095.051-.097.05-.1.049-.102.049-.105.048-.106.047-.109.047-.111.046-.114.045-.115.044-.118.044-.12.044-.122.042-.124.042-.126.041-.128.04-.13.039-.132.039-.134.038-.135.037-.138.036-.139.036-.142.035-.143.033-.144.033-.147.033-.148.031-.15.03-.151.03-.153.028-.154.028-.156.027-.158.026-.159.025-.161.024-.162.023-.163.022-.165.021-.166.02-.167.019-.169.018-.169.017-.171.016-.173.015-.173.014-.175.013-.175.012-.177.011-.178.009-.179.009-.179.007-.181.007-.182.005-.182.004-.184.003-.184.002h-.37l-.184-.002-.184-.003-.182-.004-.182-.005-.181-.007-.179-.007-.179-.009-.178-.009-.176-.011-.176-.012-.175-.013-.173-.014-.172-.015-.171-.016-.17-.017-.169-.018-.167-.019-.166-.02-.165-.021-.163-.022-.162-.023-.161-.024-.159-.025-.157-.026-.156-.027-.155-.028-.153-.028-.151-.03-.15-.03-.148-.031-.146-.033-.145-.033-.143-.033-.141-.035-.14-.036-.137-.036-.136-.037-.134-.038-.132-.039-.13-.039-.128-.04-.126-.041-.124-.042-.122-.043-.12-.043-.117-.044-.116-.044-.113-.046-.112-.046-.109-.046-.106-.047-.105-.048-.102-.049-.1-.049-.097-.05-.095-.051-.093-.051-.09-.051-.087-.053-.085-.052-.083-.054-.08-.054-.077-.054v4.139zm0-5.666v.011l.001.02.003.022.004.021.005.022.006.021.007.022.009.023.01.022.011.023.012.023.013.023.015.023.016.024.017.024.018.023.019.024.021.025.022.024.023.024.024.025.052.05.056.05.061.05.066.051.07.051.075.052.079.051.084.052.088.052.092.052.097.052.102.052.105.051.11.052.114.051.119.051.123.051.127.05.131.05.135.05.139.049.144.048.147.048.152.047.155.046.16.045.163.045.167.043.171.043.176.042.178.04.183.04.187.038.19.037.194.036.197.034.202.033.204.032.209.03.212.028.216.027.219.025.222.024.226.021.23.02.233.018.236.017.24.014.243.012.246.01.249.008.253.006.256.003.259.001.26-.001.257-.003.254-.006.25-.008.247-.01.244-.013.241-.014.237-.016.233-.018.231-.02.226-.022.224-.024.22-.025.216-.027.212-.029.21-.03.205-.032.202-.033.198-.035.194-.036.191-.037.187-.039.183-.039.179-.041.175-.042.172-.043.168-.044.163-.045.16-.045.155-.047.152-.047.148-.048.143-.049.139-.049.136-.049.131-.051.126-.05.123-.051.118-.052.114-.051.11-.052.106-.052.101-.052.096-.052.092-.052.088-.052.083-.052.079-.052.074-.052.07-.051.065-.051.06-.051.056-.05.051-.049.023-.025.023-.025.021-.024.02-.024.019-.024.018-.024.017-.024.015-.023.014-.024.013-.023.012-.023.01-.022.01-.023.008-.022.006-.022.006-.022.004-.022.004-.021.001-.021.001-.021v-4.153l-.077.054-.08.054-.083.053-.085.053-.087.053-.09.051-.093.051-.095.051-.097.05-.1.049-.102.048-.105.048-.106.048-.109.046-.111.046-.114.046-.115.044-.118.044-.12.043-.122.043-.124.042-.126.041-.128.04-.13.039-.132.039-.134.038-.135.037-.138.036-.139.036-.142.034-.143.034-.144.033-.147.032-.148.032-.15.03-.151.03-.153.028-.154.028-.156.027-.158.026-.159.024-.161.024-.162.023-.163.023-.165.021-.166.02-.167.019-.169.018-.169.017-.171.016-.173.015-.173.014-.175.013-.175.012-.177.01-.178.01-.179.009-.179.007-.181.006-.182.006-.182.004-.184.003-.184.001-.185.001-.185-.001-.184-.001-.184-.003-.182-.004-.182-.006-.181-.006-.179-.007-.179-.009-.178-.01-.176-.01-.176-.012-.175-.013-.173-.014-.172-.015-.171-.016-.17-.017-.169-.018-.167-.019-.166-.02-.165-.021-.163-.023-.162-.023-.161-.024-.159-.024-.157-.026-.156-.027-.155-.028-.153-.028-.151-.03-.15-.03-.148-.032-.146-.032-.145-.033-.143-.034-.141-.034-.14-.036-.137-.036-.136-.037-.134-.038-.132-.039-.13-.039-.128-.041-.126-.041-.124-.041-.122-.043-.12-.043-.117-.044-.116-.044-.113-.046-.112-.046-.109-.046-.106-.048-.105-.048-.102-.048-.1-.05-.097-.049-.095-.051-.093-.051-.09-.052-.087-.052-.085-.053-.083-.053-.08-.054-.077-.054v4.153zm8.74-8.179l-.257.004-.254.005-.25.008-.247.011-.244.012-.241.014-.237.016-.233.018-.231.021-.226.022-.224.023-.22.026-.216.027-.212.028-.21.031-.205.032-.202.033-.198.034-.194.036-.191.038-.187.038-.183.04-.179.041-.175.042-.172.043-.168.043-.163.045-.16.046-.155.046-.152.048-.148.048-.143.048-.139.049-.136.05-.131.05-.126.051-.123.051-.118.051-.114.052-.11.052-.106.052-.101.052-.096.052-.092.052-.088.052-.083.052-.079.052-.074.051-.07.052-.065.051-.06.05-.056.05-.051.05-.023.025-.023.024-.021.024-.02.025-.019.024-.018.024-.017.023-.015.024-.014.023-.013.023-.012.023-.01.023-.01.022-.008.022-.006.023-.006.021-.004.022-.004.021-.001.021-.001.021.001.021.001.021.004.021.004.022.006.021.006.023.008.022.01.022.01.023.012.023.013.023.014.023.015.024.017.023.018.024.019.024.02.025.021.024.023.024.023.025.051.05.056.05.06.05.065.051.07.052.074.051.079.052.083.052.088.052.092.052.096.052.101.052.106.052.11.052.114.052.118.051.123.051.126.051.131.05.136.05.139.049.143.048.148.048.152.048.155.046.16.046.163.045.168.043.172.043.175.042.179.041.183.04.187.038.191.038.194.036.198.034.202.033.205.032.21.031.212.028.216.027.22.026.224.023.226.022.231.021.233.018.237.016.241.014.244.012.247.011.25.008.254.005.257.004.26.001.26-.001.257-.004.254-.005.25-.008.247-.011.244-.012.241-.014.237-.016.233-.018.231-.021.226-.022.224-.023.22-.026.216-.027.212-.028.21-.031.205-.032.202-.033.198-.034.194-.036.191-.038.187-.038.183-.04.179-.041.175-.042.172-.043.168-.043.163-.045.16-.046.155-.046.152-.048.148-.048.143-.048.139-.049.136-.05.131-.05.126-.051.123-.051.118-.051.114-.052.11-.052.106-.052.101-.052.096-.052.092-.052.088-.052.083-.052.079-.052.074-.051.07-.052.065-.051.06-.05.056-.05.051-.05.023-.025.023-.024.021-.024.02-.025.019-.024.018-.024.017-.023.015-.024.014-.023.013-.023.012-.023.01-.023.01-.022.008-.022.006-.023.006-.021.004-.022.004-.021.001-.021.001-.021-.001-.021-.001-.021-.004-.021-.004-.022-.006-.021-.006-.023-.008-.022-.01-.022-.01-.023-.012-.023-.013-.023-.014-.023-.015-.024-.017-.023-.018-.024-.019-.024-.02-.025-.021-.024-.023-.024-.023-.025-.051-.05-.056-.05-.06-.05-.065-.051-.07-.052-.074-.051-.079-.052-.083-.052-.088-.052-.092-.052-.096-.052-.101-.052-.106-.052-.11-.052-.114-.052-.118-.051-.123-.051-.126-.051-.131-.05-.136-.05-.139-.049-.143-.048-.148-.048-.152-.048-.155-.046-.16-.046-.163-.045-.168-.043-.172-.043-.175-.042-.179-.041-.183-.04-.187-.038-.191-.038-.194-.036-.198-.034-.202-.033-.205-.032-.21-.031-.212-.028-.216-.027-.22-.026-.224-.023-.226-.022-.231-.021-.233-.018-.237-.016-.241-.014-.244-.012-.247-.011-.25-.008-.254-.005-.257-.004-.26-.001-.26.001z"/></symbol></defs><defs><symbol id="clock" width="24" height="24"><path transform="scale(.5)" d="M12 2c5.514 0 10 4.486 10 10s-4.486 10-10 10-10-4.486-10-10 4.486-10 10-10zm0-2c-6.627 0-12 5.373-12 12s5.373 12 12 12 12-5.373 12-12-5.373-12-12-12zm5.848 12.459c.202.038.202.333.001.372-1.907.361-6.045 1.111-6.547 1.111-.719 0-1.301-.582-1.301-1.301 0-.512.77-5.447 1.125-7.445.034-.192.312-.181.343.014l.985 6.238 5.394 1.011z"/></symbol></defs><defs><marker id="arrowhead" refX="7.9" refY="5" markerUnits="userSpaceOnUse" markerWidth="12" markerHeight="12" orient="auto-start-reverse"><path d="M -1 0 L 10 5 L 0 10 z"/></marker></defs><defs><marker id="crosshead" markerWidth="15" markerHeight="8" orient="auto" refX="4" refY="4.5"><path fill="none" stroke="#000000" stroke-width="1pt" d="M 1,2 L 6,7 M 6,2 L 1,7" style="stroke-dasharray: 0, 0;"/></marker></defs><defs><marker id="filled-head" refX="15.5" refY="7" markerWidth="20" markerHeight="28" orient="auto"><path d="M 18,7 L9,13 L14,7 L9,1 Z"/></marker></defs><defs><marker id="sequencenumber" refX="15" refY="15" markerWidth="60" markerHeight="40" orient="auto"><circle cx="15" cy="15" r="6"/></marker></defs><g><rect x="55" y="128" fill="#EDF2AE" stroke="#666" width="1803" height="38" class="note"/><text x="957" y="133" text-anchor="middle" dominant-baseline="middle" alignment-baseline="middle" class="noteText" dy="1em" style="font-family: Arial; font-size: 16px; font-weight: 400;"><tspan x="957">Relay DAI</tspan></text></g><g><line x1="45" y1="103" x2="1868" y2="103" class="loopLine"/><line x1="1868" y1="103" x2="1868" y2="574" class="loopLine"/><line x1="45" y1="574" x2="1868" y2="574" class="loopLine"/><line x1="45" y1="103" x2="45" y2="574" class="loopLine"/><polygon points="45,103 95,103 95,116 86.6,123 45,123" class="labelBox"/><text x="70" y="116" text-anchor="middle" dominant-baseline="middle" alignment-baseline="middle" class="labelText" style="font-family: Arial; font-size: 16px; font-weight: 400;">par</text><text x="981.5" y="121" text-anchor="middle" class="loopText" style="font-family: Arial; font-size: 16px; font-weight: 400;"><tspan x="981.5">​</tspan></text></g><g><rect x="55" y="609" fill="#EDF2AE" stroke="#666" width="1803" height="38" class="note"/><text x="957" y="614" text-anchor="middle" dominant-baseline="middle" alignment-baseline="middle" class="noteText" dy="1em" style="font-family: Arial; font-size: 16px; font-weight: 400;"><tspan x="957">Claim DAI</tspan></text></g><g><line x1="45" y1="584" x2="1868" y2="584" class="loopLine"/><line x1="1868" y1="584" x2="1868" y2="841" class="loopLine"/><line x1="45" y1="841" x2="1868" y2="841" class="loopLine"/><line x1="45" y1="584" x2="45" y2="841" class="loopLine"/><polygon points="45,584 95,584 95,597 86.6,604 45,604" class="labelBox"/><text x="70" y="597" text-anchor="middle" dominant-baseline="middle" alignment-baseline="middle" class="labelText" style="font-family: Arial; font-size: 16px; font-weight: 400;">par</text><text x="981.5" y="602" text-anchor="middle" class="loopText" style="font-family: Arial; font-size: 16px; font-weight: 400;"><tspan x="981.5">​</tspan></text></g><g><rect x="55" y="876" fill="#EDF2AE" stroke="#666" width="1803" height="38" class="note"/><text x="957" y="881" text-anchor="middle" dominant-baseline="middle" alignment-baseline="middle" class="noteText" dy="1em" style="font-family: Arial; font-size: 16px; font-weight: 400;"><tspan x="957">Relay USDS</tspan></text></g><g><line x1="45" y1="851" x2="1868" y2="851" class="loopLine"/><line x1="1868" y1="851" x2="1868" y2="1230" class="loopLine"/><line x1="45" y1="1230" x2="1868" y2="1230" class="loopLine"/><line x1="45" y1="851" x2="45" y2="1230" class="loopLine"/><polygon points="45,851 95,851 95,864 86.6,871 45,871" class="labelBox"/><text x="70" y="864" text-anchor="middle" dominant-baseline="middle" alignment-baseline="middle" class="labelText" style="font-family: Arial; font-size: 16px; font-weight: 400;">par</text><text x="981.5" y="869" text-anchor="middle" class="loopText" style="font-family: Arial; font-size: 16px; font-weight: 400;"><tspan x="981.5">​</tspan></text></g><g><rect x="55" y="1265" fill="#EDF2AE" stroke="#666" width="1803" height="38" class="note"/><text x="957" y="1270" text-anchor="middle" dominant-baseline="middle" alignment-baseline="middle" class="noteText" dy="1em" style="font-family: Arial; font-size: 16px; font-weight: 400;"><tspan x="957">Claim USDS</tspan></text></g><g><line x1="45" y1="1240" x2="1868" y2="1240" class="loopLine"/><line x1="1868" y1="1240" x2="1868" y2="1451" class="loopLine"/><line x1="45" y1="1451" x2="1868" y2="1451" class="loopLine"/><line x1="45" y1="1240" x2="45" y2="1451" class="loopLine"/><polygon points="45,1240 95,1240 95,1253 86.6,1260 45,1260" class="labelBox"/><text x="70" y="1253" text-anchor="middle" dominant-baseline="middle" alignment-baseline="middle" class="labelText" style="font-family: Arial; font-size: 16px; font-weight: 400;">par</text><text x="981.5" y="1258" text-anchor="middle" class="loopText" style="font-family: Arial; font-size: 16px; font-weight: 400;"><tspan x="981.5">​</tspan></text></g><g><rect x="55" y="1486" fill="#EDF2AE" stroke="#666" width="1803" height="38" class="note"/><text x="957" y="1491" text-anchor="middle" dominant-baseline="middle" alignment-baseline="middle" class="noteText" dy="1em" style="font-family: Arial; font-size: 16px; font-weight: 400;"><tspan x="957">Relay xDAI and get DAI</tspan></text></g><g><line x1="45" y1="1461" x2="1868" y2="1461" class="loopLine"/><line x1="1868" y1="1461" x2="1868" y2="1764" class="loopLine"/><line x1="45" y1="1764" x2="1868" y2="1764" class="loopLine"/><line x1="45" y1="1461" x2="45" y2="1764" class="loopLine"/><polygon points="45,1461 95,1461 95,1474 86.6,1481 45,1481" class="labelBox"/><text x="70" y="1474" text-anchor="middle" dominant-baseline="middle" alignment-baseline="middle" class="labelText" style="font-family: Arial; font-size: 16px; font-weight: 400;">par</text><text x="981.5" y="1479" text-anchor="middle" class="loopText" style="font-family: Arial; font-size: 16px; font-weight: 400;"><tspan x="981.5">​</tspan></text></g><g><rect x="55" y="1799" fill="#EDF2AE" stroke="#666" width="1803" height="38" class="note"/><text x="957" y="1804" text-anchor="middle" dominant-baseline="middle" alignment-baseline="middle" class="noteText" dy="1em" style="font-family: Arial; font-size: 16px; font-weight: 400;"><tspan x="957">Relay xDAI and get USDS</tspan></text></g><g><line x1="45" y1="1774" x2="1868" y2="1774" class="loopLine"/><line x1="1868" y1="1774" x2="1868" y2="2031" class="loopLine"/><line x1="45" y1="2031" x2="1868" y2="2031" class="loopLine"/><line x1="45" y1="1774" x2="45" y2="2031" class="loopLine"/><polygon points="45,1774 95,1774 95,1787 86.6,1794 45,1794" class="labelBox"/><text x="70" y="1787" text-anchor="middle" dominant-baseline="middle" alignment-baseline="middle" class="labelText" style="font-family: Arial; font-size: 16px; font-weight: 400;">par</text><text x="981.5" y="1792" text-anchor="middle" class="loopText" style="font-family: Arial; font-size: 16px; font-weight: 400;"><tspan x="981.5">​</tspan></text></g><text x="259" y="181" text-anchor="middle" dominant-baseline="middle" alignment-baseline="middle" class="messageText" dy="1em" style="font-family: Arial; font-size: 16px; font-weight: 400;">DAI.approve(BridgeRouter, amount)</text><line x1="81" y1="212" x2="437" y2="212" class="messageLine0" stroke-width="2" stroke="none" marker-end="url(#arrowhead)" style="fill: none;"/><text x="259" y="227" text-anchor="middle" dominant-baseline="middle" alignment-baseline="middle" class="messageText" dy="1em" style="font-family: Arial; font-size: 16px; font-weight: 400;">relayTokens(DAI, receiver, amount)</text><line x1="81" y1="258" x2="437" y2="258" class="messageLine0" stroke-width="2" stroke="none" marker-end="url(#arrowhead)" style="fill: none;"/><text x="546" y="273" text-anchor="middle" dominant-baseline="middle" alignment-baseline="middle" class="messageText" dy="1em" style="font-family: Arial; font-size: 16px; font-weight: 400;">Transfer DAI</text><line x1="442" y1="304" x2="649" y2="304" class="messageLine0" stroke-width="2" stroke="none" marker-end="url(#arrowhead)" style="fill: none;"/><text x="758" y="319" text-anchor="middle" dominant-baseline="middle" alignment-baseline="middle" class="messageText" dy="1em" style="font-family: Arial; font-size: 16px; font-weight: 400;">swapDaiToUsds()</text><line x1="654" y1="350" x2="861" y2="350" class="messageLine0" stroke-width="2" stroke="none" marker-end="url(#arrowhead)" style="fill: none;"/><text x="965" y="365" text-anchor="middle" dominant-baseline="middle" alignment-baseline="middle" class="messageText" dy="1em" style="font-family: Arial; font-size: 16px; font-weight: 400;">Approve USDS</text><line x1="866" y1="396" x2="1063.5" y2="396" class="messageLine0" stroke-width="2" stroke="none" marker-end="url(#arrowhead)" style="fill: none;"/><text x="1069" y="411" text-anchor="middle" dominant-baseline="middle" alignment-baseline="middle" class="messageText" dy="1em" style="font-family: Arial; font-size: 16px; font-weight: 400;">Lock USDS as collateral</text><path d="M 1068.5,442 C 1128.5,432 1128.5,472 1068.5,462" class="messageLine0" stroke-width="2" stroke="none" marker-end="url(#arrowhead)" style="fill: none;"/><text x="1206" y="487" text-anchor="middle" dominant-baseline="middle" alignment-baseline="middle" class="messageText" dy="1em" style="font-family: Arial; font-size: 16px; font-weight: 400;">Bridging process</text><line x1="1068.5" y1="518" x2="1343" y2="518" class="messageLine1" stroke-width="2" stroke="none" marker-end="url(#arrowhead)" style="stroke-dasharray: 3, 3; fill: none;"/><text x="1589" y="533" text-anchor="middle" dominant-baseline="middle" alignment-baseline="middle" class="messageText" dy="1em" style="font-family: Arial; font-size: 16px; font-weight: 400;">receive xDAI</text><line x1="1348" y1="564" x2="1829" y2="564" class="messageLine0" stroke-width="2" stroke="none" marker-end="url(#arrowhead)" style="fill: none;"/><text x="259" y="662" text-anchor="middle" dominant-baseline="middle" alignment-baseline="middle" class="messageText" dy="1em" style="font-family: Arial; font-size: 16px; font-weight: 400;">executeSignatures(message, signatures)</text><line x1="81" y1="693" x2="437" y2="693" class="messageLine0" stroke-width="2" stroke="none" marker-end="url(#arrowhead)" style="fill: none;"/><text x="753" y="708" text-anchor="middle" dominant-baseline="middle" alignment-baseline="middle" class="messageText" dy="1em" style="font-family: Arial; font-size: 16px; font-weight: 400;">executeSignatures(message, signatures)</text><line x1="442" y1="739" x2="1063.5" y2="739" class="messageLine0" stroke-width="2" stroke="none" marker-end="url(#arrowhead)" style="fill: none;"/><text x="968" y="754" text-anchor="middle" dominant-baseline="middle" alignment-baseline="middle" class="messageText" dy="1em" style="font-family: Arial; font-size: 16px; font-weight: 400;">swapUsdsToDai()</text><line x1="1066.5" y1="785" x2="869" y2="785" class="messageLine0" stroke-width="2" stroke="none" marker-end="url(#arrowhead)" style="fill: none;"/><text x="575" y="800" text-anchor="middle" dominant-baseline="middle" alignment-baseline="middle" class="messageText" dy="1em" style="font-family: Arial; font-size: 16px; font-weight: 400;">Transfer DAI to receiver</text><line x1="1066.5" y1="831" x2="84" y2="831" class="messageLine0" stroke-width="2" stroke="none" marker-end="url(#arrowhead)" style="fill: none;"/><text x="259" y="929" text-anchor="middle" dominant-baseline="middle" alignment-baseline="middle" class="messageText" dy="1em" style="font-family: Arial; font-size: 16px; font-weight: 400;">USDS.approve(BridgeRouter, amount)</text><line x1="81" y1="960" x2="437" y2="960" class="messageLine0" stroke-width="2" stroke="none" marker-end="url(#arrowhead)" style="fill: none;"/><text x="259" y="975" text-anchor="middle" dominant-baseline="middle" alignment-baseline="middle" class="messageText" dy="1em" style="font-family: Arial; font-size: 16px; font-weight: 400;">relayTokens(USDS, receiver, amount)</text><line x1="81" y1="1006" x2="437" y2="1006" class="messageLine0" stroke-width="2" stroke="none" marker-end="url(#arrowhead)" style="fill: none;"/><text x="753" y="1021" text-anchor="middle" dominant-baseline="middle" alignment-baseline="middle" class="messageText" dy="1em" style="font-family: Arial; font-size: 16px; font-weight: 400;">Direct transfer of USDS</text><line x1="442" y1="1052" x2="1063.5" y2="1052" class="messageLine0" stroke-width="2" stroke="none" marker-end="url(#arrowhead)" style="fill: none;"/><text x="1069" y="1067" text-anchor="middle" dominant-baseline="middle" alignment-baseline="middle" class="messageText" dy="1em" style="font-family: Arial; font-size: 16px; font-weight: 400;">Lock USDS as collateral</text><path d="M 1068.5,1098 C 1128.5,1088 1128.5,1128 1068.5,1118" class="messageLine0" stroke-width="2" stroke="none" marker-end="url(#arrowhead)" style="fill: none;"/><text x="1206" y="1143" text-anchor="middle" dominant-baseline="middle" alignment-baseline="middle" class="messageText" dy="1em" style="font-family: Arial; font-size: 16px; font-weight: 400;">Bridging process</text><line x1="1068.5" y1="1174" x2="1343" y2="1174" class="messageLine1" stroke-width="2" stroke="none" marker-end="url(#arrowhead)" style="stroke-dasharray: 3, 3; fill: none;"/><text x="1589" y="1189" text-anchor="middle" dominant-baseline="middle" alignment-baseline="middle" class="messageText" dy="1em" style="font-family: Arial; font-size: 16px; font-weight: 400;">receive xDAI</text><line x1="1348" y1="1220" x2="1829" y2="1220" class="messageLine0" stroke-width="2" stroke="none" marker-end="url(#arrowhead)" style="fill: none;"/><text x="259" y="1318" text-anchor="middle" dominant-baseline="middle" alignment-baseline="middle" class="messageText" dy="1em" style="font-family: Arial; font-size: 16px; font-weight: 400;">executeSignatures(message, signatures)</text><line x1="81" y1="1349" x2="437" y2="1349" class="messageLine0" stroke-width="2" stroke="none" marker-end="url(#arrowhead)" style="fill: none;"/><text x="753" y="1364" text-anchor="middle" dominant-baseline="middle" alignment-baseline="middle" class="messageText" dy="1em" style="font-family: Arial; font-size: 16px; font-weight: 400;">executeSignatures(message, signatures)</text><line x1="442" y1="1395" x2="1063.5" y2="1395" class="messageLine0" stroke-width="2" stroke="none" marker-end="url(#arrowhead)" style="fill: none;"/><text x="575" y="1410" text-anchor="middle" dominant-baseline="middle" alignment-baseline="middle" class="messageText" dy="1em" style="font-family: Arial; font-size: 16px; font-weight: 400;">Transfer USDS to receiver</text><line x1="1066.5" y1="1441" x2="84" y2="1441" class="messageLine0" stroke-width="2" stroke="none" marker-end="url(#arrowhead)" style="fill: none;"/><text x="712" y="1539" text-anchor="middle" dominant-baseline="middle" alignment-baseline="middle" class="messageText" dy="1em" style="font-family: Arial; font-size: 16px; font-weight: 400;">xDaiHomeBridge.transfer{value:msg.value} or xDaiHomeBridge.relayTokens{value:msg.value}(recipient)</text><line x1="81" y1="1570" x2="1343" y2="1570" class="messageLine0" stroke-width="2" stroke="none" marker-end="url(#arrowhead)" style="fill: none;"/><text x="259" y="1585" text-anchor="middle" dominant-baseline="middle" alignment-baseline="middle" class="messageText" dy="1em" style="font-family: Arial; font-size: 16px; font-weight: 400;">executeSignatures(message,recipient)</text><line x1="81" y1="1616" x2="437" y2="1616" class="messageLine0" stroke-width="2" stroke="none" marker-end="url(#arrowhead)" style="fill: none;"/><text x="753" y="1631" text-anchor="middle" dominant-baseline="middle" alignment-baseline="middle" class="messageText" dy="1em" style="font-family: Arial; font-size: 16px; font-weight: 400;">executeSignatures(message,recipient)</text><line x1="442" y1="1662" x2="1063.5" y2="1662" class="messageLine0" stroke-width="2" stroke="none" marker-end="url(#arrowhead)" style="fill: none;"/><text x="968" y="1677" text-anchor="middle" dominant-baseline="middle" alignment-baseline="middle" class="messageText" dy="1em" style="font-family: Arial; font-size: 16px; font-weight: 400;">swapUsdsToDai()</text><line x1="1066.5" y1="1708" x2="869" y2="1708" class="messageLine0" stroke-width="2" stroke="none" marker-end="url(#arrowhead)" style="fill: none;"/><text x="1449" y="1723" text-anchor="middle" dominant-baseline="middle" alignment-baseline="middle" class="messageText" dy="1em" style="font-family: Arial; font-size: 16px; font-weight: 400;">transfer DAI</text><line x1="1068.5" y1="1754" x2="1829" y2="1754" class="messageLine0" stroke-width="2" stroke="none" marker-end="url(#arrowhead)" style="fill: none;"/><text x="848" y="1852" text-anchor="middle" dominant-baseline="middle" alignment-baseline="middle" class="messageText" dy="1em" style="font-family: Arial; font-size: 16px; font-weight: 400;">USDSDepositContract.transfer{value:msg.value} or USDSDepositContract.relayTokens{value:msg.value}(recipient)</text><line x1="81" y1="1883" x2="1614.5" y2="1883" class="messageLine0" stroke-width="2" stroke="none" marker-end="url(#arrowhead)" style="fill: none;"/><text x="259" y="1898" text-anchor="middle" dominant-baseline="middle" alignment-baseline="middle" class="messageText" dy="1em" style="font-family: Arial; font-size: 16px; font-weight: 400;">executeSignatures(message,recipient)</text><line x1="81" y1="1929" x2="437" y2="1929" class="messageLine0" stroke-width="2" stroke="none" marker-end="url(#arrowhead)" style="fill: none;"/><text x="753" y="1944" text-anchor="middle" dominant-baseline="middle" alignment-baseline="middle" class="messageText" dy="1em" style="font-family: Arial; font-size: 16px; font-weight: 400;">executeSignatures(message,recipient)</text><line x1="442" y1="1975" x2="1063.5" y2="1975" class="messageLine0" stroke-width="2" stroke="none" marker-end="url(#arrowhead)" style="fill: none;"/><text x="1449" y="1990" text-anchor="middle" dominant-baseline="middle" alignment-baseline="middle" class="messageText" dy="1em" style="font-family: Arial; font-size: 16px; font-weight: 400;">unlock USDS</text><line x1="1068.5" y1="2021" x2="1829" y2="2021" class="messageLine0" stroke-width="2" stroke="none" marker-end="url(#arrowhead)" style="fill: none;"/></svg>